<svg width="22" height="24" viewBox="0 0 22 24" fill="none" xmlns="http://www.w3.org/2000/svg">
<path d="M11.9983 11.4783L15.9607 7.53256L3.16238 0.369667C2.31417 -0.0866875 1.51955 -0.150737 0.822755 0.348317L11.9983 11.4783ZM16.636 16.0979L20.7551 13.7907C21.5591 13.3424 22 12.7072 22 12.0027C22 11.2995 21.5591 10.663 20.7565 10.2146L17.0273 8.12902L12.8291 12.3083L16.636 16.0979ZM0.133999 1.3184C0.0482396 1.58127 0 1.87483 0 2.19642V21.8183C0 22.3267 0.112559 22.7644 0.316238 23.1126L11.1662 12.3069L0.133999 1.3184ZM11.9983 13.1342L1.20867 23.8799C1.41503 23.9586 1.63747 24 1.87197 24C2.29005 24 2.72554 23.8772 3.16908 23.6317L15.5707 16.697L11.9983 13.1342Z" fill="black"/>
</svg>
