<svg width="23" height="27" viewBox="0 0 23 27" fill="none" xmlns="http://www.w3.org/2000/svg">
<path d="M19.2292 14.2686C19.216 12.0554 20.2328 10.3875 22.286 9.15758C21.1376 7.53504 19.4003 6.64265 17.1102 6.47066C14.9418 6.30192 12.5694 7.71677 11.7007 7.71677C10.7827 7.71677 8.6834 6.52907 7.03162 6.52907C3.62275 6.58099 0 9.2095 0 14.5574C0 16.1377 0.292847 17.77 0.878541 19.4509C1.66166 21.6641 4.48484 27.0866 7.42976 26.999C8.96967 26.9633 10.0588 25.9216 12.0627 25.9216C14.0073 25.9216 15.0142 26.999 16.7318 26.999C19.703 26.9568 22.2564 22.0275 23 19.8079C19.0153 17.955 19.2292 14.3821 19.2292 14.2686ZM15.771 4.3711C17.4392 2.41757 17.2878 0.639278 17.2385 0C15.7644 0.0843717 14.0599 0.989745 13.0893 2.1028C12.0199 3.29699 11.3914 4.77349 11.5263 6.43821C13.1189 6.55828 14.5732 5.75026 15.771 4.3711Z" fill="black"/>
</svg>
