<svg width="152" height="143" viewBox="0 0 152 143" fill="none" xmlns="http://www.w3.org/2000/svg">
<path d="M143.307 7.36109C143.489 6.03998 141.626 4.95337 140.226 4.84108C139.565 4.78823 138.862 4.88732 138.244 4.66933C136.873 4.19043 136.325 2.42015 134.987 1.85538C133.997 1.43262 132.837 1.80914 131.866 2.29795C130.895 2.78676 129.928 3.39777 128.861 3.45722C127.919 3.51997 126.896 3.16988 126.07 3.62896C125.456 3.95924 125.135 4.67924 124.57 5.09869C123.976 5.46851 123.286 5.65675 122.586 5.64035C121.896 5.62248 121.209 5.73452 120.561 5.97062C119.937 6.25797 119.418 6.91852 119.55 7.59559L143.307 7.36109Z" fill="#EAEAEA"/>
<path d="M47.3848 8.90007C47.6689 6.83254 44.7426 5.13492 42.5628 4.95657C41.5158 4.874 40.4325 5.03253 39.4417 4.68904C37.2982 3.93931 36.4394 1.16829 34.3488 0.286453C32.7833 -0.374101 30.9833 0.213792 29.4673 0.976731C27.9513 1.73967 26.4519 2.70078 24.7542 2.79656C23.2812 2.89234 21.6827 2.34408 20.3913 3.06408C19.4302 3.60243 18.9282 4.71547 18.043 5.37602C17.1579 6.03657 16.0614 6.14887 14.9714 6.20832C13.8815 6.26777 12.7817 6.27767 11.8041 6.72685C10.8265 7.17603 10.014 8.20979 10.2188 9.26668L47.3848 8.90007Z" fill="#F5F5F5"/>
<path d="M123.246 20.6315C123.524 18.6135 120.677 16.9523 118.536 16.7805C117.516 16.6979 116.459 16.8532 115.491 16.5163C113.397 15.7864 112.558 13.0814 110.517 12.2227C108.988 11.5621 107.231 12.1533 105.748 12.8832C104.265 13.6132 102.802 14.5677 101.147 14.6733C99.7105 14.7658 98.145 14.2341 96.8867 14.9343C95.9487 15.4594 95.4566 16.5394 94.5747 17.1801C93.6929 17.8209 92.6261 17.9365 91.5758 17.9926C90.5255 18.0488 89.4389 18.0587 88.4811 18.4979C87.5233 18.9372 86.734 19.9479 86.9321 20.9783L123.246 20.6315Z" fill="#F5F5F5"/>
<path d="M119.478 141.972C112.506 138.755 109.659 130.974 108.608 123.708C108.43 122.492 108.07 121.247 108.453 120.075C108.836 118.902 110.045 117.951 111.217 118.265C112.188 118.526 112.766 119.5 113.42 120.27C114.293 121.297 115.438 122.057 116.723 122.463C117.562 122.723 118.556 122.793 119.24 122.241C120.175 121.482 120.039 120.025 119.818 118.826C119.402 116.594 118.987 114.361 118.573 112.128C118.348 110.933 118.127 109.707 118.295 108.495C118.464 107.283 119.098 106.087 120.181 105.562C121.264 105.037 122.794 105.443 123.246 106.573C123.379 107.061 123.479 107.558 123.547 108.059C123.669 108.551 123.999 109.05 124.498 109.113C124.997 109.176 125.419 108.743 125.717 108.327C126.737 106.893 127.295 105.186 127.804 103.491C128.313 101.797 128.795 100.076 129.673 98.5538C130.552 97.0312 131.922 95.7068 133.637 95.3006C135.351 94.8943 137.356 95.6309 138.092 97.236C138.829 98.8411 138.152 100.74 137.326 102.299C136.097 104.616 134.54 106.743 132.702 108.614C132.332 108.913 132.068 109.323 131.949 109.783C131.833 110.629 132.732 111.286 133.571 111.408C134.515 111.544 135.47 111.279 136.424 111.22C137.379 111.16 138.465 111.392 138.977 112.211C139.691 113.347 138.895 114.817 138.039 115.844C136.322 117.893 134.264 119.63 131.956 120.98C131.13 121.462 130.255 121.911 129.644 122.657C129.033 123.404 128.808 124.56 129.389 125.326C129.971 126.092 131.123 126.168 132.015 125.831C132.907 125.494 133.647 124.841 134.466 124.355C136.001 123.437 138.152 123.166 139.463 124.401C140.325 125.214 140.619 126.505 140.454 127.684C140.253 128.861 139.816 129.984 139.169 130.987C137.085 134.561 134.152 137.662 130.582 139.673C127.011 141.685 123.52 142.679 119.471 141.985" fill="#EAEAEA"/>
<path d="M120.531 137.11C121.025 132.961 121.755 128.844 122.718 124.778C122.969 123.694 123.215 122.627 123.458 121.574C123.705 120.524 123.946 119.48 124.247 118.476C124.829 116.548 125.517 114.654 126.308 112.802C127.051 111.028 127.817 109.374 128.547 107.831C129.277 106.289 129.994 104.859 130.697 103.597C131.802 101.585 133.066 99.6648 134.476 97.8536C134.971 97.2129 135.374 96.7307 135.648 96.4037L135.978 96.0371C136.011 95.9936 136.049 95.9538 136.091 95.9182C136.063 95.9659 136.03 96.0112 135.995 96.0536L135.698 96.4334C135.433 96.7637 135.037 97.2591 134.558 97.9098C133.176 99.7348 131.934 101.661 130.842 103.673C130.149 104.945 129.449 106.371 128.722 107.914C127.996 109.456 127.239 111.114 126.503 112.885C125.723 114.731 125.042 116.619 124.465 118.539C124.168 119.53 123.926 120.573 123.682 121.627C123.438 122.681 123.193 123.747 122.946 124.827C121.982 128.885 121.246 132.993 120.743 137.133" fill="#E0E0E0"/>
<path d="M124.31 118.456C124.223 118.3 124.154 118.135 124.102 117.964C123.979 117.634 123.817 117.178 123.626 116.593C123.239 115.431 122.767 113.806 122.249 112.012C121.73 110.219 121.235 108.604 120.835 107.451C120.637 106.873 120.468 106.408 120.353 106.087C120.281 105.924 120.226 105.754 120.191 105.579C120.289 105.728 120.369 105.887 120.432 106.054C120.574 106.365 120.762 106.824 120.984 107.395C121.423 108.541 121.945 110.153 122.463 111.95C122.982 113.746 123.428 115.322 123.784 116.547L124.194 117.938C124.251 118.106 124.29 118.28 124.31 118.456V118.456Z" fill="#E0E0E0"/>
<path d="M139.208 112.808C139.014 112.886 138.813 112.947 138.607 112.99C138.218 113.099 137.653 113.248 136.956 113.456C135.572 113.862 133.68 114.489 131.622 115.276C129.564 116.062 127.731 116.854 126.423 117.465C125.763 117.766 125.241 118.023 124.878 118.198C124.694 118.301 124.502 118.388 124.303 118.456C124.471 118.33 124.65 118.22 124.838 118.126C125.191 117.924 125.707 117.644 126.354 117.323C127.649 116.663 129.478 115.857 131.539 115.064C133.299 114.386 135.093 113.8 136.913 113.307C137.613 113.116 138.185 112.977 138.581 112.907C138.786 112.854 138.996 112.821 139.208 112.808V112.808Z" fill="#E0E0E0"/>
<path d="M120.67 136.793C120.617 136.743 120.57 136.687 120.531 136.625L120.165 136.113C119.851 135.667 119.415 135.013 118.883 134.197C117.823 132.546 116.429 130.264 114.92 127.704C113.411 125.144 112.05 122.829 111.026 121.178L109.804 119.226C109.672 119.011 109.563 118.836 109.474 118.691C109.429 118.632 109.395 118.566 109.371 118.496C109.425 118.546 109.471 118.602 109.51 118.664L109.873 119.176C110.204 119.619 110.623 120.276 111.155 121.092C112.215 122.723 113.609 125.025 115.118 127.588C116.627 130.151 117.991 132.457 119.019 134.111L120.237 136.063L120.568 136.598C120.611 136.658 120.645 136.724 120.67 136.793Z" fill="#E0E0E0"/>
<path d="M139.971 126.512C139.914 126.56 139.851 126.601 139.783 126.634L139.222 126.938L137.157 128.044C135.413 128.976 133.019 130.293 130.373 131.753C127.728 133.213 125.32 134.508 123.557 135.403C122.675 135.852 121.955 136.209 121.456 136.443L120.878 136.714C120.813 136.75 120.743 136.777 120.67 136.793C120.726 136.744 120.79 136.702 120.858 136.671L121.416 136.367L123.484 135.261C125.228 134.329 127.622 133.012 130.268 131.552C132.913 130.092 135.318 128.797 137.081 127.919C137.967 127.47 138.683 127.113 139.182 126.878L139.76 126.608C139.826 126.567 139.897 126.535 139.971 126.512V126.512Z" fill="#E0E0E0"/>
<path d="M150.25 59.0756L143.912 53.8672L143.875 56.6844L126.195 56.4632L126.136 61.0903L143.819 61.3083L143.786 64.0232L150.25 59.0756Z" fill="#EAEAEA"/>
<path d="M140.827 66.563L136.735 63.2041L136.711 65.0206L125.297 64.8786L125.261 67.8643L136.675 68.0063L136.652 69.7601L140.827 66.563Z" fill="#EAEAEA"/>
<path d="M6.36442 24.6114C6.36442 24.6114 2.67853 25.7575 6.15965 33.6709C9.64077 41.5843 12.1377 45.5609 12.1377 45.5609C12.1377 45.5609 12.7289 47.384 11.2129 47.5756C9.69692 47.7671 6.41727 47.0504 5.64112 48.8471C4.83854 50.6868 6.12002 52.5759 8.83489 54.3198C11.5498 56.0637 17.3659 60.0831 17.8878 60.4497C18.4096 60.8164 18.8786 61.6685 17.8878 61.9657C16.8969 62.263 9.38976 62.6098 9.76958 66.1503C10.1494 69.6909 18.512 73.2942 19.417 73.7038C20.3219 74.1133 20.5234 74.5228 20.4078 75.0249C20.2922 75.5269 17.7656 75.408 15.6518 75.5929C13.538 75.7779 11.094 76.3691 11.4837 78.3937C11.8734 80.4183 16.6922 84.9035 28.9124 86.8158L34.6361 87.3475L38.0347 82.6708C44.6963 72.2505 44.5312 65.6681 43.2696 64.0366C42.0079 62.405 39.9668 63.8351 38.4145 65.3048C36.8622 66.7745 35.2835 68.743 34.8343 68.4887C34.3851 68.2344 34.2167 67.8281 34.504 66.8637C34.7913 65.8993 37.6416 57.2593 35.2372 54.6435C32.8328 52.0277 27.6177 57.3914 26.7227 57.9462C25.8276 58.5011 25.5073 57.5763 25.5799 56.9554C25.6526 56.3345 26.4849 49.2963 26.9803 46.1091C27.4757 42.922 26.9209 40.719 24.9986 40.0849C23.1392 39.4739 21.5043 42.3968 20.3549 43.4141C19.2056 44.4313 18.2181 42.7601 18.2181 42.7601C18.2181 42.7601 16.897 38.265 13.2804 30.4177C9.66389 22.5703 6.28516 24.6378 6.28516 24.6378" fill="#EAEAEA"/>
<path d="M34.8541 88.6983C32.2119 82.925 27.7003 72.5841 23.7766 63.726C19.8529 54.868 16.2958 46.8588 13.6867 41.0723L10.592 34.2224L9.75306 32.3596C9.66059 32.1483 9.58793 31.9897 9.53838 31.8708C9.48884 31.7519 9.46902 31.7024 9.46902 31.7024C9.46902 31.7024 9.50205 31.7585 9.5549 31.8642C9.60774 31.9699 9.6837 32.1384 9.78279 32.3431C9.98756 32.7725 10.2782 33.3934 10.6547 34.1927C11.4111 35.7978 12.4845 38.1329 13.8023 41.0195C16.4445 46.7927 20.0181 54.7987 23.9385 63.6534C27.8588 72.5081 32.3605 82.859 34.9697 88.6454" fill="#E0E0E0"/>
<path d="M10.1857 50.0259C10.3209 50.0579 10.4526 50.1033 10.5788 50.1613C10.8298 50.2571 11.1832 50.4057 11.6224 50.5973C12.4977 50.9771 13.6933 51.5319 15.0012 52.1661L18.3469 53.8175L19.3641 54.3096C19.4928 54.3615 19.6157 54.4268 19.7307 54.5044C19.5943 54.4745 19.4615 54.4302 19.3344 54.3723C19.0867 54.2765 18.73 54.1246 18.294 53.9331C17.4221 53.5268 16.2364 52.9587 14.9153 52.3378L11.5597 50.7195L10.5424 50.234C10.4156 50.1791 10.2959 50.1093 10.1857 50.0259Z" fill="#E0E0E0"/>
<path d="M20.1435 54.1448C20.0973 54.125 21.1344 51.6083 22.4555 48.5301C23.7766 45.4519 24.8863 42.9583 24.9326 42.9781C24.9788 42.998 23.9417 45.5147 22.6206 48.5929C21.2995 51.671 20.1997 54.1646 20.1435 54.1448Z" fill="#E0E0E0"/>
<path d="M25.5535 68.0161C25.6237 67.8964 25.7079 67.7855 25.8045 67.6858L26.5377 66.7941C27.1553 66.0443 28.0042 65.0007 28.8959 63.8216C29.7876 62.6425 30.5671 61.5394 31.122 60.7401L31.7825 59.7922C31.8567 59.6735 31.9431 59.5628 32.0401 59.4619C31.9857 59.5938 31.9182 59.72 31.8387 59.8384C31.6999 60.0729 31.5084 60.4065 31.2277 60.8293C30.7025 61.6483 29.9396 62.7614 29.0412 63.9471C28.1429 65.1328 27.2808 66.1665 26.6368 66.8997C26.3065 67.2664 26.0489 67.5603 25.8607 67.7552C25.7664 67.8513 25.6636 67.9386 25.5535 68.0161V68.0161Z" fill="#E0E0E0"/>
<path d="M15.7278 66.2692C15.8584 66.2614 15.9895 66.2714 16.1175 66.2989L17.1744 66.4442C18.0628 66.573 19.2914 66.7745 20.6456 66.9892C21.9997 67.2038 23.225 67.4218 24.1102 67.5837L25.1572 67.7851C25.2871 67.8035 25.4146 67.8368 25.537 67.8842C25.4088 67.8893 25.2805 67.8815 25.1539 67.8611L24.1003 67.7158C23.2085 67.587 21.9799 67.3855 20.6258 67.1708C19.2716 66.9561 18.0463 66.7348 17.1612 66.573L16.1175 66.3715C15.984 66.3529 15.8532 66.3185 15.7278 66.2692Z" fill="#E0E0E0"/>
<path d="M18.948 79.1201C19.1152 79.1202 19.282 79.1345 19.4467 79.1631L20.8009 79.3447C21.9436 79.5065 23.519 79.7377 25.2563 80.0053C26.9935 80.2728 28.5591 80.5271 29.7051 80.7187L31.0493 80.9565C31.2157 80.9769 31.3795 81.0145 31.5382 81.0687C31.371 81.0687 31.2041 81.0543 31.0394 81.0258L29.6853 80.8442C28.5425 80.6856 26.9671 80.4511 25.2299 80.1836C23.4926 79.9161 21.9271 79.6618 20.781 79.4702L19.4368 79.2324C19.2704 79.212 19.1066 79.1744 18.948 79.1201V79.1201Z" fill="#E0E0E0"/>
<path d="M31.2508 80.94C31.3416 80.7849 31.4454 80.638 31.5613 80.5007L32.4497 79.3381C33.1961 78.3473 34.2266 76.9964 35.3198 75.464C36.413 73.9315 37.3708 72.5212 38.0545 71.5006L38.8637 70.2819C38.9633 70.129 39.0737 69.9833 39.1939 69.8459C39.1211 70.0112 39.035 70.1703 38.9363 70.3215C38.7613 70.6188 38.5037 71.0449 38.1734 71.5667C37.5128 72.6137 36.5749 74.0405 35.4783 75.5762C34.3818 77.112 33.3348 78.4596 32.562 79.424C32.1723 79.9029 31.8552 80.2893 31.6273 80.5502C31.5138 80.6912 31.3878 80.8217 31.2508 80.94V80.94Z" fill="#E0E0E0"/>
<path d="M116.799 128.302C117.13 128.447 117.428 128.658 117.675 128.921C117.923 129.184 118.115 129.495 118.239 129.834C118.485 130.517 118.572 131.247 118.493 131.968C118.378 133.358 117.635 134.785 116.819 135.931C115.62 134.94 115.296 133.18 115.187 132.272C115.016 130.835 115.58 128.137 116.799 128.308" fill="#FCC62D"/>
<path d="M118.249 138.15C118.155 137.758 118.166 137.347 118.282 136.96C118.398 136.573 118.615 136.224 118.91 135.947C119.21 135.678 119.562 135.47 119.943 135.337C120.325 135.205 120.729 135.149 121.132 135.175C121.317 135.168 121.502 135.201 121.673 135.272C121.844 135.344 121.998 135.451 122.123 135.587C122.217 135.734 122.271 135.903 122.279 136.077C122.287 136.251 122.249 136.424 122.169 136.578C122.001 136.885 121.755 137.142 121.456 137.325C120.465 137.985 119.382 138.454 118.226 138.147" fill="#FCC62D"/>
<path d="M116.882 142.448C116.885 142.352 116.896 142.257 116.915 142.163C116.944 141.962 116.984 141.701 117.034 141.387C117.137 140.526 117.379 139.687 117.75 138.904C118.138 138.119 118.727 137.452 119.458 136.972C119.681 136.834 119.919 136.723 120.168 136.641C120.236 136.617 120.306 136.598 120.376 136.582C120.422 136.582 120.449 136.565 120.449 136.582C120.117 136.707 119.798 136.865 119.498 137.054C118.793 137.543 118.225 138.204 117.846 138.973C117.48 139.749 117.23 140.575 117.106 141.424C117.047 141.754 116.997 142.012 116.958 142.193C116.94 142.28 116.915 142.365 116.882 142.448V142.448Z" fill="#263238"/>
<path d="M116.551 130.376C116.556 130.418 116.556 130.46 116.551 130.501C116.551 130.594 116.571 130.713 116.584 130.858C116.611 131.169 116.644 131.618 116.68 132.179C116.75 133.289 116.826 134.822 116.872 136.522C116.918 138.223 116.921 139.756 116.911 140.869C116.911 141.424 116.911 141.876 116.888 142.19C116.888 142.335 116.888 142.454 116.888 142.547C116.893 142.588 116.893 142.63 116.888 142.672C116.888 142.672 116.888 142.629 116.888 142.547C116.888 142.464 116.888 142.335 116.888 142.19C116.888 141.86 116.888 141.417 116.888 140.869C116.888 139.756 116.865 138.227 116.819 136.526C116.773 134.825 116.71 133.292 116.657 132.183C116.631 131.638 116.611 131.192 116.594 130.861C116.594 130.713 116.594 130.594 116.594 130.501C116.576 130.461 116.562 130.419 116.551 130.376V130.376Z" fill="#263238"/>
<path d="M116.254 139.056C116.087 138.219 115.723 137.435 115.192 136.768C114.661 136.1 113.979 135.569 113.202 135.218C112.806 135.043 112.294 134.937 111.98 135.238C111.667 135.538 111.756 136.057 111.928 136.456C112.295 137.282 112.899 137.98 113.664 138.463C114.428 138.946 115.317 139.193 116.221 139.171" fill="#FCC62D"/>
<path d="M113.434 136.529C113.52 136.554 113.604 136.588 113.685 136.628C113.782 136.67 113.877 136.718 113.969 136.77C114.093 136.834 114.214 136.905 114.332 136.982C114.461 137.067 114.606 137.16 114.748 137.275C114.89 137.391 115.042 137.517 115.197 137.655C115.521 137.968 115.808 138.315 116.053 138.692C116.293 139.071 116.488 139.477 116.634 139.901C116.697 140.087 116.749 140.277 116.789 140.469C116.828 140.635 116.857 140.802 116.875 140.971C116.893 141.112 116.904 141.253 116.908 141.394C116.917 141.504 116.917 141.614 116.908 141.724C116.91 141.814 116.904 141.904 116.888 141.992C116.865 141.992 116.888 141.605 116.806 141.001C116.779 140.849 116.756 140.671 116.71 140.509C116.664 140.347 116.611 140.146 116.548 139.954C116.399 139.537 116.204 139.139 115.967 138.765C115.725 138.396 115.445 138.054 115.131 137.744C114.994 137.609 114.849 137.481 114.699 137.361C114.56 137.242 114.418 137.15 114.292 137.061C113.78 136.697 113.424 136.559 113.434 136.529Z" fill="#263238"/>
<path d="M17.7061 134.247C18.01 133.064 17.2338 131.879 16.385 131.02C15.5362 130.161 14.476 129.395 14.0268 128.262C13.2936 126.426 14.2778 124.051 13.036 122.519C12.2731 121.63 10.952 121.33 10.3079 120.375C10.0068 119.843 9.80747 119.259 9.72002 118.654C9.0265 115.603 7.52527 112.795 5.37358 110.523C5.22889 113.241 5.81871 115.949 7.08111 118.36C7.58643 119.325 8.20735 120.263 8.37579 121.333C8.64662 123.08 7.6723 124.877 8.10166 126.591C8.59047 128.553 10.7934 129.864 10.8991 131.875C10.985 133.58 9.49873 135.079 9.61103 136.783C9.70017 137.507 9.95934 138.2 10.3674 138.805C11.6885 140.998 13.6239 142.507 16.5634 142.457L20.1601 142.583L17.7061 134.247Z" fill="#FCC62D"/>
<g opacity="0.3">
<path d="M17.7061 134.247C18.01 133.064 17.2338 131.879 16.385 131.02C15.5362 130.161 14.476 129.395 14.0268 128.262C13.2936 126.426 14.2778 124.051 13.036 122.519C12.2731 121.63 10.952 121.33 10.3079 120.375C10.0068 119.843 9.80747 119.259 9.72002 118.654C9.0265 115.603 7.52527 112.795 5.37358 110.523C5.22889 113.241 5.81871 115.949 7.08111 118.36C7.58643 119.325 8.20735 120.263 8.37579 121.333C8.64662 123.08 7.6723 124.877 8.10166 126.591C8.59047 128.553 10.7934 129.864 10.8991 131.875C10.985 133.58 9.49873 135.079 9.61103 136.783C9.70017 137.507 9.95934 138.2 10.3674 138.805C11.6885 140.998 13.6239 142.507 16.5634 142.457L20.1601 142.583L17.7061 134.247Z" fill="black"/>
</g>
<path d="M20.8867 142.679C21.2157 142.729 21.5508 142.722 21.8775 142.659C22.276 142.598 22.6676 142.499 23.0467 142.362C23.5696 142.181 24.0586 141.914 24.4933 141.572C24.7554 141.363 24.96 141.09 25.0878 140.78C25.1956 140.432 25.2523 140.07 25.2563 139.706C25.2626 139.317 25.2913 138.929 25.3421 138.544C25.4105 138.133 25.5598 137.74 25.7814 137.388C26.2042 136.641 26.9076 135.934 27.1355 134.924C27.3634 133.913 27.2049 132.853 27.0364 131.773C26.868 130.693 26.7062 129.517 27.1223 128.391C27.5385 127.265 28.2981 126.251 28.6911 124.982C29.0842 123.714 28.8992 122.324 28.9851 120.966C29.0096 120.276 29.1678 119.598 29.4508 118.968C29.7447 118.334 30.1477 117.733 30.4614 117.062C31.1022 115.708 31.2144 114.173 31.3895 112.666C31.4732 111.907 31.559 111.136 31.6471 110.355C31.7001 109.572 31.834 108.797 32.0467 108.043C32.2894 107.284 32.5761 106.541 32.9055 105.817C33.0768 105.441 33.217 105.052 33.3249 104.654C33.3844 104.244 33.423 103.832 33.4405 103.419C33.4795 102.587 33.4474 101.754 33.3447 100.928C33.2457 100.099 33.097 99.277 33.0145 98.4447C33.0145 98.3952 33.0145 98.3457 33.0145 98.2994L32.9946 98.1343L32.8493 98.2069C32.0859 98.5955 31.4225 99.155 30.9106 99.8418C30.4125 100.513 30.0122 101.251 29.7216 102.035C29.1205 103.581 28.9058 105.199 28.602 106.745C28.2981 108.29 27.9183 109.81 27.1256 111.094C26.7293 111.735 26.2537 112.32 25.8342 112.947C25.3893 113.555 25.0848 114.255 24.9425 114.995C24.7311 116.517 25.57 117.855 25.395 119.199C25.3104 119.862 25.0852 120.5 24.7344 121.069C24.4041 121.643 24.0243 122.175 23.661 122.72C23.2901 123.241 22.9662 123.793 22.6933 124.371C22.4402 124.941 22.2914 125.552 22.254 126.175C22.1649 127.387 22.3366 128.536 22.254 129.623C22.1473 130.665 21.8353 131.675 21.3359 132.595C20.9032 133.481 20.4177 134.283 20.0148 135.059C19.8133 135.446 19.625 135.825 19.4698 136.205C19.3193 136.571 19.2085 136.952 19.1395 137.341C19.0307 138.021 19.0218 138.713 19.1131 139.396C19.2067 140.346 19.5623 141.252 20.1403 142.012C20.2275 142.13 20.3248 142.24 20.4309 142.342C20.5027 142.416 20.5824 142.483 20.6687 142.54C20.8008 142.639 20.8735 142.685 20.8735 142.685C20.6243 142.478 20.3984 142.244 20.1997 141.988C19.6381 141.229 19.2954 140.33 19.2089 139.389C19.1264 138.716 19.142 138.034 19.2551 137.365C19.3248 136.984 19.4356 136.612 19.5854 136.255C19.7373 135.885 19.9157 135.508 20.1337 135.125C20.5432 134.356 21.032 133.56 21.4746 132.668C21.9758 131.735 22.2889 130.713 22.3961 129.659C22.4885 128.549 22.3234 127.397 22.4126 126.211C22.4517 125.609 22.597 125.019 22.8419 124.467C23.1087 123.897 23.4283 123.353 23.7964 122.842C24.1597 122.311 24.5462 121.775 24.883 121.191C25.248 120.6 25.4823 119.938 25.57 119.249C25.7418 117.812 24.9095 116.468 25.1274 115.054C25.266 114.345 25.5605 113.675 25.9895 113.093C26.399 112.478 26.8812 111.894 27.2842 111.236C28.1032 109.915 28.4996 108.366 28.7968 106.814C29.0941 105.262 29.3187 103.657 29.9099 102.144C30.1924 101.381 30.5828 100.662 31.0691 100.01C31.5576 99.3502 32.1931 98.8131 32.9253 98.4414L32.7568 98.349C32.7568 98.3952 32.7568 98.4447 32.7568 98.4943C32.8493 99.3365 32.9979 100.162 33.0871 100.981C33.1897 101.795 33.2217 102.616 33.1829 103.435C33.1671 103.836 33.1308 104.237 33.0739 104.634C32.9686 105.017 32.8339 105.391 32.671 105.754C32.3365 106.486 32.0464 107.239 31.8023 108.006C31.5869 108.77 31.4507 109.553 31.3961 110.345C31.3102 111.117 31.2277 111.887 31.1418 112.657C30.97 114.169 30.8578 115.679 30.2434 116.99C29.9396 117.65 29.5366 118.242 29.2526 118.899C28.9609 119.552 28.7972 120.255 28.7704 120.97C28.6911 122.357 28.8728 123.714 28.4963 124.933C28.1198 126.152 27.3403 127.176 26.944 128.338C26.5476 129.501 26.6963 130.726 26.868 131.799C27.0398 132.873 27.2148 133.936 26.9836 134.894C26.7524 135.852 26.0919 136.545 25.6625 137.325C25.4374 137.697 25.2871 138.11 25.2199 138.54C25.1728 138.932 25.1474 139.325 25.144 139.719C25.1437 140.073 25.0914 140.425 24.9887 140.763C24.867 141.055 24.6753 141.312 24.4306 141.513C24.0088 141.854 23.5334 142.123 23.0236 142.309C22.6497 142.448 22.2639 142.553 21.8709 142.623C21.6287 142.665 21.3836 142.688 21.1377 142.692C20.9726 142.675 20.8867 142.679 20.8867 142.679Z" fill="#263238"/>
<path d="M32.2515 100.304C32.2372 100.339 32.2261 100.376 32.2185 100.413C32.1954 100.499 32.1689 100.605 32.1392 100.743C32.0665 101.028 31.984 101.454 31.8486 101.989C31.7131 102.524 31.3796 103.125 31.1021 103.868C30.8247 104.611 30.5175 105.46 30.2467 106.418C29.9759 107.375 29.7282 108.442 29.4739 109.585C29.2567 110.804 28.8686 111.986 28.3212 113.096C28.0273 113.68 27.697 114.272 27.4328 114.919C27.174 115.583 26.9997 116.276 26.9142 116.983C26.736 118.445 26.4791 119.896 26.1447 121.33L24.1135 129.639C23.4727 132.189 22.8948 134.485 22.4059 136.42C21.9171 138.355 21.5505 139.894 21.2764 140.994C21.1509 141.519 21.0551 141.939 20.9825 142.239C20.9527 142.372 20.9296 142.481 20.9098 142.57C20.9061 142.607 20.9061 142.645 20.9098 142.682C20.9265 142.648 20.9398 142.613 20.9494 142.576C20.9758 142.49 21.0056 142.385 21.0419 142.246C21.1245 141.945 21.2368 141.533 21.3722 141.011C21.6595 139.914 22.0691 138.369 22.5711 136.453C23.0731 134.537 23.6676 132.229 24.3249 129.686C24.9821 127.142 25.646 124.322 26.3792 121.373C26.7087 119.933 26.9612 118.476 27.1355 117.01C27.2156 116.32 27.3832 115.643 27.6342 114.995C27.8885 114.364 28.2155 113.776 28.5095 113.185C29.1436 112.013 29.4045 110.754 29.6588 109.618C29.9131 108.482 30.1377 107.412 30.3986 106.454C30.6596 105.496 30.9403 104.644 31.2177 103.908C31.4952 103.171 31.799 102.557 31.9311 102.005C32.0632 101.454 32.1227 101.034 32.1821 100.747C32.2053 100.611 32.2218 100.506 32.2383 100.416C32.2471 100.38 32.2515 100.342 32.2515 100.304V100.304Z" fill="#263238"/>
<path d="M21.5208 142.689C23.8724 141.295 24.5462 137.054 23.5653 134.504C22.5843 131.955 20.8702 129.62 20.5928 126.908C20.388 124.814 21.075 122.671 20.5928 120.633C19.9322 117.875 17.2438 115.738 17.29 112.901C17.3098 111.312 18.2148 109.813 18.1421 108.224C18.0529 106.276 16.5568 104.73 15.6287 103.013C14.2118 100.37 14.1193 97.2756 13.647 94.3296C13.1747 91.3835 12.0386 88.2227 9.4261 86.7761C9.03968 89.2763 8.38243 90.9905 8.5872 94.3725C8.66316 95.5879 10.0767 97.9197 10.2683 100.588C10.3839 102.184 10.4632 103.779 10.5623 105.374C10.6613 106.969 10.7571 108.508 11.3153 109.962C11.7413 111.075 12.425 112.089 12.7421 113.238C13.3399 115.398 12.5538 117.743 13.036 119.933C13.4456 121.789 14.7303 123.387 14.9913 125.27C15.3612 127.912 13.647 130.66 14.5256 133.197C14.9582 134.448 15.9887 135.452 16.2826 136.747C16.5072 137.738 16.2595 138.811 16.4676 139.819C16.7979 141.44 19.8926 142.702 21.5473 142.6" fill="#FCC62D"/>
<path d="M10.0503 89.2466C10.0459 89.2938 10.0459 89.3414 10.0503 89.3886C10.0503 89.4943 10.0833 89.6297 10.1032 89.7981C10.1593 90.1615 10.2188 90.6899 10.341 91.3769C10.4632 92.0638 10.8265 92.8433 11.1105 93.7813C11.3945 94.7193 11.7083 95.7927 11.9725 96.9982C12.2367 98.2037 12.4646 99.538 12.7024 100.962C12.9402 102.385 13.1945 103.96 13.9046 105.457C14.2349 106.206 14.6048 106.959 14.8955 107.769C15.1664 108.591 15.3328 109.444 15.3909 110.308C15.5221 112.144 15.7525 113.971 16.0812 115.781C16.7979 119.487 17.4848 123.021 18.1091 126.234L19.8694 134.752C20.3748 137.163 20.7843 139.118 21.0683 140.489C21.2137 141.15 21.326 141.675 21.3986 142.045C21.4383 142.213 21.468 142.345 21.4944 142.448C21.5208 142.55 21.5274 142.586 21.534 142.583C21.5322 142.536 21.5266 142.49 21.5175 142.444C21.4977 142.339 21.4746 142.203 21.4449 142.035C21.3755 141.662 21.2764 141.136 21.1509 140.469C20.8801 139.095 20.4904 137.137 20.0247 134.719C19.559 132.301 18.9645 129.402 18.3237 126.195C17.683 122.988 17.0158 119.45 16.3058 115.751C15.9773 113.946 15.7458 112.125 15.6122 110.295C15.5502 109.414 15.3782 108.544 15.1002 107.706C14.8129 106.89 14.4397 106.134 14.1094 105.394C13.4026 103.921 13.1516 102.382 12.9006 100.952C12.6496 99.5215 12.4217 98.1806 12.141 96.9718C11.8962 95.8839 11.5963 94.8091 11.2426 93.7516C10.9454 92.8103 10.5821 92.0407 10.4367 91.367C10.2914 90.6932 10.2287 90.1581 10.1593 89.8014C10.1296 89.633 10.1032 89.4976 10.0833 89.3952C10.0786 89.3445 10.0675 89.2945 10.0503 89.2466V89.2466Z" fill="#263238"/>
<path d="M82.9523 142.58H36.9877C31.4324 142.557 26.7491 137.82 26.7491 132.265L27.2379 16.4998C27.2435 15.1758 27.5104 13.866 28.0233 12.6455C28.5361 11.4249 29.2848 10.3175 30.2265 9.38691C31.1682 8.45628 32.2843 7.72068 33.5108 7.22227C34.7374 6.72386 36.0502 6.47246 37.3741 6.48247L83.5501 6.69715C84.8707 6.70277 86.1772 6.9685 87.395 7.47915C88.6128 7.98981 89.7181 8.73538 90.6477 9.67328C91.5774 10.6112 92.3131 11.7231 92.8129 12.9454C93.3128 14.1677 93.5669 15.4765 93.5608 16.797L93.072 132.566C93.0664 133.888 92.8 135.196 92.2882 136.416C91.7763 137.635 91.029 138.741 90.0891 139.671C89.1491 140.602 88.0349 141.337 86.8103 141.836C85.5857 142.335 84.2747 142.588 82.9523 142.58V142.58Z" fill="#263238"/>
<path d="M83.57 11.0964L74.6162 11.0535C74.0269 11.0648 73.4662 11.3093 73.0569 11.7334C72.6477 12.1575 72.4233 12.7266 72.433 13.3159V14.9408C72.4428 15.5301 72.2184 16.0992 71.8091 16.5233C71.3999 16.9474 70.8392 17.192 70.2499 17.2032L52.7981 17.124C52.5061 17.1163 52.2186 17.0511 51.9519 16.9322C51.6851 16.8134 51.4444 16.6431 51.2435 16.4311C51.0426 16.2192 50.8854 15.9697 50.781 15.697C50.6765 15.4243 50.6268 15.1337 50.6348 14.8418V13.2168C50.6498 12.6269 50.4301 12.0552 50.0238 11.6272C49.6176 11.1993 49.058 10.9502 48.4681 10.9346H45.3206L37.4831 10.8983C36.558 10.8943 35.6411 11.0727 34.7849 11.4231C33.9287 11.7735 33.1499 12.2892 32.493 12.9406C31.836 13.592 31.3139 14.3664 30.9562 15.2197C30.5986 16.0729 30.4125 16.9882 30.4086 17.9133L29.9297 130.911C29.9254 131.836 30.1033 132.753 30.4534 133.609C30.8034 134.465 31.3188 135.244 31.9699 135.901C32.6211 136.558 33.3953 137.08 34.2483 137.438C35.1013 137.795 36.0165 137.982 36.9415 137.985L83.025 138.197C83.9505 138.202 84.8679 138.024 85.7247 137.674C86.5815 137.324 87.3609 136.808 88.0183 136.157C88.6756 135.505 89.1981 134.73 89.5558 133.877C89.9135 133.023 90.0994 132.107 90.1028 131.182L90.5817 18.171C90.5896 16.3031 89.8554 14.5086 88.5406 13.182C87.2257 11.8553 85.4378 11.1052 83.57 11.0964V11.0964Z" fill="#F5F5F5"/>
<path d="M64.0109 116.828C63.9581 118.192 63.9086 119.47 63.8656 120.537H70.4712L69.662 116.471L64.0109 116.828Z" fill="#F5F5F5"/>
<path d="M37.1066 118.529L37.1627 120.537H63.2051C63.248 119.411 63.2976 118.159 63.3471 116.871L37.1066 118.529Z" fill="#F5F5F5"/>
<path d="M70.0088 116.448L70.8213 120.537H83.0283L82.8797 115.635L70.0088 116.448Z" fill="#F5F5F5"/>
<path d="M64.6715 59.3136L66.9801 45.934L60.9361 45.4849V59.3136H64.6715Z" fill="#F5F5F5"/>
<path d="M36.5617 111.101L30.0024 113.671L29.9825 118.318L36.7565 117.892L36.5617 111.101Z" fill="#F5F5F5"/>
<path d="M36.5319 110.057L36.1719 97.596H36.1686V93.2034L30.0849 93.8474L30.0056 112.607L36.5286 110.051L36.5319 110.057Z" fill="#F5F5F5"/>
<path d="M36.1686 83.3907L30.1345 82.5947L30.0915 92.8498L36.1686 92.2058V83.3907Z" fill="#F5F5F5"/>
<path d="M81.149 93.3882L80.8947 96.9585L73.7673 97.728L74.3189 100.552L82.4074 99.9409L82.2885 95.8917L82.9325 93.2065L81.149 93.3882Z" fill="#F5F5F5"/>
<path d="M68.3012 101.005L73.9853 100.579L72.7468 94.2339L67.786 94.7359L68.3012 101.005Z" fill="#F5F5F5"/>
<path d="M68.3574 101.665L68.7901 106.953L69.5629 114.209L69.8767 115.794L82.8598 114.975L82.4272 100.605L68.3574 101.665Z" fill="#F5F5F5"/>
<path d="M46.0109 76.6927L46.5096 77.5514L36.4989 83.3841V97.2557L47.0677 96.5093L67.4293 94.4384L66.6862 85.3657L47.2296 82.8226L47.3584 81.8318L66.6036 84.3452L65.342 68.9774L46.2916 70.8137L46.2288 70.1532L65.2858 68.3201L64.6253 60.301H46.2916L30.217 63.2372L30.1378 81.5973L36.2314 82.3932L46.0109 76.6927ZM37.5227 95.9346C37.5227 95.9346 37.5987 84.5103 37.5227 84.0843L45.6938 79.7378L46.754 95.35L37.5227 95.9346Z" fill="#F5F5F5"/>
<path d="M80.4785 93.4541L73.077 94.2005L73.6385 97.0772L80.2738 96.3605L80.4785 93.4541Z" fill="#F5F5F5"/>
<path d="M64.1034 114.381C64.0803 114.982 64.0572 115.58 64.0374 116.164L69.5464 115.817L69.2624 114.394L64.1034 114.381Z" fill="#F5F5F5"/>
<path d="M52.2366 59.3137L53.2076 54.9145H60.6058V45.4619L37.4765 43.7478V52.6223L30.2534 54.2572L30.2203 62.2268L46.2156 59.3137H52.2366Z" fill="#F5F5F5"/>
<path d="M67.6704 33.0138L67.4723 32.2046L76.3038 28.7103L70.5603 17.177C70.4511 17.1947 70.3407 17.2036 70.2301 17.2035L60.4935 17.1572L60.7577 33.2979L67.6704 33.0138Z" fill="#F5F5F5"/>
<path d="M81.0533 26.8308V11.0832L74.6162 11.0535C74.0269 11.0648 73.4662 11.3093 73.0569 11.7334C72.6477 12.1575 72.4233 12.7266 72.4331 13.3159V14.9408C72.4328 15.3037 72.3472 15.6613 72.1831 15.985C72.019 16.3086 71.781 16.589 71.4885 16.8036L77.2353 28.3435L81.0533 26.8308Z" fill="#F5F5F5"/>
<path d="M47.8538 27.5046L47.1074 10.928H45.3206L38.3352 10.895L35.3627 25.7211L47.8538 27.5046ZM46.2619 12.6059L46.4997 26.1076L37.2156 24.7501L39.2468 12.6059H46.2619Z" fill="#F5F5F5"/>
<path d="M48.1907 27.5673V27.7093C48.1907 29.0007 48.2303 31.3424 48.2501 33.8195L60.4142 33.324L60.1632 17.157L52.8014 17.124C52.5094 17.1163 52.2219 17.0511 51.9551 16.9322C51.6884 16.8133 51.4477 16.6431 51.2468 16.4311C51.0459 16.2192 50.8887 15.9697 50.7843 15.697C50.6798 15.4243 50.6301 15.1337 50.6381 14.8417V13.2168C50.6531 12.6269 50.4334 12.0552 50.0271 11.6272C49.6209 11.1993 49.0613 10.9501 48.4714 10.9346H47.4443L48.1874 27.5673H48.1907Z" fill="#F5F5F5"/>
<path d="M34.3785 25.5857L37.3246 10.9082C35.4847 10.9393 33.7301 11.6901 32.4373 12.9996C31.1444 14.3092 30.4161 16.0732 30.4086 17.9134L30.3756 25.2323L30.4086 25.0176L34.3785 25.5857Z" fill="#F5F5F5"/>
<path d="M36.4857 43.6749L30.2996 43.2158L30.2567 53.2397L36.4857 51.8327V43.6749Z" fill="#F5F5F5"/>
<path d="M34.3125 25.8961L30.3756 25.3313L30.3062 41.5611L31.155 41.6239L34.3125 25.8961Z" fill="#F5F5F5"/>
<path d="M46.8069 109.869L46.9126 96.8362L36.5022 97.5727L36.8721 110.338L46.8069 109.869Z" fill="#F5F5F5"/>
<path d="M48.7224 106.86L63.466 113.922C63.6443 109.298 63.7963 105.004 63.7963 104.717H64.1265L64.2851 104.406C64.4931 104.512 64.4931 104.512 64.3842 107.656C64.3214 109.41 64.2355 111.745 64.1464 114.083H69.2128L68.4631 107.002L67.4722 94.782L48.2138 96.724L48.7224 106.86Z" fill="#F5F5F5"/>
<path d="M84.8514 85.2338L84.683 83.5164L67.0165 85.3527L67.7596 94.4056L83.0151 92.8665L84.8514 85.2338Z" fill="#F5F5F5"/>
<path d="M60.6058 55.905H54.0036L53.2505 59.3135H60.6058V55.905Z" fill="#F5F5F5"/>
<path d="M82.1233 57.0544L65.593 55.9116L64.9324 59.8155L65.6293 68.2904L83.0613 66.6159L82.1233 57.0544ZM66.2007 59.8089L67.0891 57.345L81.4463 58.2533L82.2918 65.3014L66.7027 67.1509L66.2007 59.8089Z" fill="#F5F5F5"/>
<path d="M83.8375 74.7674L83.1109 67.2734L65.6689 68.9512L66.3262 76.9274L83.8375 74.7674Z" fill="#F5F5F5"/>
<path d="M36.7763 118.552L30.009 118.978L29.9825 118.539L29.9726 120.537H36.8325L36.7763 118.552Z" fill="#F5F5F5"/>
<path d="M90.4595 23.1086L90.5586 23.3596L90.5817 18.171C90.5896 16.3031 89.8554 14.5086 88.5405 13.182C87.2257 11.8553 85.4378 11.1052 83.5699 11.0964H81.3736V26.7086L90.4595 23.1086Z" fill="#F5F5F5"/>
<path d="M63.4462 114.281L48.4021 107.075L47.8703 96.7437L47.2428 96.8097L47.1338 110.183L36.8787 110.668V110.969L37.0769 117.862L63.3636 116.21C63.3966 115.566 63.4231 114.922 63.4462 114.281ZM37.5228 111.52L51.8766 110.513L61.2135 114.846L37.5228 116.128V111.52Z" fill="#F5F5F5"/>
<path d="M86.1824 40.4482L86.8001 36.8151C81.4033 34.8896 81.0301 29.2617 81.0466 27.5674L77.5226 28.9612L82.8268 39.606L86.1824 40.4482Z" fill="#F5F5F5"/>
<path d="M66.9339 84.3653L74.2694 83.6023L72.826 77.1223L66.4055 77.915L66.9339 84.3653Z" fill="#F5F5F5"/>
<path d="M82.1464 46.0465L68.4466 46.0432L67.3104 45.9573L65.7614 54.9309L82.0242 56.0538L81.6477 52.1533L83.2496 46.3932L82.1464 46.0465Z" fill="#F5F5F5"/>
<path d="M81.8129 44.4117L81.9846 40.1181L76.6011 29.3081L68.2517 32.6109L71.1218 44.4117H81.8129ZM76.2741 30.6358L81.2085 40.0223L80.4951 42.9452L72.0532 42.615L69.9427 33.7371L76.2741 30.6358Z" fill="#F5F5F5"/>
<path d="M83.9431 96.0635L84.1974 104.472L90.1325 104.139L90.1523 104.469L84.2073 104.803L84.5079 114.869L90.1226 114.516L90.1622 115.173L84.5277 115.53L84.6796 120.537H90.149L90.2679 92.4668L84.673 93.0316L83.9431 96.0635Z" fill="#F5F5F5"/>
<path d="M47.8637 27.8413L35.2934 26.0347L32.1491 41.6964L47.9199 42.8656C47.9826 40.448 47.943 33.0597 47.8637 27.8413Z" fill="#F5F5F5"/>
<path d="M68.5391 44.3949H70.4414L67.7497 33.3406L60.7544 33.6279L60.9229 43.8302L68.5391 44.3949Z" fill="#F5F5F5"/>
<path d="M48.2402 42.8889L60.5893 43.8037L60.4241 33.6411L48.2733 34.1365C48.2733 37.5747 48.2931 41.2408 48.2402 42.8889Z" fill="#F5F5F5"/>
<path d="M83.9333 75.7546L73.153 77.0824L74.6029 83.569L84.5872 82.5286L83.9333 75.7546Z" fill="#F5F5F5"/>
<path d="M86.8562 36.4849L87.5464 32.3862L90.5189 32.6173L90.5586 23.7957L81.3802 27.4287C81.1919 33.6181 85.0925 35.8012 86.8562 36.4849Z" fill="#F5F5F5"/>
<path d="M83.3222 52.3019L83.6954 56.1695L90.4199 56.6351L90.4529 48.6689L84.825 46.8887L83.3222 52.3019Z" fill="#F5F5F5"/>
<path d="M86.5193 85.366L84.7556 92.708L90.2679 92.1498L90.301 84.4544C88.6099 84.0085 87.1336 83.6452 86.3376 83.49L86.5193 85.366Z" fill="#F5F5F5"/>
<path d="M82.8004 44.5172L90.4595 46.9382L90.4794 42.5818L82.9556 40.6365L82.8004 44.5172Z" fill="#F5F5F5"/>
<path d="M86.2551 82.4661C86.8727 82.5585 88.0419 82.7963 90.3175 83.4074L90.3902 66.5632L84.7755 67.1049L86.2551 82.4661Z" fill="#F5F5F5"/>
<path d="M84.6928 66.4573L90.3802 65.909L90.4132 57.629L83.7912 57.1699L84.6928 66.4573Z" fill="#F5F5F5"/>
<path d="M87.4903 36.6764C88.567 37.0023 89.5699 37.2577 90.4991 37.4427V33.2647L88.0782 33.0764L87.4903 36.6764Z" fill="#F5F5F5"/>
<path d="M86.8264 40.6133L90.4826 41.5612L90.4991 37.7829C89.5512 37.5946 88.5174 37.337 87.4341 37.0034L86.8264 40.6133Z" fill="#F5F5F5"/>
<path d="M90.1623 115.173L90.1227 114.513L84.508 114.866L84.2074 104.799L90.1524 104.469L90.1326 104.139L84.1876 104.469L83.9432 96.0634L84.6731 93.0314L90.268 92.4667V92.1364L84.7557 92.6946L86.5193 85.3657L86.3377 83.4897C87.1337 83.645 88.61 84.0083 90.301 84.4541V83.4237C88.0254 82.8259 86.8562 82.5749 86.2386 82.4824L84.7524 67.1311L90.3671 66.5895V65.9289L84.6797 66.4772L83.778 57.1898L90.3836 57.6489V56.6581L83.6591 56.1924L83.2859 52.3248L84.7887 46.9116L90.4034 48.6918V46.9611L82.7443 44.5435L82.8995 40.6594L90.4232 42.6048V41.5842L86.767 40.6363L87.3748 37.0264C88.4713 37.3567 89.4918 37.6176 90.4397 37.8058V37.4756C89.5106 37.2906 88.5076 37.0352 87.4309 36.7093L88.0353 33.1093L90.4562 33.2976V32.637L87.4838 32.4058L86.8562 36.4847C85.0925 35.8242 81.192 33.6345 81.3802 27.4286L90.5586 23.7955V23.3761L90.4595 23.125L81.3835 26.7152V11.103H81.0533V26.8506L77.2286 28.3632L71.4818 16.8234C71.2091 17.0199 70.893 17.1479 70.5604 17.1966L76.3039 28.7298L67.4723 32.1911L67.6704 33.0003L60.7346 33.2844L60.4935 17.1569H60.1632L60.4275 33.3108L48.2634 33.8062C48.2436 31.3159 48.2171 28.9875 48.2039 27.6961V27.5673L47.4575 10.9411H47.1272L47.8736 27.5177L35.3793 25.7243L38.3518 10.8982H37.4997C37.4468 10.8982 37.394 10.8982 37.3411 10.8982L34.3785 25.5856L30.4152 25.0175L30.3822 25.2322V25.3478L34.3191 25.9126L31.1616 41.6404L30.3128 41.5776V43.229L36.4989 43.6881V51.8459L30.2699 53.2529V54.2702L37.493 52.6353V43.7508L60.6124 45.465V54.9142H53.2142L52.2366 59.3135H46.2157L30.2204 62.2232V63.2372L46.2916 60.3043H64.6154L65.2759 68.3234L46.2289 70.173L46.2916 70.8335L65.342 69.0005L66.6036 84.3683L47.3584 81.8549L47.2296 82.8457L66.6862 85.3888L67.4293 94.4384L47.0612 96.496L36.4923 97.2425V83.3841L46.503 77.5448L46.0043 76.686L36.2314 82.3932L30.1378 81.5873V82.5782L36.1686 83.3841V92.1991L30.0915 92.8597V93.8505L36.1752 93.19V97.586L36.5352 110.047L30.0123 112.604V113.667L36.5716 111.098L36.7664 117.888L29.9925 118.314V118.535L30.0189 118.975L36.7863 118.549L36.8424 120.53H37.1727L37.1165 118.522L63.357 116.871C63.3075 118.159 63.2579 119.411 63.215 120.537H63.8756C63.9185 119.473 63.968 118.192 64.0209 116.828L69.6851 116.471L70.4943 120.537H70.8246L70.0121 116.448L82.8929 115.636L83.0415 120.537H84.6929L90.1623 115.173ZM64.0506 116.164C64.0704 115.579 64.0935 114.982 64.1167 114.381H69.2756L69.5596 115.804L64.0506 116.164ZM69.8899 115.794L69.5596 114.209L68.7901 106.943L68.3574 101.658L82.4272 100.598L82.8599 114.968L69.8899 115.794ZM73.0903 94.2006L80.4951 93.4542L80.287 96.3606L73.6518 97.0773L73.0903 94.2006ZM72.76 94.2336L73.9985 100.578L68.3145 101.004L67.7992 94.7291L72.76 94.2336ZM82.4206 99.9441L74.3189 100.558L73.7674 97.7346L80.8947 96.965L81.1457 93.3947L82.9325 93.2131L82.2918 95.8916L82.4206 99.9441ZM72.8426 77.122L74.2859 83.602L66.9339 84.3749L66.4055 77.9246L72.8426 77.122ZM74.6195 83.569L73.1696 77.0824L83.9498 75.7613L84.6103 82.5352L74.6195 83.569ZM82.0408 56.0536L65.778 54.9307L67.327 45.9571L68.4631 46.043H82.1663L83.2496 46.393L81.6478 52.1531L82.0408 56.0536ZM81.05 27.5441C81.0334 29.2451 81.4067 34.873 86.8034 36.7919L86.1825 40.4481L82.8268 39.5827L77.5226 28.9379L81.05 27.5441ZM76.6044 29.3012L81.9846 40.1178L81.8129 44.4114H71.1218L68.2517 32.6238L76.6044 29.3012ZM67.7596 33.3405L70.4415 44.4114H68.5391L60.9229 43.8466L60.7544 33.6444L67.7596 33.3405ZM60.4341 33.6411L60.5992 43.8037L48.2502 42.8888C48.303 41.2374 48.2931 37.5747 48.2502 34.1365L60.4341 33.6411ZM35.3033 26.0447L47.8736 27.8513C47.9364 33.0697 47.9926 40.4646 47.9298 42.8756L32.1591 41.7064L35.3033 26.0447ZM66.9901 45.9439L64.6781 59.3234H60.9361V45.4848L66.9901 45.9439ZM54.0036 55.905H60.6091V59.3135H53.2506L54.0036 55.905ZM64.9192 59.8155L65.5798 55.9116L82.1101 57.0544L83.0349 66.6159L65.6029 68.2904L64.9192 59.8155ZM83.1109 67.2731L83.8375 74.7671L66.3328 76.9271L65.6723 68.951L83.1109 67.2731ZM67.0165 85.3657L84.683 83.5294L84.8514 85.2468L83.0151 92.8795L67.7596 94.4054L67.0165 85.3657ZM68.4631 106.999L69.2128 114.08H64.1266C64.2157 111.742 64.3016 109.407 64.3644 107.653C64.4734 104.509 64.4734 104.509 64.2653 104.403L64.1068 104.713H63.7765C63.7765 104.987 63.6345 109.304 63.4462 113.918L48.7093 106.857L48.1874 96.7074L67.4459 94.7654L68.4631 106.999ZM46.9092 96.8494L46.8069 109.882L36.8721 110.351L36.5022 97.586L46.9092 96.8494ZM36.8886 110.989V110.688L47.1437 110.203L47.2527 96.8296L47.8803 96.7636L48.412 107.095L63.4561 114.301C63.433 114.942 63.4066 115.586 63.3834 116.227L37.0967 117.878L36.8886 110.989Z" fill="white"/>
<path d="M51.8766 110.513L37.5227 111.52V116.128L61.2168 114.843L51.8766 110.513Z" fill="#EBEBEB"/>
<path d="M81.4463 58.2535L67.0891 57.3452L66.2007 59.8091L66.6862 67.1511L82.2753 65.3016L81.4463 58.2535Z" fill="#EBEBEB"/>
<path d="M29.9726 116.164L29.9396 128.576V131.106C29.9851 132.936 30.7417 134.676 32.0489 135.957C33.3561 137.239 35.111 137.96 36.9414 137.969L83.025 138.181C83.9505 138.185 84.8679 138.008 85.7247 137.658C86.5815 137.307 87.3609 136.792 88.0182 136.14C88.6756 135.489 89.1981 134.714 89.5558 133.86C89.9135 133.007 90.0993 132.091 90.1028 131.165L90.149 116.164H29.9726Z" fill="#EBEBEB"/>
<path d="M46.4997 26.1077L46.2619 12.606H39.2501L37.2156 24.7502L46.4997 26.1077Z" fill="#EBEBEB"/>
<path d="M80.4951 42.9288L81.2085 40.0059L76.2741 30.6194L69.9427 33.7339L72.0532 42.6117L80.4951 42.9288Z" fill="#EBEBEB"/>
<path d="M37.5227 84.0713C37.5987 84.4973 37.5227 95.9216 37.5227 95.9216L46.7705 95.337L45.7103 79.7249L37.5227 84.0713Z" fill="#EBEBEB"/>
<path d="M68.3046 93.3486L67.8158 86.2674L83.6459 84.2329V85.4549L81.7303 91.9647L68.3046 93.3486Z" fill="#EBEBEB"/>
<path d="M83.0613 111.382L82.8631 106.758L68.9486 107.418C68.5839 107.436 68.2208 107.359 67.895 107.194L48.161 97.2558C47.9362 97.1421 47.7454 96.971 47.6079 96.7599C47.4705 96.5488 47.3912 96.3052 47.3782 96.0536L44.6931 43.959C44.6873 43.8367 44.7076 43.7146 44.7526 43.6007C44.7976 43.4869 44.8662 43.3839 44.954 43.2985C45.0411 43.2142 45.1449 43.149 45.2586 43.1069C45.3723 43.0648 45.4935 43.0468 45.6145 43.0541L54.0696 43.6816V34.4338H55.0604V43.8071C55.061 43.9273 55.0367 44.0463 54.9889 44.1566C54.9412 44.2669 54.8711 44.366 54.783 44.4478C54.6946 44.5296 54.5904 44.5923 54.4767 44.632C54.3631 44.6718 54.2425 44.6878 54.1225 44.679L45.6707 44.0515L48.3525 96.014C48.3565 96.091 48.3805 96.1657 48.4222 96.2305C48.4639 96.2954 48.5219 96.3483 48.5903 96.3839L68.3277 106.348C68.4987 106.437 68.6903 106.478 68.8825 106.467L82.9127 105.787C83.0283 105.78 83.144 105.797 83.2529 105.836C83.3619 105.875 83.4618 105.936 83.5468 106.015C83.6319 106.092 83.7009 106.186 83.7496 106.29C83.7984 106.394 83.826 106.507 83.8309 106.622L84.0323 111.355L83.0613 111.382Z" fill="white"/>
<path d="M78.989 28.7565C78.989 29.1379 78.8759 29.5109 78.664 29.828C78.452 30.1452 78.1508 30.3925 77.7983 30.5384C77.4459 30.6844 77.0581 30.7226 76.6839 30.6482C76.3098 30.5738 75.9661 30.3901 75.6963 30.1203C75.4266 29.8506 75.2429 29.5069 75.1685 29.1327C75.094 28.7586 75.1322 28.3708 75.2782 28.0183C75.4242 27.6659 75.6714 27.3646 75.9886 27.1527C76.3058 26.9408 76.6787 26.8276 77.0602 26.8276C77.3136 26.8272 77.5647 26.8768 77.7989 26.9736C78.0331 27.0704 78.2459 27.2124 78.4251 27.3916C78.6043 27.5708 78.7463 27.7836 78.8431 28.0178C78.9399 28.252 78.9895 28.503 78.989 28.7565V28.7565Z" fill="#FCC62D"/>
<g opacity="0.6">
<path d="M78.0551 30.3984C78.962 29.8396 79.2442 28.6514 78.6854 27.7445C78.1266 26.8375 76.9384 26.5553 76.0315 27.1142C75.1245 27.673 74.8423 28.8612 75.4012 29.7681C75.96 30.675 77.1482 30.9572 78.0551 30.3984Z" fill="white"/>
</g>
<path d="M78.3285 28.6904C78.3291 28.9447 78.2543 29.1934 78.1135 29.4051C77.9728 29.6168 77.7723 29.782 77.5376 29.8797C77.3029 29.9775 77.0445 30.0034 76.7951 29.9542C76.5456 29.905 76.3164 29.7829 76.1364 29.6034C75.9564 29.4238 75.8337 29.1949 75.7838 28.9456C75.734 28.6963 75.7593 28.4378 75.8564 28.2028C75.9535 27.9679 76.1182 27.767 76.3296 27.6257C76.5409 27.4844 76.7894 27.4089 77.0437 27.4089C77.3839 27.4089 77.7101 27.5438 77.951 27.7841C78.1918 28.0243 78.3276 28.3502 78.3285 28.6904V28.6904Z" fill="#FCC62D"/>
<path d="M83.4775 112.089L83.2397 106.679C83.238 106.64 83.2287 106.602 83.2123 106.567C83.1959 106.532 83.1728 106.501 83.1443 106.475C83.1158 106.448 83.0824 106.428 83.046 106.415C83.0097 106.402 82.9711 106.396 82.9325 106.398L68.4201 107.164L66.673 85.1545L64.4568 59.8024V59.7793L66.9372 46.2379C66.982 45.991 67.1119 45.7675 67.3044 45.6064C67.4969 45.4453 67.7398 45.3567 67.9908 45.3561L81.1127 45.3132C81.3509 45.3128 81.5801 45.2218 81.7537 45.0587C81.9273 44.8955 82.0323 44.6724 82.0474 44.4346L82.2719 40.8016C82.3007 40.3372 82.2097 39.8732 82.0077 39.4541L76.8818 28.7597L77.1824 28.6177L82.3083 39.312C82.5338 39.7829 82.635 40.3037 82.6022 40.8247L82.3776 44.4578C82.3559 44.7788 82.2133 45.0796 81.9786 45.2996C81.7438 45.5196 81.4344 45.6425 81.1127 45.6434L67.9908 45.6864C67.8167 45.6861 67.648 45.7471 67.5145 45.8589C67.381 45.9707 67.2912 46.1259 67.2609 46.2974L64.7871 59.8156L66.9702 85.1148L68.6943 106.807L82.8962 106.071C82.9779 106.065 83.06 106.076 83.1372 106.103C83.2145 106.131 83.2853 106.174 83.3453 106.229C83.4068 106.284 83.4567 106.351 83.4919 106.425C83.5271 106.499 83.5469 106.58 83.5501 106.662L83.7879 112.075L83.4775 112.089Z" fill="#FCC62D"/>
<path d="M84.3792 111.649C84.3798 111.813 84.3319 111.973 84.2414 112.109C84.1509 112.246 84.022 112.352 83.871 112.415C83.72 112.478 83.5537 112.494 83.3932 112.463C83.2327 112.431 83.0853 112.352 82.9696 112.236C82.8539 112.121 82.7752 111.973 82.7435 111.813C82.7117 111.652 82.7284 111.486 82.7913 111.335C82.8542 111.184 82.9605 111.055 83.0968 110.965C83.2331 110.874 83.3932 110.826 83.5568 110.827C83.6648 110.827 83.7717 110.848 83.8715 110.89C83.9713 110.931 84.0619 110.991 84.1383 111.068C84.2147 111.144 84.2752 111.235 84.3166 111.335C84.3579 111.434 84.3792 111.541 84.3792 111.649V111.649Z" fill="#FCC62D"/>
<path d="M68.4862 96.4136C68.4963 96.566 68.461 96.7179 68.3848 96.8502C68.3086 96.9825 68.1949 97.0893 68.058 97.1571C67.9212 97.2248 67.7673 97.2506 67.6159 97.231C67.4644 97.2114 67.3222 97.1474 67.2071 97.047C67.092 96.9466 67.0092 96.8144 66.9692 96.6671C66.9292 96.5197 66.9337 96.3638 66.9822 96.219C67.0307 96.0742 67.1211 95.947 67.2418 95.8535C67.3625 95.76 67.5082 95.7043 67.6605 95.6936C67.7621 95.6864 67.864 95.6993 67.9606 95.7317C68.0571 95.764 68.1463 95.8151 68.223 95.882C68.2997 95.9489 68.3625 96.0303 68.4076 96.1215C68.4528 96.2128 68.4795 96.312 68.4862 96.4136V96.4136Z" fill="#FCC62D"/>
<path d="M67.786 97.0675C67.4164 97.0929 67.072 97.2641 66.8285 97.5435C66.5851 97.8228 66.4626 98.1874 66.488 98.557L69.2756 98.3655C69.2502 97.9958 69.079 97.6514 68.7996 97.408C68.5203 97.1646 68.1557 97.0421 67.786 97.0675V97.0675Z" fill="#FCC62D"/>
<path d="M78.7908 88.2063H71.9343C71.6566 88.2063 71.3903 88.3166 71.1939 88.5129C70.9976 88.7093 70.8873 88.9756 70.8873 89.2533V93.5469C70.8873 93.6842 70.9144 93.8202 70.9671 93.947C71.0197 94.0739 71.0969 94.1891 71.1942 94.286C71.2914 94.383 71.4069 94.4598 71.5339 94.512C71.6609 94.5643 71.7969 94.591 71.9343 94.5905H72.073V95.6177L73.262 94.5905H78.7908C78.9282 94.591 79.0642 94.5643 79.1912 94.512C79.3182 94.4598 79.4337 94.383 79.531 94.286C79.6282 94.1891 79.7054 94.0739 79.758 93.947C79.8107 93.8202 79.8378 93.6842 79.8378 93.5469V89.2533C79.8378 88.9756 79.7275 88.7093 79.5312 88.5129C79.3348 88.3166 79.0685 88.2063 78.7908 88.2063V88.2063Z" fill="#FCC62D"/>
<g opacity="0.4">
<path d="M78.7908 88.2063H71.9343C71.6566 88.2063 71.3903 88.3166 71.1939 88.5129C70.9976 88.7093 70.8873 88.9756 70.8873 89.2533V93.5469C70.8873 93.6842 70.9144 93.8202 70.9671 93.947C71.0197 94.0739 71.0969 94.1891 71.1942 94.286C71.2914 94.383 71.4069 94.4598 71.5339 94.512C71.6609 94.5643 71.7969 94.591 71.9343 94.5905H72.073V95.6177L73.262 94.5905H78.7908C78.9282 94.591 79.0642 94.5643 79.1912 94.512C79.3182 94.4598 79.4337 94.383 79.531 94.286C79.6282 94.1891 79.7054 94.0739 79.758 93.947C79.8107 93.8202 79.8378 93.6842 79.8378 93.5469V89.2533C79.8378 88.9756 79.7275 88.7093 79.5312 88.5129C79.3348 88.3166 79.0685 88.2063 78.7908 88.2063V88.2063Z" fill="white"/>
</g>
<path d="M74.1108 91.5817V92.1432H73.8796V91.5751L73.2191 90.5149H73.4701L73.9919 91.3736L74.5137 90.5149H74.7449L74.1108 91.5817Z" fill="white"/>
<path d="M74.6954 91.5254C74.6928 91.3975 74.7283 91.2717 74.7975 91.1641C74.8666 91.0564 74.9663 90.9718 75.0837 90.9211C75.2011 90.8703 75.331 90.8556 75.4568 90.879C75.5826 90.9023 75.6986 90.9626 75.79 91.0521C75.8814 91.1416 75.9441 91.2563 75.97 91.3816C75.9959 91.5069 75.984 91.6371 75.9356 91.7555C75.8873 91.874 75.8048 91.9754 75.6986 92.0467C75.5924 92.1181 75.4674 92.1562 75.3395 92.1562C75.2549 92.1604 75.1704 92.147 75.0913 92.1169C75.0122 92.0868 74.9401 92.0408 74.8796 91.9815C74.8192 91.9223 74.7716 91.8512 74.7399 91.7727C74.7082 91.6942 74.6931 91.61 74.6954 91.5254V91.5254ZM75.7523 91.5254C75.7464 91.4438 75.7165 91.3658 75.6665 91.301C75.6165 91.2363 75.5484 91.1878 75.471 91.1615C75.3935 91.1352 75.31 91.1323 75.2309 91.1532C75.1518 91.1742 75.0806 91.2179 75.0262 91.2791C74.9719 91.3402 74.9367 91.4161 74.9252 91.4971C74.9137 91.5781 74.9264 91.6607 74.9616 91.7345C74.9968 91.8084 75.0529 91.8703 75.1231 91.9124C75.1932 91.9545 75.2742 91.975 75.356 91.9713C75.413 91.9721 75.4695 91.9608 75.5218 91.9381C75.5741 91.9154 75.621 91.8819 75.6594 91.8398C75.6978 91.7976 75.7269 91.7478 75.7446 91.6936C75.7623 91.6394 75.7683 91.5821 75.7622 91.5254H75.7523Z" fill="white"/>
<path d="M77.4466 90.9114V92.1433H77.2353V91.9716C77.1868 92.0363 77.1233 92.0882 77.0502 92.1228C76.977 92.1573 76.8966 92.1734 76.8158 92.1697C76.744 92.1771 76.6715 92.1683 76.6035 92.1439C76.5356 92.1196 76.474 92.0803 76.4233 92.0289C76.3726 91.9776 76.334 91.9155 76.3105 91.8472C76.287 91.779 76.2791 91.7064 76.2874 91.6347V90.9246H76.5087V91.6083C76.5087 91.8494 76.6309 91.9716 76.8389 91.9716C76.8924 91.9749 76.946 91.9664 76.9958 91.9467C77.0457 91.9269 77.0905 91.8963 77.1271 91.8572C77.1637 91.818 77.1912 91.7713 77.2076 91.7202C77.2241 91.6692 77.229 91.6152 77.2221 91.562V90.9246L77.4466 90.9114Z" fill="white"/>
<path d="M38.137 122.545C38.1845 122.545 38.2229 122.323 38.2229 122.05C38.2229 121.776 38.1845 121.554 38.137 121.554C38.0896 121.554 38.0512 121.776 38.0512 122.05C38.0512 122.323 38.0896 122.545 38.137 122.545Z" fill="#263238"/>
<path d="M38.137 124.527C38.1845 124.527 38.2229 124.305 38.2229 124.032C38.2229 123.758 38.1845 123.536 38.137 123.536C38.0896 123.536 38.0512 123.758 38.0512 124.032C38.0512 124.305 38.0896 124.527 38.137 124.527Z" fill="#263238"/>
<path d="M38.137 126.508C38.1845 126.508 38.2229 126.287 38.2229 126.013C38.2229 125.739 38.1845 125.518 38.137 125.518C38.0896 125.518 38.0512 125.739 38.0512 126.013C38.0512 126.287 38.0896 126.508 38.137 126.508Z" fill="#263238"/>
<path d="M38.137 128.49C38.1845 128.49 38.2229 128.268 38.2229 127.995C38.2229 127.721 38.1845 127.499 38.137 127.499C38.0896 127.499 38.0512 127.721 38.0512 127.995C38.0512 128.268 38.0896 128.49 38.137 128.49Z" fill="#263238"/>
<path d="M38.137 130.194C38.1845 130.194 38.2229 130.035 38.2229 129.838C38.2229 129.641 38.1845 129.481 38.137 129.481C38.0896 129.481 38.0512 129.641 38.0512 129.838C38.0512 130.035 38.0896 130.194 38.137 130.194Z" fill="#263238"/>
<path d="M39.5407 131.892C39.5413 131.676 39.4919 131.463 39.3966 131.269C39.3012 131.075 39.1624 130.906 38.9909 130.774C38.8195 130.643 38.62 130.553 38.408 130.511C38.1961 130.47 37.9774 130.477 37.7689 130.534C37.5604 130.591 37.3679 130.695 37.2062 130.838C37.0445 130.981 36.9181 131.16 36.8367 131.36C36.7554 131.56 36.7213 131.776 36.7372 131.992C36.7531 132.207 36.8185 132.416 36.9283 132.602V132.602C36.9811 132.695 37.0505 132.757 37.1165 132.853L37.9323 133.933C37.956 133.964 37.9867 133.99 38.0219 134.008C38.0572 134.025 38.096 134.034 38.1354 134.034C38.1748 134.034 38.2137 134.025 38.2489 134.008C38.2842 133.99 38.3148 133.964 38.3385 133.933L39.1378 132.873C39.2154 132.784 39.2881 132.692 39.3558 132.595V132.595C39.4783 132.381 39.5421 132.139 39.5407 131.892V131.892ZM38.1371 132.503C38.0149 132.503 37.8955 132.467 37.7939 132.399C37.6924 132.331 37.6132 132.235 37.5665 132.122C37.5197 132.009 37.5075 131.885 37.5313 131.765C37.5552 131.645 37.614 131.535 37.7004 131.449C37.7867 131.362 37.8968 131.303 38.0166 131.28C38.1364 131.256 38.2606 131.268 38.3734 131.315C38.4863 131.361 38.5827 131.441 38.6506 131.542C38.7185 131.644 38.7547 131.763 38.7547 131.885C38.7547 132.049 38.6896 132.206 38.5738 132.322C38.458 132.438 38.3009 132.503 38.1371 132.503Z" fill="#455A64"/>
<path d="M73.7673 132.503C73.7673 132.549 66.6465 132.589 57.8678 132.589C49.089 132.589 41.9683 132.549 41.9683 132.503C41.9683 132.457 49.0857 132.417 57.8678 132.417C66.6498 132.417 73.7673 132.457 73.7673 132.503Z" fill="#263238"/>
<path d="M61.2135 131.109C61.2135 131.156 56.9001 131.195 51.5826 131.195C46.2652 131.195 41.9485 131.156 41.9485 131.109C41.9485 131.063 46.2586 131.023 51.5826 131.023C56.9067 131.023 61.2135 131.06 61.2135 131.109Z" fill="#FCC62D"/>
<path d="M47.1636 134.082C46.3176 134.167 45.4669 134.195 44.6171 134.168C43.7662 134.195 42.9145 134.167 42.0674 134.082C42.9143 133.995 43.7662 133.966 44.6171 133.996C45.4669 133.966 46.3177 133.995 47.1636 134.082Z" fill="#263238"/>
<path d="M39.5407 120.943C39.5413 120.727 39.4919 120.514 39.3966 120.32C39.3012 120.127 39.1624 119.957 38.9909 119.826C38.8195 119.695 38.62 119.604 38.408 119.563C38.1961 119.521 37.9774 119.529 37.7689 119.586C37.5604 119.642 37.3679 119.746 37.2062 119.889C37.0445 120.033 36.9181 120.211 36.8367 120.411C36.7554 120.612 36.7213 120.828 36.7372 121.043C36.7531 121.259 36.8185 121.468 36.9283 121.654V121.654C36.9811 121.743 37.0505 121.809 37.1165 121.905L37.9323 122.981C37.956 123.013 37.9867 123.038 38.0219 123.056C38.0572 123.073 38.096 123.083 38.1354 123.083C38.1748 123.083 38.2137 123.073 38.2489 123.056C38.2842 123.038 38.3148 123.013 38.3385 122.981L39.1378 121.921C39.2107 121.834 39.279 121.744 39.3426 121.65C39.4706 121.437 39.539 121.193 39.5407 120.943V120.943ZM38.1371 121.554C38.0149 121.554 37.8955 121.518 37.7939 121.45C37.6924 121.383 37.6132 121.286 37.5665 121.173C37.5197 121.06 37.5075 120.936 37.5313 120.816C37.5552 120.697 37.614 120.587 37.7004 120.5C37.7867 120.414 37.8968 120.355 38.0166 120.331C38.1364 120.307 38.2606 120.319 38.3734 120.366C38.4863 120.413 38.5827 120.492 38.6506 120.594C38.7185 120.695 38.7547 120.815 38.7547 120.937C38.7547 121.101 38.6896 121.258 38.5738 121.374C38.458 121.489 38.3009 121.554 38.1371 121.554Z" fill="#FCC62D"/>
<path d="M80.4818 121.554C80.4818 121.604 71.8583 121.64 61.2234 121.64C50.5885 121.64 41.9683 121.604 41.9683 121.554C41.9683 121.505 50.5885 121.468 61.2234 121.468C71.8583 121.468 80.4818 121.508 80.4818 121.554Z" fill="#263238"/>
<path d="M69.2128 120.161C69.2128 120.21 63.1093 120.246 55.5823 120.246C48.0553 120.246 41.9485 120.21 41.9485 120.161C41.9485 120.111 48.052 120.075 55.5823 120.075C63.1126 120.075 69.2128 120.114 69.2128 120.161Z" fill="#FCC62D"/>
<path d="M57.0091 123.133C57.0091 123.179 53.6667 123.219 49.5415 123.219C45.4164 123.219 42.0674 123.179 42.0674 123.133C42.0674 123.087 45.4131 123.047 49.5415 123.047C53.67 123.047 57.0091 123.087 57.0091 123.133Z" fill="#263238"/>
<path d="M135.615 42.2383L134.109 38.886C131.982 38.7125 129.996 37.7497 128.542 36.1867C127.089 34.6238 126.272 32.5737 126.253 30.4393C126.234 28.305 127.014 26.2408 128.44 24.6522C129.866 23.0637 131.834 22.0657 133.958 21.8545C136.082 21.6433 138.208 22.234 139.918 23.5106C141.629 24.7872 142.8 26.6574 143.202 28.7537C143.604 30.8499 143.207 33.0207 142.09 34.8393C140.973 36.6579 139.216 37.993 137.164 38.5821V38.5821L135.615 42.2383Z" fill="white"/>
<path d="M135.615 42.2381C135.727 41.9606 136.183 40.8575 137.128 38.5654L137.167 38.6248H136.837L137.167 38.5323C138.603 38.1151 139.904 37.3268 140.939 36.2468C141.249 35.9243 141.53 35.5751 141.778 35.2032C141.903 35.0116 142.036 34.8167 142.161 34.6153L142.491 33.9745C142.983 32.9329 143.257 31.8017 143.296 30.6504C143.334 29.4992 143.137 28.3522 142.717 27.2798C142.296 26.2075 141.661 25.2324 140.849 24.4146C140.038 23.5967 139.068 22.9533 138 22.5238C136.772 22.0277 135.444 21.8318 134.125 21.9524C132.783 22.0599 131.486 22.4856 130.34 23.1943C129.251 23.8818 128.328 24.8036 127.639 25.8927C126.985 26.9203 126.565 28.0796 126.41 29.2879C126.133 31.4646 126.701 33.6647 127.999 35.4344C128.558 36.1746 129.226 36.8259 129.98 37.3665C131.201 38.2157 132.624 38.7293 134.106 38.856H134.145V38.8791C135.06 40.9863 135.496 41.9837 135.612 42.248C135.489 41.987 135.034 40.9995 134.069 38.9122L134.102 38.9353C132.601 38.8229 131.157 38.3134 129.918 37.4589C129.144 36.9179 128.459 36.2606 127.886 35.5103C126.559 33.7161 125.973 31.4794 126.252 29.2648C126.407 28.0325 126.832 26.8496 127.497 25.8002C128.206 24.6597 129.174 23.7017 130.321 23.003C131.468 22.3044 132.763 21.8846 134.102 21.7774C135.443 21.6637 136.791 21.8708 138.036 22.3818C139.229 22.8672 140.301 23.6105 141.174 24.5583C141.995 25.4605 142.615 26.5281 142.99 27.6894C143.671 29.7836 143.527 32.0589 142.587 34.0505C142.475 34.2685 142.359 34.4832 142.257 34.711C142.154 34.9389 141.996 35.1107 141.867 35.3055C141.614 35.6825 141.327 36.0352 141.008 36.3591C139.956 37.4478 138.632 38.2366 137.174 38.6446V38.5621H137.247L137.22 38.6248C136.213 40.8674 135.734 41.9639 135.615 42.2381Z" fill="#263238"/>
<path d="M138.439 30.0442C138.44 29.5492 138.327 29.0605 138.109 28.6162C137.891 28.1719 137.573 27.784 137.18 27.4827C136.787 27.1814 136.33 26.9749 135.844 26.8791C135.358 26.7834 134.857 26.801 134.379 26.9306C133.902 27.0603 133.46 27.2985 133.09 27.6266C132.719 27.9548 132.429 28.3641 132.242 28.8226C132.056 29.2811 131.977 29.7766 132.014 30.2703C132.05 30.764 132.199 31.2428 132.451 31.6692V31.6692C132.573 31.8773 132.728 32.0259 132.884 32.2439L134.75 34.7177C134.804 34.7895 134.874 34.8477 134.954 34.8879C135.035 34.928 135.124 34.9489 135.214 34.9489C135.304 34.9489 135.392 34.928 135.473 34.8879C135.553 34.8477 135.624 34.7895 135.678 34.7177L137.514 32.2835C137.681 32.0866 137.836 31.8804 137.98 31.6659V31.6659C138.276 31.1764 138.434 30.6162 138.439 30.0442V30.0442ZM135.225 31.4446C134.945 31.4453 134.67 31.3626 134.437 31.2072C134.203 31.0518 134.021 30.8305 133.914 30.5715C133.806 30.3124 133.778 30.0273 133.832 29.7521C133.887 29.477 134.022 29.2242 134.22 29.0258C134.418 28.8275 134.671 28.6925 134.946 28.6379C135.222 28.5833 135.507 28.6117 135.766 28.7193C136.025 28.827 136.246 29.0091 136.401 29.2426C136.557 29.4761 136.639 29.7505 136.639 30.031C136.638 30.2174 136.601 30.4018 136.529 30.5738C136.458 30.7457 136.353 30.9018 136.22 31.0331C136.088 31.1644 135.931 31.2684 135.759 31.339C135.586 31.4096 135.402 31.4455 135.215 31.4446H135.225Z" fill="#FCC62D"/>
<path d="M111.515 26.5765C111.812 25.4767 112.641 24.9252 113.721 24.5652C114.264 24.3857 114.843 24.34 115.407 24.432C115.972 24.524 116.506 24.751 116.964 25.0936C117.572 25.5527 118.048 26.2265 118.768 26.4775C119.953 26.8903 121.344 26.0019 122.483 26.5336C122.825 26.6916 123.1 26.9636 123.263 27.3028C123.426 27.6421 123.465 28.0274 123.374 28.3925C123.284 28.7576 123.068 29.0797 122.766 29.3034C122.464 29.5272 122.093 29.6385 121.717 29.6184C122.49 29.9024 122.731 31.0056 122.278 31.6958C121.826 32.3861 120.898 32.6437 120.085 32.4918C119.282 32.2956 118.548 31.8833 117.962 31.2995C117.351 30.7479 116.799 30.1237 116.145 29.625C115.51 29.0879 114.705 28.792 113.873 28.7894C112.757 28.8489 111.802 29.6911 111.303 30.6885C110.805 31.6859 110.692 32.832 110.643 33.945C110.593 35.0581 110.56 36.1909 110.23 37.2478C110.19 37.3733 110.131 37.512 110.005 37.5516C109.827 37.6078 109.675 37.4162 109.583 37.2478C108.566 35.3607 107.93 33.2927 107.71 31.1608C107.584 29.9256 107.617 28.7564 108.294 27.716C108.972 26.6756 110.689 25.9127 111.531 26.5666" fill="#263238"/>
<path d="M109.374 31.7487L108.803 44.2497C108.707 46.3767 108.998 49.5341 112.367 49.5341C115.29 49.3162 116.152 46.5848 116.241 44.5998C116.284 43.6585 116.32 42.8725 116.33 42.7767C116.33 42.7767 119.527 42.6248 119.9 39.4739C120.082 37.9579 120.198 34.8005 120.27 31.9469C120.309 30.464 119.786 29.0211 118.807 27.9067C117.828 26.7923 116.465 26.0884 114.989 25.9359L114.685 25.9028C111.399 25.7476 109.427 28.4559 109.374 31.7487Z" fill="#FFBE9D"/>
<path d="M116.327 42.7171C114.87 42.589 113.484 42.0289 112.347 41.1086C112.347 41.1086 113.074 43.4734 116.241 43.5263L116.327 42.7171Z" fill="#EB996E"/>
<path d="M119.448 34.2787C119.437 34.3962 119.38 34.5046 119.29 34.5807C119.2 34.6567 119.083 34.6941 118.966 34.6849C118.908 34.6833 118.852 34.6702 118.8 34.6464C118.747 34.6226 118.7 34.5887 118.661 34.5466C118.622 34.5045 118.592 34.455 118.572 34.4011C118.552 34.3472 118.544 34.2898 118.546 34.2325C118.558 34.1151 118.615 34.0068 118.705 33.9304C118.795 33.854 118.911 33.8155 119.028 33.8229C119.086 33.8246 119.143 33.8378 119.195 33.8618C119.248 33.8857 119.295 33.9199 119.334 33.9624C119.373 34.0049 119.404 34.0548 119.423 34.1091C119.443 34.1634 119.451 34.2211 119.448 34.2787V34.2787Z" fill="#263238"/>
<path d="M119.418 33.4101C119.355 33.463 119.045 33.1756 118.559 33.1261C118.074 33.0766 117.697 33.278 117.651 33.2153C117.605 33.1525 117.697 33.0865 117.863 32.9907C118.087 32.8676 118.345 32.8169 118.599 32.8454C118.845 32.8734 119.077 32.9786 119.26 33.1459C119.408 33.2747 119.448 33.387 119.418 33.4101Z" fill="#263238"/>
<path d="M114.692 33.9383C114.681 34.0552 114.625 34.1631 114.535 34.239C114.446 34.315 114.33 34.3528 114.213 34.3446C114.156 34.3433 114.099 34.3305 114.046 34.3069C113.994 34.2833 113.947 34.2494 113.907 34.2072C113.868 34.165 113.838 34.1153 113.819 34.0612C113.799 34.0071 113.79 33.9496 113.794 33.8921C113.804 33.7746 113.86 33.6659 113.949 33.5892C114.039 33.5126 114.155 33.4743 114.272 33.4825C114.33 33.4842 114.387 33.4974 114.439 33.5214C114.492 33.5453 114.539 33.5796 114.578 33.622C114.617 33.6645 114.648 33.7144 114.667 33.7687C114.687 33.823 114.695 33.8807 114.692 33.9383V33.9383Z" fill="#263238"/>
<path d="M114.659 32.9939C114.599 33.0467 114.286 32.7594 113.803 32.7098C113.321 32.6603 112.938 32.8651 112.892 32.799C112.846 32.733 112.938 32.6702 113.103 32.5744C113.328 32.4514 113.585 32.4006 113.84 32.4291C114.086 32.4586 114.316 32.5636 114.5 32.7297C114.659 32.8519 114.692 32.9708 114.659 32.9939Z" fill="#263238"/>
<path d="M116.033 36.7656C116.295 36.7105 116.564 36.6905 116.832 36.7062C116.958 36.7062 117.077 36.7062 117.106 36.6137C117.129 36.4867 117.114 36.3558 117.063 36.2372C116.977 35.9267 116.892 35.6031 116.799 35.2464C116.432 33.8559 116.185 32.7165 116.241 32.7032C116.297 32.69 116.637 33.8064 117.001 35.1968C117.086 35.5271 117.172 35.8574 117.248 36.1877C117.307 36.3465 117.307 36.5209 117.248 36.6798C117.226 36.7214 117.195 36.7574 117.156 36.7849C117.118 36.8124 117.074 36.8307 117.027 36.8383C116.957 36.8479 116.886 36.8479 116.816 36.8383C116.553 36.8451 116.29 36.8207 116.033 36.7656V36.7656Z" fill="#263238"/>
<path d="M114.989 31.1145C114.93 31.24 114.454 31.1145 113.879 31.1376C113.305 31.1607 112.829 31.2499 112.766 31.1376C112.74 31.0782 112.832 30.9626 113.031 30.8536C113.293 30.7231 113.583 30.6553 113.876 30.6554C114.17 30.6519 114.461 30.7175 114.725 30.847C114.92 30.9394 115.012 31.055 114.989 31.1145Z" fill="#263238"/>
<path d="M119.388 31.993C119.293 32.0954 118.972 31.9434 118.573 31.8972C118.173 31.851 117.826 31.8972 117.76 31.7684C117.731 31.709 117.797 31.6066 117.955 31.5174C118.166 31.411 118.405 31.3729 118.639 31.4084C118.874 31.4364 119.095 31.5381 119.27 31.699C119.398 31.8245 119.431 31.9434 119.388 31.993Z" fill="#263238"/>
<path d="M109.374 34.1036C109.325 34.0739 107.284 33.235 107.125 35.3917C106.967 37.5484 109.163 37.2643 109.17 37.2016C109.176 37.1388 109.374 34.1036 109.374 34.1036Z" fill="#FFBE9D"/>
<path d="M108.565 36.3363C108.565 36.3363 108.526 36.3594 108.46 36.3825C108.415 36.401 108.367 36.4105 108.319 36.4105C108.271 36.4105 108.223 36.401 108.179 36.3825C108.046 36.284 107.942 36.1518 107.878 35.9997C107.814 35.8476 107.791 35.681 107.812 35.5172C107.819 35.3311 107.869 35.149 107.958 34.9854C107.983 34.9195 108.023 34.8606 108.076 34.814C108.129 34.7673 108.193 34.7344 108.261 34.7179C108.305 34.7096 108.35 34.717 108.389 34.7388C108.428 34.7606 108.457 34.7953 108.473 34.8368C108.499 34.8996 108.473 34.9425 108.493 34.9458C108.512 34.9491 108.542 34.9161 108.532 34.8236C108.522 34.7695 108.496 34.7199 108.456 34.6816C108.428 34.6571 108.396 34.6383 108.361 34.6264C108.326 34.6145 108.289 34.6097 108.252 34.6122C108.162 34.6238 108.077 34.6576 108.004 34.7108C107.932 34.7639 107.874 34.8345 107.835 34.9161C107.729 35.0969 107.669 35.3011 107.66 35.5106C107.637 35.7015 107.67 35.8949 107.755 36.0673C107.84 36.2397 107.974 36.3837 108.139 36.4816C108.196 36.5024 108.256 36.5102 108.316 36.5045C108.376 36.4988 108.434 36.4797 108.486 36.4486C108.559 36.3891 108.572 36.3396 108.565 36.3363Z" fill="#EB996E"/>
<path d="M120.994 31.3589C120.28 31.4649 119.551 31.4004 118.867 31.1708C118.182 30.9412 117.562 30.553 117.057 30.0378C116.36 29.3079 115.871 28.3104 114.943 27.9141C114.625 27.7921 114.286 27.7345 113.946 27.7447C113.606 27.7549 113.271 27.8327 112.961 27.9736C112.343 28.2593 111.79 28.6685 111.336 29.1758C111.776 30.8272 111.178 32.5776 110.587 34.1927C110.54 34.3783 110.433 34.5432 110.283 34.6617C110.009 34.8301 109.645 34.6385 109.447 34.3809C109.164 33.9457 109.013 33.4372 109.014 32.9178C108.911 31.7431 109.044 30.5596 109.404 29.4367C109.77 28.3088 110.459 27.3131 111.386 26.5732C112.579 25.6844 114.072 25.2947 115.547 25.4866C117.015 25.6877 118.381 26.3478 119.451 27.3725C119.968 27.8185 120.367 28.3859 120.61 29.0238" fill="#263238"/>
<path d="M116.181 38.1364C116.115 38.3302 116.022 38.5137 115.904 38.6813C115.844 38.7652 115.768 38.8354 115.679 38.8872C115.59 38.939 115.491 38.9713 115.389 38.9819C115.279 38.9815 115.171 38.9538 115.075 38.9014C114.979 38.8489 114.897 38.7733 114.837 38.6813C114.723 38.4941 114.67 38.2759 114.685 38.0571C114.685 37.8589 114.784 37.6244 114.979 37.6013C115.062 37.5975 115.144 37.6158 115.217 37.6542L116.248 38.0703" fill="#EB996E"/>
<path d="M115.769 38.9785C115.583 38.9897 115.397 38.9662 115.22 38.9092C115.041 38.8373 114.894 38.7038 114.804 38.5327C114.759 38.4283 114.736 38.316 114.736 38.2024C114.736 38.0888 114.759 37.9764 114.804 37.8721C114.829 37.8171 114.86 37.765 114.897 37.7169C114.936 37.6739 114.93 37.6773 114.973 37.6839C115.016 37.6905 115.082 37.7268 115.138 37.7466C115.194 37.7664 115.253 37.7962 115.306 37.816C115.528 37.9051 115.726 37.9844 115.894 38.0472C116.072 38.1317 116.261 38.1885 116.456 38.2156C116.302 38.0935 116.131 37.9965 115.947 37.9283C115.785 37.849 115.59 37.7598 115.372 37.6607L115.207 37.5881C115.146 37.5575 115.083 37.531 115.019 37.5088C114.969 37.4941 114.917 37.4941 114.867 37.5088C114.821 37.5287 114.781 37.5607 114.751 37.6013C114.704 37.6606 114.665 37.7262 114.636 37.7962C114.58 37.9271 114.554 38.0688 114.56 38.2111C114.566 38.3533 114.603 38.4925 114.669 38.6185C114.723 38.7201 114.798 38.8098 114.887 38.8824C114.977 38.955 115.08 39.009 115.191 39.0413C115.336 39.0818 115.491 39.0818 115.637 39.0413C115.726 39.0215 115.775 38.9885 115.769 38.9785Z" fill="#263238"/>
<path d="M135.156 127.899L137.564 134.881C137.564 134.881 145.467 134.782 146.038 136.027L132.666 141.182L128.471 130.455L135.156 127.899Z" fill="#FCC62D"/>
<path d="M133.204 135.898C133.09 135.987 133.014 136.115 132.989 136.257C132.964 136.399 132.992 136.545 133.069 136.668C133.153 136.784 133.279 136.864 133.42 136.89C133.561 136.917 133.707 136.888 133.828 136.81C133.948 136.715 134.029 136.579 134.055 136.429C134.081 136.278 134.051 136.123 133.97 135.994C133.869 135.881 133.729 135.812 133.578 135.801C133.427 135.79 133.277 135.838 133.161 135.934" fill="#E0E0E0"/>
<g opacity="0.6">
<path d="M132.666 141.183L132.286 140.086L145.249 135.568C145.249 135.568 145.946 135.598 146.039 136.044L132.666 141.183Z" fill="white"/>
</g>
<path d="M137.752 134.729C137.775 134.795 137.461 134.95 137.22 135.284C136.979 135.618 136.916 135.944 136.844 135.944C136.771 135.944 136.728 135.528 137.025 135.129C137.323 134.729 137.745 134.663 137.752 134.729Z" fill="#263238"/>
<path d="M139.38 134.769C139.42 134.828 139.179 135.046 139.05 135.409C138.921 135.773 138.984 136.086 138.918 136.11C138.852 136.133 138.667 135.779 138.819 135.33C138.971 134.881 139.354 134.706 139.38 134.769Z" fill="#263238"/>
<path d="M140.823 136.139C140.767 136.179 140.553 135.885 140.582 135.479C140.612 135.073 140.863 134.795 140.913 134.838C140.962 134.881 140.843 135.145 140.823 135.499C140.804 135.852 140.886 136.11 140.823 136.139Z" fill="#263238"/>
<path d="M137.029 133.2C137.029 133.269 136.698 133.296 136.332 133.461C135.965 133.626 135.727 133.857 135.671 133.814C135.615 133.771 135.803 133.431 136.229 133.239C136.655 133.048 137.042 133.134 137.029 133.2Z" fill="#263238"/>
<path d="M86.0965 126.981L85.9479 127.176L83.0514 130.944L79.4679 133.401L84.2668 142.649H89.5512C89.5512 142.649 89.1714 141.377 86.6283 140.72L86.4599 135.647L91.0243 130.634" fill="#FCC62D"/>
<g opacity="0.6">
<path d="M79.4679 133.411L84.2668 142.656L89.5512 142.662L88.9567 141.866L84.6598 141.629L80.2308 132.889L79.4679 133.411Z" fill="white"/>
</g>
<path d="M86.5854 138.408C86.5458 138.464 86.2551 138.289 85.8324 138.302C85.4096 138.316 85.1256 138.481 85.0826 138.428C85.0397 138.375 85.3336 138.075 85.829 138.068C86.3245 138.061 86.6448 138.369 86.5854 138.408Z" fill="#263238"/>
<path d="M86.5127 137.15C86.4599 137.19 86.2221 136.876 85.8026 136.793C85.3832 136.711 85.043 136.902 85.01 136.849C84.9769 136.797 85.0529 136.737 85.2015 136.655C85.401 136.553 85.6291 136.521 85.8486 136.566C86.0681 136.61 86.2661 136.728 86.4103 136.899C86.516 137.031 86.5358 137.137 86.5127 137.15Z" fill="#263238"/>
<path d="M86.5457 135.535C86.4896 135.565 86.3079 135.258 85.9413 135.132C85.5747 135.007 85.2411 135.132 85.2147 135.063C85.1883 134.993 85.2675 134.964 85.4161 134.908C85.6107 134.839 85.8227 134.839 86.0173 134.908C86.2124 134.977 86.3787 135.109 86.4895 135.284C86.5853 135.423 86.5853 135.522 86.5457 135.535Z" fill="#263238"/>
<path d="M87.9626 134.283C87.8998 134.303 87.7512 134.002 87.4242 133.791C87.0973 133.579 86.7637 133.546 86.7637 133.48C86.7637 133.414 87.1534 133.328 87.553 133.596C87.9527 133.864 88.0253 134.273 87.9626 134.283Z" fill="#263238"/>
<g opacity="0.6">
<path d="M83.6856 133.256C83.6856 133.38 83.6488 133.501 83.5798 133.604C83.5109 133.708 83.4129 133.788 83.2982 133.835C83.1835 133.883 83.0574 133.895 82.9356 133.871C82.8139 133.847 82.7021 133.787 82.6143 133.699C82.5266 133.612 82.4668 133.5 82.4426 133.378C82.4184 133.256 82.4308 133.13 82.4783 133.016C82.5258 132.901 82.6062 132.803 82.7094 132.734C82.8126 132.665 82.934 132.628 83.0581 132.628C83.2245 132.628 83.3841 132.694 83.5018 132.812C83.6195 132.93 83.6856 133.089 83.6856 133.256Z" fill="white"/>
</g>
<path d="M103.694 88.9327L120.033 112.878L128.864 133.817L136.345 129.818L128.782 108.848L117.671 86.8223L103.694 88.9327Z" fill="#263238"/>
<path d="M96.9462 86.8223L94.2214 106.097L83.0679 130.419L89.7098 134.283L103.895 110.176L111.769 86.8223H96.9462Z" fill="#263238"/>
<path d="M89.7098 134.283C89.7249 134.242 89.7449 134.203 89.7692 134.167C89.8122 134.085 89.8749 133.973 89.9542 133.837C90.1226 133.537 90.367 133.107 90.6775 132.562C91.3182 131.449 92.2364 129.854 93.3725 127.889L102.316 112.508L103.984 109.648V109.664L108.889 94.8975C109.51 93.048 110.012 91.5584 110.362 90.5214L110.765 89.3423L110.874 89.0384C110.885 89.003 110.899 88.9687 110.917 88.936C110.91 88.9728 110.901 89.0092 110.89 89.045L110.795 89.3522L110.418 90.5412L108.998 94.9339C107.773 98.666 106.068 103.851 104.146 109.72L102.478 112.581C98.9707 118.575 95.7935 123.998 93.4915 127.938C92.3355 129.89 91.4008 131.476 90.7501 132.582C90.4199 133.12 90.1722 133.543 89.9971 133.84L89.7957 134.171C89.7698 134.21 89.7411 134.248 89.7098 134.283V134.283Z" fill="#455A64"/>
<path d="M118.708 76.3856L118.157 68.1122L116.063 48.606L116.806 44.5403L108.549 41.2375L107.558 43.2192C102.604 43.9656 100.513 53.7517 100.513 53.7517L100.341 73.6509L94.8423 87.1394L96.2691 88.3978C98.5249 89.7519 119.54 88.8998 119.54 88.8998L118.708 76.3856Z" fill="#FCC62D"/>
<g opacity="0.3">
<path d="M96.9462 81.964C98.3868 83.7868 100.064 85.4096 101.933 86.7893C102.961 87.5588 104.176 88.2887 105.441 88.0873C106.706 87.8858 107.574 86.8818 108.377 85.9339L112.892 80.6098C113.176 80.3302 113.378 79.9785 113.477 79.5926C113.499 79.338 113.452 79.0821 113.341 78.8522C113.229 78.6224 113.057 78.4273 112.842 78.288C112.411 78.012 111.917 77.8495 111.406 77.8157C108.235 77.4392 105.13 79.0146 101.943 79.041C100.853 79.041 99.0765 78.8329 98.046 79.1929L96.9462 81.964Z" fill="black"/>
</g>
<path d="M113.965 68.9807C114.783 69.7829 115.293 70.8473 115.404 71.9874C115.516 73.1276 115.223 74.2706 114.576 75.2163L111.752 79.3481L107.654 84.7052C107.376 85.0671 107.024 85.3658 106.622 85.5814C106.219 85.7971 105.776 85.9248 105.321 85.956C104.865 85.9872 104.408 85.9213 103.98 85.7626C103.552 85.6039 103.163 85.356 102.838 85.0355L84.148 70.6354C83.5752 70.1943 83.1956 69.5484 83.0891 68.8333C82.9825 68.1183 83.1573 67.3898 83.5766 66.8009L91.1729 56.1065C91.3854 55.8062 91.6551 55.5508 91.9665 55.355C92.278 55.1592 92.625 55.0268 92.9877 54.9654C93.3504 54.9041 93.7217 54.9149 94.0802 54.9974C94.4387 55.0798 94.7774 55.2323 95.0768 55.4459L113.965 68.9807Z" fill="#455A64"/>
<path d="M104.285 85.8445C104.296 85.8091 104.313 85.7757 104.334 85.7454L104.5 85.4647C104.648 85.2203 104.873 84.8636 105.16 84.4078C105.751 83.4996 106.627 82.1917 107.71 80.5832C108.793 78.9748 110.098 77.0691 111.511 74.9289C111.881 74.3913 112.212 73.8284 112.502 73.2445C112.644 72.9498 112.716 72.6267 112.714 72.2999C112.688 71.9693 112.564 71.6539 112.357 71.3949C111.941 70.8599 111.317 70.49 110.739 70.0738L108.952 68.8056L96.606 60.0004L92.8904 57.2921L91.8698 56.5688L91.6089 56.3739C91.5527 56.3277 91.523 56.3046 91.5263 56.3013C91.5585 56.3188 91.5894 56.3387 91.6188 56.3607L91.8896 56.5391L92.9168 57.2525L96.6786 59.8947L109.054 68.6569L110.841 69.9285C111.416 70.3545 112.046 70.7212 112.492 71.2958C112.718 71.5798 112.852 71.9251 112.879 72.2867C112.883 72.6406 112.806 72.9907 112.654 73.3105C112.355 73.9 112.017 74.4683 111.64 75.0115C110.22 77.1516 108.902 79.0474 107.809 80.6493C105.616 83.8464 104.285 85.8445 104.285 85.8445Z" fill="#263238"/>
<path d="M111.379 43.883C111.379 43.883 106.072 41.0757 98.0558 53.7913L99.476 55.4427C99.476 55.4427 106.171 43.6717 110.593 45.0951C115.016 46.5186 108.522 65.0736 108.522 65.0736C108.522 65.0736 118.252 46.5781 111.379 43.883Z" fill="#263238"/>
<path d="M93.6467 58.1906C92.545 59.302 91.8532 60.7545 91.6846 62.3103C91.516 63.8661 91.8806 65.4331 92.7186 66.7547C92.7813 66.8505 92.8408 66.9396 92.9035 67.0255L100.127 78.2351L106.171 74.5096L100.308 63.8978C100.308 63.8978 103.03 61.0904 105.989 57.933C109.976 53.6757 114.22 48.454 111.178 45.4551C111.178 45.4551 109.107 43.8037 105.92 46.2775C103.614 48.0445 97.0848 54.6665 93.6467 58.1906Z" fill="#FCC62D"/>
<path d="M131.678 50.2211L134.826 49.4383C134.826 49.4383 135.674 50.2013 135.235 50.9906C134.796 51.78 134.056 53.7716 134.056 53.7716L131.622 54.5576L130.935 56.5393L126.747 54.7525L127.87 51.0369L130.218 48.1304L131.989 47.8596L133.181 48.8703C133.181 48.8703 132.19 49.5936 131.529 48.8141L130.717 49.1279L130.79 49.6167C130.805 49.7162 130.841 49.8114 130.895 49.8965C130.949 49.9816 131.02 50.0547 131.103 50.1113C131.186 50.168 131.28 50.2069 131.379 50.2258C131.478 50.2447 131.58 50.2431 131.678 50.2211Z" fill="#FFBE9D"/>
<path d="M134.806 49.5669L136.863 48.5761C136.995 48.5352 137.135 48.5274 137.27 48.5533C137.405 48.5792 137.532 48.6381 137.64 48.7247L137.742 48.9394L135.278 50.5512L134.806 49.5669Z" fill="#FFBE9D"/>
<path d="M130.479 52.7741C130.526 52.5914 130.597 52.4159 130.691 52.2522C130.89 51.8577 130.998 51.4228 131.004 50.9807C130.997 50.7429 130.935 50.51 130.823 50.3003C130.767 50.2021 130.719 50.0994 130.681 49.9931C130.649 49.8961 130.636 49.7943 130.641 49.6926C130.63 49.5006 130.654 49.3083 130.71 49.1245C130.75 49.309 130.767 49.4974 130.763 49.686C130.777 49.8806 130.845 50.0674 130.961 50.2243C131.095 50.452 131.169 50.71 131.176 50.9741C131.17 51.4401 131.04 51.8961 130.799 52.2952C130.722 52.4728 130.614 52.6351 130.479 52.7741V52.7741Z" fill="#EB996E"/>
<path d="M139.793 45.2637C139.823 45.3231 140.249 45.9573 140.249 45.9573L130.862 52.8666L130.274 52.1169L139.793 45.2637Z" fill="#263238"/>
<path d="M134.01 53.6328C134.049 53.5754 134.076 53.5106 134.089 53.4425C134.102 53.3744 134.102 53.3043 134.087 53.2365C134.073 53.1686 134.044 53.1044 134.005 53.0476C133.965 52.9909 133.914 52.9428 133.855 52.9062C133.609 52.7667 133.327 52.7024 133.045 52.7213C132.586 52.6936 132.125 52.7191 131.672 52.7972C131.52 52.8181 131.377 52.8772 131.255 52.969C131.195 53.0151 131.151 53.0782 131.127 53.1501C131.104 53.222 131.102 53.2993 131.123 53.3719C131.189 53.547 131.397 53.6097 131.576 53.6461C132.063 53.7422 132.559 53.781 133.055 53.7617" fill="#FFBE9D"/>
<path d="M133.055 53.7615C132.766 53.8256 132.467 53.8368 132.174 53.7946C132.035 53.7946 131.886 53.7714 131.728 53.745C131.546 53.7328 131.369 53.6822 131.209 53.5964C131.16 53.5653 131.119 53.5242 131.088 53.4758C131.056 53.4273 131.036 53.3727 131.027 53.3157C131.015 53.1973 131.049 53.0788 131.123 52.9854C131.276 52.8208 131.484 52.7194 131.708 52.7014C132.098 52.6359 132.495 52.6148 132.89 52.6386C133.221 52.615 133.552 52.6812 133.848 52.8302C133.948 52.8916 134.027 52.9802 134.078 53.0855C134.129 53.1908 134.149 53.3085 134.135 53.4247C134.106 53.5898 134.013 53.6393 134.01 53.6327C134.007 53.6261 134.063 53.5601 134.069 53.4181C134.069 53.3193 134.042 53.2224 133.992 53.1372C133.943 53.0519 133.871 52.9813 133.785 52.9325C133.502 52.8129 133.193 52.7663 132.887 52.7971C132.503 52.7847 132.12 52.809 131.741 52.8698C131.56 52.8837 131.389 52.9609 131.259 53.0878C131.233 53.1135 131.214 53.1446 131.202 53.1788C131.19 53.213 131.185 53.2494 131.189 53.2854C131.193 53.3215 131.205 53.3562 131.224 53.3872C131.242 53.4181 131.268 53.4444 131.298 53.4643C131.439 53.5395 131.592 53.5877 131.751 53.6063C131.906 53.636 132.051 53.6592 132.183 53.6757C132.718 53.7417 133.055 53.7351 133.055 53.7615Z" fill="#EB996E"/>
<path d="M134.806 51.7105C134.056 51.5289 133.521 51.4529 132.771 51.2679C132.533 51.1823 132.274 51.1754 132.031 51.2481C131.797 51.3439 131.652 51.6709 131.823 51.8558C131.888 51.9176 131.966 51.964 132.051 51.9913L134.291 52.8698" fill="#FFBE9D"/>
<path d="M134.284 52.8698C133.984 52.804 133.691 52.7111 133.409 52.5924L132.494 52.2456L131.942 52.0309C131.882 52.0091 131.828 51.9736 131.784 51.9272C131.739 51.8807 131.707 51.8247 131.688 51.7634C131.673 51.7 131.671 51.6341 131.682 51.5699C131.694 51.5057 131.718 51.4445 131.754 51.3902C131.819 51.2818 131.919 51.199 132.038 51.1557C132.144 51.1204 132.257 51.1059 132.368 51.1127C132.567 51.1373 132.764 51.1771 132.956 51.2316L133.924 51.4562C134.226 51.509 134.522 51.5942 134.806 51.7105C134.5 51.6882 134.196 51.6429 133.898 51.5751C133.62 51.5256 133.287 51.4694 132.907 51.3869C132.723 51.337 132.535 51.3017 132.345 51.2812C132.256 51.2671 132.165 51.2786 132.082 51.3142C131.999 51.3499 131.927 51.4083 131.876 51.4827C131.831 51.5532 131.815 51.6382 131.83 51.7205C131.843 51.7575 131.864 51.791 131.893 51.8185C131.921 51.8459 131.955 51.8666 131.992 51.879L132.53 52.097L133.448 52.4768C133.739 52.58 134.019 52.7116 134.284 52.8698V52.8698Z" fill="#EB996E"/>
<path d="M135.281 50.5414L133.253 50.1748C133.009 50.1039 132.749 50.1132 132.51 50.2012C132.286 50.3135 132.164 50.6471 132.345 50.8222C132.414 50.8784 132.494 50.919 132.58 50.9411L134.872 51.6776" fill="#FFBE9D"/>
<path d="M134.872 51.6776C134.569 51.6333 134.272 51.5603 133.983 51.4596L133.035 51.1756L132.474 51.0005C132.412 50.9832 132.355 50.9523 132.307 50.91C132.259 50.8677 132.221 50.8151 132.197 50.7561C132.176 50.6944 132.169 50.6292 132.174 50.5644C132.18 50.4997 132.199 50.4368 132.23 50.3796C132.285 50.2654 132.378 50.1743 132.494 50.122C132.597 50.0743 132.71 50.0506 132.824 50.0526C133.024 50.0585 133.224 50.0851 133.419 50.1319L134.39 50.3267C134.692 50.3731 134.989 50.4471 135.278 50.548C134.973 50.5431 134.669 50.5089 134.37 50.4456L133.379 50.2871C133.193 50.2471 133.004 50.225 132.814 50.2211C132.725 50.2128 132.636 50.2306 132.557 50.2722C132.477 50.3139 132.412 50.3775 132.368 50.4556C132.147 50.8585 132.755 50.8882 133.069 51.0236L134.006 51.3539C134.304 51.4352 134.594 51.5435 134.872 51.6776V51.6776Z" fill="#EB996E"/>
<path d="M131.173 56.2518L125.063 69.3044C124.778 69.9146 124.343 70.4429 123.799 70.8402C123.255 71.2374 122.619 71.4908 121.951 71.5767C121.094 71.686 120.225 71.5147 119.474 71.0883C118.722 70.662 118.129 70.0036 117.783 69.2119L113.226 58.7751L115.815 47.5127L121.925 60.6478L126.932 53.5535L131.173 56.2518Z" fill="#FCC62D"/>
<path d="M120.141 65.0538C120.347 64.2646 120.611 63.4918 120.931 62.7418C121.194 61.9754 121.511 61.2283 121.879 60.5059C121.673 61.2949 121.409 62.0676 121.089 62.8178C120.826 63.5842 120.509 64.3314 120.141 65.0538V65.0538Z" fill="#263238"/>
<path d="M118.787 76.2469C118.769 76.1553 118.757 76.0626 118.751 75.9694C118.735 75.7712 118.708 75.5004 118.678 75.1635C118.616 74.4435 118.53 73.4329 118.424 72.191C118.206 69.6677 117.906 66.2097 117.575 62.3917C117.245 58.5737 116.885 55.1025 116.608 52.599C116.466 51.3605 116.35 50.3531 116.277 49.6265C116.238 49.2963 116.205 49.0188 116.181 48.8207C116.166 48.7268 116.159 48.6317 116.162 48.5366C116.162 48.5366 116.185 48.6324 116.218 48.8141C116.251 48.9957 116.29 49.2797 116.343 49.6166C116.446 50.3135 116.584 51.3242 116.736 52.5726C117.043 55.0728 117.397 58.5341 117.754 62.362C118.11 66.1899 118.371 69.6578 118.553 72.1679C118.635 73.4131 118.705 74.427 118.751 75.1404C118.771 75.4707 118.784 75.7514 118.794 75.9529C118.802 76.0509 118.8 76.1494 118.787 76.2469V76.2469Z" fill="#263238"/>
<path d="M104.899 75.2593L105.695 76.9107C105.695 76.9107 107.274 77.0989 107.928 77.4028C108.582 77.7066 110.93 79.751 110.93 79.751C110.852 79.9136 110.719 80.0437 110.555 80.119C110.391 80.1944 110.206 80.2102 110.032 80.1639C109.513 79.8706 109.016 79.5394 108.545 79.1731V79.1731C108.415 79.1951 108.293 79.2494 108.189 79.3307C108.085 79.4121 108.003 79.5182 107.951 79.6392C107.898 79.7602 107.877 79.8925 107.889 80.0239C107.9 80.1553 107.944 80.2817 108.017 80.3918C108.486 81.092 109.024 81.9078 109.077 82.0432C109.13 82.1786 110.167 82.6112 110.947 82.9217C111.047 82.9655 111.131 83.0397 111.188 83.1339C111.244 83.228 111.269 83.3374 111.26 83.4467C111.251 83.5559 111.208 83.6596 111.137 83.7432C111.066 83.8267 110.97 83.8859 110.864 83.9125C110.819 83.9261 110.77 83.9261 110.725 83.9125C110.725 83.9125 111.102 84.7052 109.734 84.4773C109.734 84.4773 108.829 85.0949 108.126 84.7151C108.126 84.7151 106.835 85.0057 106.263 84.8142C105.692 84.6226 103.324 81.2835 103.324 81.2835L101.263 77.5514L104.899 75.2593Z" fill="#FFBE9D"/>
<path d="M107.039 81.2473C107.097 81.4795 107.188 81.702 107.31 81.9079C107.554 82.4452 107.922 82.9171 108.384 83.2851C108.872 83.606 109.435 83.7938 110.018 83.8301C110.253 83.8668 110.491 83.8668 110.725 83.8301C110.501 83.7645 110.269 83.7257 110.035 83.7145C109.485 83.6406 108.959 83.4467 108.493 83.1464C108.055 82.7944 107.693 82.3588 107.426 81.8649C107.321 81.6448 107.192 81.4375 107.039 81.2473V81.2473Z" fill="#EB996E"/>
<path d="M106.366 82.0167C106.386 82.2391 106.46 82.4532 106.58 82.641C106.689 82.8541 106.813 83.0584 106.954 83.252C107.121 83.4993 107.337 83.7105 107.588 83.8729C107.847 84.0053 108.121 84.1073 108.403 84.1768L109.064 84.3518C109.269 84.4223 109.482 84.4634 109.698 84.474C109.514 84.362 109.313 84.2785 109.104 84.2263C108.915 84.1602 108.691 84.0843 108.443 84.0083C108.176 83.9345 107.917 83.8338 107.67 83.7078C107.441 83.5582 107.241 83.3665 107.082 83.143C106.939 82.9618 106.806 82.7721 106.686 82.5749C106.481 82.238 106.402 82.0101 106.366 82.0167Z" fill="#EB996E"/>
<path d="M105.656 82.9678C105.596 83.0107 106.016 83.6085 106.567 84.2889C106.645 84.3829 106.746 84.4547 106.861 84.497C106.954 84.5394 107.05 84.5758 107.148 84.606C107.312 84.658 107.48 84.6956 107.65 84.7183C107.941 84.7546 108.126 84.7183 108.123 84.6951C108.119 84.672 107.948 84.6555 107.674 84.5861C107.514 84.5477 107.358 84.4992 107.205 84.4408C107.113 84.4102 107.024 84.3738 106.937 84.3318C106.851 84.2976 106.774 84.2432 106.712 84.1733C106.435 83.8232 106.174 83.5127 105.983 83.3047C105.791 83.0966 105.675 82.9579 105.656 82.9678Z" fill="#EB996E"/>
<path d="M115.319 44.0251C115.281 44.5735 115.199 45.1179 115.075 45.6534C115.006 46.2005 114.896 46.7415 114.745 47.2718C114.721 46.7172 114.771 46.1619 114.893 45.6204C114.965 45.0724 115.109 44.5361 115.319 44.0251V44.0251Z" fill="#263238"/>
<path d="M112.78 45.0257C112.791 44.7065 112.861 44.3921 112.984 44.0976C113.056 43.7861 113.182 43.4897 113.358 43.2224C113.342 43.5414 113.272 43.8553 113.15 44.1505C113.08 44.4622 112.955 44.7587 112.78 45.0257V45.0257Z" fill="#263238"/>
<path d="M110.91 44.1075C110.966 43.8146 111.078 43.5354 111.241 43.2851C111.35 43.0084 111.513 42.7559 111.719 42.542C111.665 42.8352 111.552 43.1147 111.389 43.3644C111.278 43.6401 111.115 43.8923 110.91 44.1075Z" fill="#263238"/>
<path d="M108.456 43.8237C108.63 43.4645 108.852 43.131 109.117 42.8329C109.337 42.4998 109.602 42.1996 109.906 41.9412C109.735 42.3017 109.513 42.6355 109.246 42.932C109.026 43.2651 108.76 43.5653 108.456 43.8237V43.8237Z" fill="#263238"/>
<path d="M100.341 64.0035C100.152 63.8803 99.9685 63.7469 99.7931 63.6039C98.9046 62.9804 97.8359 62.6659 96.7513 62.7089C96.5321 62.7355 96.3114 62.7476 96.0907 62.7452C96.2994 62.6526 96.5233 62.5989 96.7513 62.5866C97.3066 62.5323 97.8672 62.585 98.4026 62.7419C98.9375 62.8998 99.4366 63.16 99.8724 63.5081C100.058 63.6429 100.217 63.8108 100.341 64.0035V64.0035Z" fill="#263238"/>
<path d="M98.5678 59.7825C98.7687 59.9085 98.9472 60.067 99.0963 60.2515C99.8698 61.109 100.354 62.1882 100.48 63.3363C100.521 63.5701 100.521 63.8092 100.48 64.043C100.33 62.4515 99.6588 60.954 98.5711 59.7825H98.5678Z" fill="#263238"/>
<path d="M106.194 74.4303C106.145 74.368 106.102 74.3017 106.065 74.2322L105.718 73.641L104.46 71.4347C103.4 69.5422 101.933 66.9264 100.275 63.9738L100.246 63.9176L100.289 63.8714L101.57 62.5239L108.351 55.4262L110.418 53.286L110.986 52.7113C111.051 52.6428 111.121 52.5787 111.194 52.5198C111.139 52.5964 111.078 52.6693 111.013 52.7378L110.468 53.3323L108.436 55.5088C106.703 57.3451 104.325 59.8618 101.696 62.6395L100.411 63.9903V63.8912C102.062 66.8637 103.499 69.4795 104.546 71.3786C105.054 72.3166 105.467 73.0729 105.761 73.6113L106.092 74.2157C106.133 74.2836 106.167 74.3556 106.194 74.4303V74.4303Z" fill="#263238"/>
<g opacity="0.3">
<path d="M103.03 61.1103L105.388 62.8013C105.723 62.6248 106.015 62.3768 106.243 62.0747C108.016 59.5966 109.31 56.8099 110.061 53.8574L103.03 61.1103Z" fill="black"/>
</g>
<path d="M106.435 57.3981C106.393 56.9583 106.262 56.5315 106.052 56.143C105.813 55.7318 105.495 55.3716 105.117 55.0828C104.647 54.7328 104.13 54.4515 103.581 54.2472C103 54.0127 102.422 53.8509 101.907 53.6428C101.439 53.4751 101.017 53.2002 100.675 52.8402C100.445 52.5934 100.289 52.2866 100.226 51.9551C100.194 51.836 100.194 51.7109 100.226 51.5918C100.226 51.5918 100.226 51.7239 100.289 51.9419C100.375 52.2491 100.537 52.5297 100.761 52.7577C101.101 53.0909 101.512 53.3436 101.963 53.4975C102.465 53.6924 103.05 53.8476 103.641 54.0854C104.205 54.2972 104.735 54.591 105.213 54.9573C105.602 55.2639 105.923 55.6487 106.154 56.0869C106.31 56.3817 106.409 56.7033 106.445 57.0348C106.464 57.1554 106.461 57.2786 106.435 57.3981Z" fill="#F5F5F5"/>
<path d="M117.235 58.871C117.087 58.8702 116.939 58.8603 116.793 58.8413C116.396 58.8116 115.997 58.8116 115.6 58.8413C115.095 58.8776 114.5 58.9635 113.837 59.0658C113.114 59.1896 112.383 59.2602 111.65 59.2772C110.907 59.2962 110.168 59.1519 109.487 58.8545C108.935 58.5941 108.461 58.1932 108.113 57.6919C107.878 57.3537 107.733 56.9618 107.69 56.5524C107.678 56.4427 107.678 56.3319 107.69 56.2222C107.69 56.1462 107.69 56.1099 107.71 56.1099C107.73 56.1099 107.71 56.2684 107.756 56.5458C107.823 56.9356 107.98 57.3044 108.215 57.6225C108.561 58.0941 109.023 58.4684 109.556 58.7091C110.218 58.9895 110.932 59.1235 111.65 59.1022C112.375 59.0879 113.098 59.0228 113.813 58.9073C114.474 58.8148 115.082 58.7389 115.594 58.7191C115.996 58.6988 116.4 58.7153 116.799 58.7686C116.948 58.7824 117.095 58.8168 117.235 58.871V58.871Z" fill="#F5F5F5"/>
<path d="M119.451 55.7927C119.204 56.2422 118.863 56.6331 118.451 56.9387C118.039 57.2442 117.565 57.4571 117.063 57.563C117.063 57.5134 117.691 57.2921 118.348 56.8C119.005 56.3079 119.408 55.7629 119.451 55.7927Z" fill="#F5F5F5"/>
<path d="M120.393 58.0188C120.049 58.5721 119.598 59.0511 119.067 59.4277C118.535 59.8043 117.934 60.0709 117.298 60.2118C117.869 59.9349 118.422 59.6216 118.953 59.2739C119.46 58.8876 119.941 58.4684 120.393 58.0188V58.0188Z" fill="#F5F5F5"/>
<path d="M117.664 62.5766C117.072 62.2488 116.419 62.0453 115.746 61.9788C115.012 61.9194 114.276 61.9194 113.543 61.9788C112.637 62.0544 111.726 62.0478 110.821 61.959C109.172 61.7775 107.577 61.2604 106.134 60.4397C105.7 60.1915 105.283 59.9146 104.886 59.6107C104.737 59.5038 104.597 59.3833 104.47 59.2507C104.629 59.3416 104.782 59.4442 104.926 59.5579C105.335 59.8377 105.758 60.0967 106.194 60.334C107.634 61.114 109.21 61.6086 110.838 61.7906C111.735 61.8759 112.637 61.8858 113.536 61.8203C114.276 61.7658 115.02 61.7757 115.759 61.85C116.26 61.9075 116.749 62.0505 117.202 62.2728C117.324 62.3322 117.441 62.4018 117.552 62.4808C117.631 62.5337 117.668 62.5766 117.664 62.5766Z" fill="#F5F5F5"/>
<path d="M105.081 58.5275C105.066 58.6062 105.042 58.6827 105.008 58.7554L104.985 58.8182L104.959 58.7554C104.733 58.2817 104.358 57.8953 103.892 57.6556C103.533 57.4627 103.153 57.312 102.759 57.2064C102.333 57.0776 101.861 56.9686 101.385 56.7969C100.371 56.4264 99.4705 55.8007 98.7693 54.9804C98.5589 54.7346 98.3709 54.4704 98.2078 54.191C98.139 54.0898 98.0866 53.9783 98.0526 53.8607C98.079 53.8409 98.3168 54.2934 98.8617 54.8912C99.5726 55.6694 100.459 56.2662 101.448 56.6318C101.91 56.8002 102.379 56.9125 102.812 57.0479C103.215 57.1607 103.602 57.3238 103.965 57.5334C104.448 57.7921 104.82 58.2184 105.011 58.7323H104.962C105.035 58.5903 105.081 58.5242 105.081 58.5275Z" fill="#F5F5F5"/>
<path d="M152 142.662C152 142.709 117.981 142.748 76.0033 142.748C34.0251 142.748 0 142.709 0 142.662C0 142.616 34.0185 142.576 76.0033 142.576C117.988 142.576 152 142.616 152 142.662Z" fill="#263238"/>
</svg>
