<svg width="676" height="506" viewBox="0 0 676 506" fill="none" xmlns="http://www.w3.org/2000/svg">
<path d="M148.998 383.266L147.319 477.003L0.212933 477.354L0 382.352L148.998 383.266Z" fill="#EBEBEB"/>
<path d="M62.3371 477.091C62.1367 477.091 62.3371 456.162 62.8256 430.348C63.3141 404.534 63.8151 383.617 64.003 383.629C64.1909 383.642 64.003 404.546 63.5145 430.36C63.026 456.174 62.525 477.091 62.3371 477.091Z" fill="#E0E0E0"/>
<path d="M0.212891 477.354C0.391271 477.011 0.592104 476.681 0.814087 476.365L2.63021 473.622L9.45636 463.602L32.1642 430.598C41.032 417.735 49.0104 406.062 54.7093 397.545C57.565 393.299 59.8195 389.817 61.3726 387.424C62.1116 386.26 62.7003 385.32 63.1387 384.644C63.3304 384.307 63.5526 383.988 63.8025 383.692C63.6417 384.04 63.462 384.378 63.2639 384.706L61.5981 387.562C60.1201 390.067 57.9157 393.524 55.1226 397.82C49.5365 406.4 41.6207 418.123 32.7404 430.999C23.8602 443.875 15.769 455.448 9.86969 463.815L2.86819 473.722L0.939335 476.39C0.725932 476.732 0.482852 477.055 0.212891 477.354Z" fill="#E0E0E0"/>
<path d="M62.3371 477.091C62.083 476.804 61.8566 476.494 61.6607 476.164L59.8321 473.446L53.1813 463.426L31.1122 430.46C22.4574 417.597 14.6918 405.911 9.18082 397.382C6.43784 393.111 4.1708 389.641 2.73042 387.236L1.0145 384.443C0.798733 384.13 0.610163 383.799 0.450867 383.454C0.702398 383.738 0.928703 384.044 1.12722 384.368L2.95587 387.086C4.55908 389.503 6.81359 392.923 9.59415 397.106L31.6758 430.072C40.3306 442.935 48.0836 454.621 53.5946 463.163C56.3501 467.422 58.6046 470.891 60.0575 473.309L61.7734 476.089C61.9851 476.409 62.1735 476.744 62.3371 477.091Z" fill="#E0E0E0"/>
<path d="M77.5238 466.452L101.142 466.876L101.229 462.042L77.6107 461.618L77.5238 466.452Z" fill="#E0E0E0"/>
<path d="M78.7198 457.715C82.5572 457.342 86.4137 457.204 90.2679 457.301C94.1235 457.165 97.9838 457.257 101.829 457.577C97.9907 457.942 94.1346 458.08 90.2805 457.99C86.4249 458.126 82.5646 458.034 78.7198 457.715Z" fill="#E0E0E0"/>
<path d="M110.12 382.727L109.469 418.912L104.371 414.867L97.7579 418.699L98.4092 382.515L110.12 382.727Z" fill="#E0E0E0"/>
<path d="M131.35 312.262L130.073 383.805L17.8106 384.068L17.6353 311.56L131.35 312.262Z" fill="#F5F5F5"/>
<path d="M65.2179 383.867C65.0676 383.867 65.2179 367.898 65.5936 348.196C65.9694 328.494 66.3451 312.537 66.4954 312.537C66.6457 312.537 66.4954 328.507 66.1197 348.209C65.7439 367.91 65.3556 383.867 65.2179 383.867Z" fill="#E0E0E0"/>
<path d="M17.8106 384.068C17.9412 383.806 18.092 383.555 18.2615 383.316C18.6122 382.799 19.0756 382.097 19.6518 381.212C20.9043 379.371 22.6828 376.766 24.8622 373.572C29.3211 367.096 35.4333 358.229 42.1968 348.434C48.9604 338.639 55.0476 329.647 59.3937 323.209C61.5606 319.952 63.289 317.309 64.4789 315.481L65.8191 313.351C65.9738 313.101 66.141 312.859 66.3201 312.625C66.2022 312.898 66.0641 313.162 65.9068 313.414L64.6543 315.581C63.527 317.447 61.8486 320.14 59.7194 323.409C55.4483 329.96 49.4113 338.915 42.6352 348.735C35.8592 358.554 29.6718 367.384 25.1753 373.785L19.8397 381.3C19.2134 382.151 18.7249 382.84 18.3617 383.341C18.1993 383.599 18.0149 383.842 17.8106 384.068Z" fill="#E0E0E0"/>
<path d="M65.2178 383.867C65.0195 383.652 64.8433 383.417 64.6918 383.166L63.3015 381.087C62.049 379.246 60.3581 376.64 58.2289 373.446L41.3451 348.284C34.7444 338.477 28.8201 329.496 24.6117 323.033C22.52 319.777 20.8542 317.134 19.6893 315.293L18.4368 313.163C18.1487 312.675 17.9985 312.412 18.011 312.412C18.2062 312.627 18.3783 312.862 18.5245 313.113L19.9273 315.18C21.1798 317.034 22.8707 319.626 24.9373 322.833L41.796 347.996C48.3967 357.803 54.3211 366.721 58.517 373.234C60.6212 376.49 62.2745 379.145 63.4518 380.987L64.7669 383.103C64.9349 383.347 65.0855 383.602 65.2178 383.867Z" fill="#E0E0E0"/>
<path d="M77.6402 375.232L95.6638 375.593L95.7377 371.898L77.7141 371.538L77.6402 375.232Z" fill="#E0E0E0"/>
<path d="M77.6677 369.075C80.5817 368.801 83.5091 368.696 86.4353 368.762C89.3594 368.666 92.2867 368.737 95.2028 368.975C92.2893 369.257 89.3614 369.361 86.4353 369.288C83.5112 369.399 80.583 369.328 77.6677 369.075Z" fill="#EBEBEB"/>
<path d="M108.655 311.861L108.154 339.479L104.271 336.385L99.2234 339.316L99.7118 311.698L108.655 311.861Z" fill="#E0E0E0"/>
<path d="M143.524 470.591C142.209 466.691 139.746 463.279 136.458 460.803C133.171 458.326 129.212 456.901 125.1 456.713L121.656 267.147H138.239V269.977H141.357V263.189H115.593C115.593 263.189 118.662 403.043 120.892 456.901C119.783 457.081 118.691 457.344 117.623 457.69C113.503 459.077 109.933 461.741 107.43 465.295C104.928 468.849 103.624 473.108 103.707 477.454L44.9648 476.678L46.6431 484.393L104.546 482.803C104.622 483.066 104.684 483.329 104.772 483.604C105.581 486.208 106.903 488.624 108.66 490.71C110.416 492.796 112.572 494.51 115.001 495.75C117.43 496.99 120.082 497.733 122.801 497.933C125.521 498.133 128.253 497.788 130.838 496.917C133.422 496.045 135.806 494.666 137.849 492.86C139.892 491.054 141.554 488.858 142.736 486.4C143.918 483.943 144.597 481.274 144.732 478.55C144.867 475.826 144.457 473.103 143.524 470.541V470.591Z" fill="#E0E0E0"/>
<path d="M56.225 495.678H59.3312L65.3181 483.93L60.3708 484.067L56.225 495.678Z" fill="#E0E0E0"/>
<path d="M537.938 0H479.12V16.2575H537.938V0Z" fill="#EBEBEB"/>
<path d="M588.226 344.138H529.408V360.395H588.226V344.138Z" fill="#EBEBEB"/>
<path d="M523.008 16.245H464.19V32.5025H523.008V16.245Z" fill="#F5F5F5"/>
<path d="M550.789 360.909H508.529V377.166H550.789V360.909Z" fill="#F5F5F5"/>
<path d="M302.642 54.0956H175.939V313.201H302.642V54.0956Z" fill="#EBEBEB"/>
<path d="M239.241 54.0956C239.241 54.0956 213.264 171.631 175.889 179.659C175.889 179.659 190.919 262.111 192.359 313.201H175.939V54.0956H239.241Z" fill="#E0E0E0"/>
<path d="M239.717 54.0956C239.717 54.0956 265.694 171.631 303.118 179.659C303.118 179.659 288.088 262.111 286.66 313.201H303.118V54.0956H239.717Z" fill="#E0E0E0"/>
<path d="M241.608 53.5946H236.986V313.201H241.608V53.5946Z" fill="#FAFAFA"/>
<path d="M206.388 53.5946H205.248V313.201H206.388V53.5946Z" fill="#FAFAFA"/>
<path d="M274.787 53.5946H273.647V313.201H274.787V53.5946Z" fill="#FAFAFA"/>
<path d="M302.642 117.973V119.013L175.939 119.526V118.487L302.642 117.973Z" fill="#FAFAFA"/>
<path d="M302.642 246.881V247.896L175.939 248.409V247.395L302.642 246.881Z" fill="#FAFAFA"/>
<path d="M302.642 181.049H175.939V185.371H302.642V181.049Z" fill="#FAFAFA"/>
<path d="M304.521 315.08H174.111V52.2169H304.521V315.08ZM177.818 311.322H300.764V55.9744H177.868L177.818 311.322Z" fill="#F5F5F5"/>
<path d="M673.421 54.0956H546.718V313.201H673.421V54.0956Z" fill="#EBEBEB"/>
<path d="M610.069 54.0956C610.069 54.0956 584.093 171.631 546.718 179.659C546.718 179.659 561.748 262.111 563.176 313.201H546.718V54.0956H610.069Z" fill="#E0E0E0"/>
<path d="M610.495 54.0956C610.495 54.0956 636.472 171.631 673.859 179.659C673.859 179.659 658.829 262.111 657.389 313.201H673.859V54.0956H610.495Z" fill="#E0E0E0"/>
<path d="M612.374 53.5946H607.752V313.201H612.374V53.5946Z" fill="#FAFAFA"/>
<path d="M577.154 53.5946H576.014V313.201H577.154V53.5946Z" fill="#FAFAFA"/>
<path d="M645.553 53.5946H644.413V313.201H645.553V53.5946Z" fill="#FAFAFA"/>
<path d="M673.421 117.973V119.013L546.718 119.526V118.487L673.421 117.973Z" fill="#FAFAFA"/>
<path d="M673.421 246.881V247.896L546.718 248.409V247.395L673.421 246.881Z" fill="#FAFAFA"/>
<path d="M673.421 181.049H546.718V185.371H673.421V181.049Z" fill="#FAFAFA"/>
<path d="M675.3 315.08H544.852V52.2169H675.3V315.08ZM548.597 311.322H671.542V55.9744H548.609L548.597 311.322Z" fill="#F5F5F5"/>
<path d="M279.434 458.554C274.9 456.427 269.803 455.808 264.892 456.788C262.249 457.226 259.494 458.041 257.703 459.994C255.912 461.948 255.561 465.468 257.627 467.171C258.956 468.076 260.562 468.484 262.162 468.324C266.007 468.324 270.265 467.597 273.346 469.914C275.1 471.242 276.265 473.434 278.356 474.085C279.407 474.321 280.505 474.211 281.489 473.774C282.472 473.336 283.289 472.593 283.817 471.655C284.81 469.722 285.03 467.482 284.431 465.393C284.179 463.946 283.597 462.576 282.73 461.39C281.864 460.204 280.736 459.234 279.434 458.554Z" fill="#EBEBEB"/>
<path d="M289.579 438.977C286.873 442.848 281.613 441.57 279.171 439.203C276.728 436.836 275.701 433.429 274.762 430.172C272.62 422.657 270.453 414.904 272.056 407.314C272.427 404.995 273.437 402.826 274.975 401.052C275.746 400.188 276.73 399.541 277.828 399.174C278.926 398.807 280.102 398.733 281.237 398.96C283.88 399.661 285.533 402.254 286.723 404.734C290.238 412.026 292.078 420.011 292.109 428.106C292.109 431.863 291.683 435.821 289.604 438.927" fill="#EBEBEB"/>
<path d="M297.006 444.526C295.618 442.709 294.694 440.582 294.314 438.327C293.934 436.072 294.11 433.759 294.827 431.588C296.307 427.244 298.96 423.394 302.492 420.466C306.513 416.892 311.193 414.139 316.27 412.362C318.23 411.577 320.336 411.222 322.445 411.322C323.497 411.383 324.518 411.7 325.42 412.246C326.321 412.791 327.076 413.549 327.617 414.453C329.07 417.209 327.68 420.553 326.177 423.221C323.545 428.048 320.529 432.655 317.159 436.999C314.466 440.48 311.372 443.912 307.252 445.491C303.131 447.069 298.847 446.881 296.668 444.025" fill="#EBEBEB"/>
<path d="M289.767 497.294C289.613 496.722 289.529 496.133 289.516 495.541C289.391 494.288 289.241 492.647 289.053 490.743C288.865 488.84 288.527 486.322 287.976 483.704C287.356 480.88 286.519 478.108 285.471 475.413C284.419 472.719 282.99 470.189 281.225 467.898C279.795 466.036 277.968 464.517 275.876 463.451C274.455 462.743 272.928 462.269 271.355 462.049C270.766 462.028 270.182 461.94 269.614 461.786C270.205 461.726 270.801 461.726 271.393 461.786C273.021 461.915 274.613 462.339 276.089 463.038C278.3 464.076 280.239 465.616 281.751 467.535C283.584 469.854 285.061 472.433 286.134 475.187C287.209 477.925 288.047 480.749 288.639 483.629C289.091 485.98 289.405 488.356 289.579 490.743C289.729 492.785 289.779 494.426 289.804 495.566C289.848 496.142 289.835 496.721 289.767 497.294Z" fill="#E0E0E0"/>
<path d="M289.429 493.599C289.399 493.329 289.399 493.056 289.429 492.785C289.429 492.171 289.429 491.407 289.429 490.456C289.429 488.439 289.429 485.446 289.328 481.888C289.14 474.661 288.527 464.692 287.324 453.72C286.122 442.748 284.506 432.878 283.041 425.801C282.69 424.023 282.352 422.42 282.014 421.029C281.676 419.639 281.438 418.412 281.187 417.435C280.937 416.458 280.786 415.769 280.636 415.168C280.558 414.907 280.511 414.638 280.498 414.366C280.614 414.611 280.707 414.867 280.774 415.13C280.962 415.719 281.175 416.458 281.45 417.372C281.726 418.286 282.064 419.539 282.415 420.929C282.765 422.319 283.166 423.923 283.542 425.689C285.534 434.917 287.035 444.244 288.038 453.632C289.291 464.629 289.792 474.636 289.842 481.888C289.842 485.508 289.842 488.439 289.704 490.468C289.704 491.407 289.604 492.184 289.566 492.798C289.555 493.07 289.509 493.339 289.429 493.599Z" fill="#E0E0E0"/>
<path d="M289.341 474.298C289.278 473.489 289.278 472.677 289.341 471.868C289.429 470.303 289.642 468.036 290.08 465.267C290.616 462.028 291.331 458.821 292.222 455.661C293.292 451.78 294.636 447.979 296.242 444.288C299.055 437.492 303.083 431.265 308.128 425.914C308.995 424.996 309.92 424.134 310.896 423.334C311.322 422.97 311.698 422.607 312.086 422.332L313.164 421.58C313.81 421.103 314.497 420.684 315.218 420.328C312.85 422.177 310.603 424.177 308.492 426.315C303.642 431.72 299.749 437.912 296.981 444.626C295.394 448.292 294.047 452.058 292.948 455.899C292.03 459.028 291.269 462.2 290.669 465.405C290.155 468.148 289.867 470.415 289.692 471.943C289.64 472.737 289.523 473.524 289.341 474.298Z" fill="#E0E0E0"/>
<path d="M655.711 498.234C655.711 498.409 514.103 498.559 339.454 498.559C164.804 498.559 23.1713 498.409 23.1713 498.234C23.1713 498.058 164.704 497.908 339.454 497.908C514.203 497.908 655.711 498.058 655.711 498.234Z" fill="#263238"/>
<path d="M567.146 457.339C548.935 445.415 544.313 422.595 544.513 401.979C544.513 398.534 544.088 394.927 545.666 391.871C547.244 388.815 551.064 386.66 554.22 388.026C556.838 389.165 557.978 392.109 559.543 394.539C561.567 397.783 564.468 400.389 567.91 402.054C570.152 403.143 572.92 403.77 575.075 402.53C578.043 400.814 578.293 396.705 578.193 393.286C577.993 386.915 577.797 380.544 577.605 374.173C577.306 370.758 577.573 367.318 578.394 363.99C579.396 360.721 581.7 357.64 584.982 356.65C588.263 355.661 592.372 357.44 593.148 360.771C593.313 362.184 593.385 363.607 593.361 365.03C593.358 365.741 593.565 366.437 593.958 367.03C594.35 367.623 594.91 368.086 595.565 368.361C596.968 368.737 598.321 367.735 599.323 366.708C602.817 363.163 605.135 358.654 607.301 354.183C609.468 349.712 611.547 345.115 614.704 341.282C617.86 337.45 622.219 334.343 627.229 333.943C632.239 333.542 637.549 336.448 638.915 341.22C640.28 345.992 637.562 350.977 634.556 354.997C630.086 360.885 624.792 366.099 618.837 370.478C617.67 371.144 616.748 372.167 616.207 373.396C615.518 375.701 617.76 377.918 620.052 378.607C622.657 379.396 625.45 379.058 628.168 379.308C630.886 379.559 633.829 380.661 634.919 383.166C636.422 386.623 633.554 390.355 630.698 392.835C624.957 397.781 618.418 401.715 611.36 404.471C608.855 405.448 606.162 406.325 604.158 408.141C602.154 409.957 600.976 413.063 602.279 415.443C603.581 417.823 606.788 418.512 609.443 417.948C612.099 417.384 614.453 415.906 616.958 414.904C621.668 413.013 627.83 413.188 630.974 417.184C631.941 418.553 632.571 420.13 632.815 421.788C633.059 423.447 632.909 425.139 632.377 426.728C631.302 429.896 629.598 432.815 627.367 435.308C620.001 444.451 610.353 451.489 599.398 455.711C588.439 459.757 578.231 461.034 567.146 457.327" fill="#FDC630"/>
<path d="M633.779 336.66C633.779 336.66 633.679 336.786 633.454 336.999L632.452 337.926C631.562 338.74 630.247 339.942 628.607 341.533C623.951 346.005 619.643 350.824 615.718 355.949C613.213 359.18 610.621 362.838 607.915 366.808C605.21 370.779 602.342 375.05 599.511 379.646C596.507 384.433 593.772 389.384 591.319 394.476C590.067 397.119 588.927 399.887 587.775 402.705C586.623 405.523 585.47 408.379 584.305 411.272C579.833 422.113 575.977 433.199 572.757 444.476C570.174 453.696 568.471 463.141 567.672 472.682C567.159 479.116 567.209 485.583 567.823 492.008C568.061 494.276 568.286 496.042 568.474 497.231C568.549 497.799 568.612 498.25 568.662 498.584C568.681 498.738 568.681 498.894 568.662 499.048C568.609 498.902 568.571 498.75 568.549 498.597C568.486 498.258 568.399 497.82 568.298 497.244C568.06 496.067 567.797 494.301 567.522 492.034C566.81 485.595 566.692 479.105 567.171 472.645C567.927 463.066 569.605 453.582 572.181 444.326C575.376 433.015 579.223 421.899 583.704 411.034C584.869 408.141 586.034 405.285 587.174 402.454C588.313 399.624 589.453 396.856 590.743 394.2C593.219 389.096 595.974 384.133 598.997 379.333C601.853 374.737 604.734 370.478 607.464 366.508C610.195 362.537 612.812 358.892 615.343 355.673C619.316 350.563 623.688 345.776 628.419 341.357C630.097 339.792 631.437 338.614 632.351 337.838L633.404 336.949L633.779 336.66Z" fill="#263238"/>
<path d="M590.956 394.15C590.783 393.68 590.657 393.193 590.581 392.698C590.38 391.758 590.13 390.38 589.842 388.69C589.265 385.295 588.589 380.586 587.963 375.388C587.337 370.19 586.598 365.493 585.971 362.111C585.658 360.421 585.395 359.068 585.207 358.116C585.059 357.657 584.967 357.182 584.932 356.701C585.133 357.16 585.288 357.638 585.395 358.128C585.671 359.055 585.996 360.408 586.36 362.086C587.099 365.456 587.875 370.152 588.552 375.363L590.242 388.69C590.455 390.28 590.631 391.633 590.781 392.723C590.896 393.19 590.955 393.669 590.956 394.15Z" fill="#263238"/>
<path d="M635.307 384.869C634.727 385.001 634.136 385.085 633.541 385.12C632.402 385.245 630.748 385.42 628.719 385.708C624.649 386.234 619.05 387.161 612.925 388.464C606.8 389.766 601.302 391.169 597.357 392.309C595.378 392.86 593.787 393.349 592.685 393.687C592.124 393.893 591.545 394.049 590.956 394.15C591.483 393.863 592.037 393.628 592.61 393.449C593.687 393.048 595.252 392.484 597.219 391.871C601.139 390.618 606.638 389.14 612.787 387.838C618.029 386.705 623.326 385.844 628.657 385.257C630.711 385.032 632.414 384.919 633.516 384.869C634.112 384.804 634.712 384.804 635.307 384.869Z" fill="#263238"/>
<path d="M572.745 443.474C572.621 443.311 572.516 443.134 572.432 442.948L571.63 441.37C570.941 440.004 569.989 438 568.862 435.508C566.583 430.498 563.664 423.534 560.546 415.781C557.427 408.028 554.584 401.027 552.417 396.004L549.862 390.055L549.173 388.439C549.077 388.252 549.006 388.055 548.96 387.85C548.96 387.85 549.098 388.026 549.285 388.376C549.473 388.727 549.761 389.328 550.087 389.954C550.776 391.32 551.715 393.324 552.855 395.816C555.122 400.826 558.053 407.79 561.172 415.543C564.291 423.296 567.134 430.298 569.301 435.32L571.881 441.269C572.156 441.921 572.382 442.522 572.57 442.885C572.658 443.071 572.717 443.27 572.745 443.474Z" fill="#263238"/>
<path d="M631.5 423.233C631.31 423.332 631.114 423.416 630.911 423.484L629.208 424.098L622.945 426.264C617.635 428.106 610.32 430.736 602.254 433.654C594.188 436.573 586.848 439.128 581.5 440.856C578.82 441.733 576.653 442.409 575.137 442.848L573.396 443.349C573.194 443.42 572.984 443.462 572.77 443.474C572.953 443.362 573.151 443.278 573.359 443.223L575.062 442.61L581.325 440.43C586.635 438.589 593.95 435.971 602.016 433.053C610.082 430.135 617.422 427.58 622.77 425.839C625.45 424.974 627.617 424.298 629.133 423.86L630.874 423.359C631.075 423.288 631.286 423.245 631.5 423.233Z" fill="#263238"/>
<path d="M151.854 493.9L153.895 481.149L131.062 477.392L127.831 496.43L129.221 496.755C135.483 498.171 161.11 503.093 165.543 502.454C170.491 501.703 151.854 493.9 151.854 493.9Z" fill="#FDC62E"/>
<path d="M166.27 501.327C166.27 501.54 157.665 500.35 147.119 498.659C136.573 496.968 128.056 495.428 128.094 495.215C128.131 495.002 136.698 496.192 147.244 497.883C157.79 499.574 166.307 501.114 166.27 501.327Z" fill="#263238"/>
<path d="M151.841 496.568C151.666 496.442 151.929 495.791 152.53 495.202C153.131 494.614 153.782 494.363 153.908 494.539C154.033 494.714 153.632 495.227 153.081 495.791C152.53 496.355 152.016 496.705 151.841 496.568Z" fill="#263238"/>
<path d="M153.156 497.645C152.968 497.532 153.156 496.793 153.77 496.079C154.384 495.365 155.022 494.965 155.16 495.127C155.298 495.29 154.922 495.891 154.384 496.568C153.845 497.244 153.357 497.758 153.156 497.645Z" fill="#263238"/>
<path d="M134.995 496.229C134.895 496.229 134.607 495.891 134.193 495.253C133.713 494.422 133.15 493.642 132.515 492.923C131.891 492.235 131.095 491.726 130.21 491.445C129.534 491.245 129.058 491.282 129.045 491.157C129.033 491.032 129.496 490.819 130.298 490.906C131.364 491.062 132.343 491.585 133.066 492.384C133.756 493.151 134.3 494.039 134.669 495.002C134.982 495.728 135.083 496.192 134.995 496.229Z" fill="#263238"/>
<path d="M152.292 494.188C152.367 494.376 151.916 494.764 151.215 494.889C150.513 495.014 149.962 494.889 149.962 494.639C149.962 494.388 150.463 494.25 151.064 494.125C151.666 494 152.204 493.975 152.292 494.188Z" fill="#263238"/>
<path d="M152.129 492.885C152.129 493.111 151.478 493.198 150.701 493.086C149.925 492.973 149.349 492.71 149.449 492.497C149.549 492.284 150.125 492.196 150.864 492.309C151.603 492.422 152.142 492.672 152.129 492.885Z" fill="#263238"/>
<path d="M232.628 491.144L232.152 478.243L209.018 478.945L209.531 498.246H210.972C217.372 498.421 243.537 498.246 247.708 496.78C252.417 495.177 232.628 491.144 232.628 491.144Z" fill="#FDC62E"/>
<path d="M248.209 495.628C248.209 495.854 239.579 496.342 228.908 496.743C218.236 497.144 209.581 497.269 209.569 497.056C209.556 496.843 218.211 496.342 228.883 495.954C239.554 495.566 248.196 495.415 248.209 495.628Z" fill="#263238"/>
<path d="M233.128 493.762C232.928 493.674 233.066 492.986 233.542 492.297C234.018 491.608 234.606 491.219 234.794 491.37C234.982 491.52 234.669 492.096 234.231 492.735C233.792 493.374 233.329 493.862 233.128 493.762Z" fill="#263238"/>
<path d="M234.632 494.563C234.431 494.501 234.506 493.724 234.932 492.91C235.358 492.096 235.934 491.583 236.109 491.658C236.285 491.733 236.022 492.447 235.634 493.211C235.245 493.975 234.844 494.639 234.632 494.563Z" fill="#263238"/>
<path d="M216.533 496.718C216.445 496.718 216.094 496.455 215.568 495.904C214.928 495.19 214.224 494.536 213.464 493.95C212.729 493.406 211.867 493.061 210.959 492.948C210.258 492.948 209.794 493.01 209.707 492.948C209.619 492.885 210.082 492.522 210.959 492.447C212.038 492.388 213.102 492.712 213.965 493.361C214.791 493.978 215.496 494.743 216.044 495.616C216.42 496.204 216.62 496.655 216.533 496.718Z" fill="#263238"/>
<path d="M233.103 491.345C233.229 491.52 232.853 491.983 232.202 492.246C231.55 492.509 230.949 492.447 230.949 492.246C230.949 492.046 231.363 491.758 231.939 491.52C232.515 491.282 232.978 491.157 233.103 491.345Z" fill="#263238"/>
<path d="M232.703 490.105C232.703 490.318 232.114 490.53 231.337 490.568C230.561 490.606 229.935 490.468 229.935 490.242C229.935 490.017 230.548 489.817 231.3 489.779C232.051 489.741 232.665 489.892 232.703 490.105Z" fill="#263238"/>
<path d="M263.99 169.99L262.738 165.781C262.291 163.353 261.608 160.974 260.696 158.68C260.262 157.522 259.635 156.447 258.842 155.498C257.911 154.284 256.819 153.202 255.598 152.279C254.346 151.54 254.659 149.774 255.912 149.637C257.164 149.499 260.533 151.465 263.113 155.21C265.694 158.955 266.17 151.904 266.395 149.336C266.62 146.768 267.648 138.865 268.512 138.339C269.764 137.55 270.841 138.752 270.566 141.307C270.29 143.863 269.977 151.603 271.33 151.691C272.683 151.778 273.622 138.69 273.622 138.69C273.622 138.69 273.371 135.846 274.95 135.897C277.78 135.984 275.739 149.799 275.513 151.102C275.363 152.016 276.828 152.154 276.954 151.177C277.079 150.2 277.592 138.088 280.473 138.151C282.69 138.151 278.908 149.524 280.185 152.129C281.463 154.734 282.177 143.211 284.293 143.362C285.07 143.362 285.659 143.549 284.293 150.075C282.928 156.6 276.19 174.173 276.19 174.173L263.89 169.777" fill="#FFBE9D"/>
<path d="M179.371 166.533L200.188 168.073C200.463 165.669 200.877 156.312 200.877 156.312C200.877 156.312 209.569 155.498 210.195 146.894C210.821 138.289 210.571 118.437 210.571 118.437C205.806 116.032 200.486 114.942 195.16 115.281C189.833 115.62 184.694 117.376 180.273 120.366L178.933 121.267L179.371 166.533Z" fill="#FFBE9D"/>
<path d="M207.665 133.116C207.433 132.877 207.305 132.555 207.309 132.222C207.314 131.888 207.451 131.57 207.69 131.338C207.929 131.105 208.251 130.977 208.585 130.982C208.918 130.986 209.236 131.123 209.469 131.363C209.584 131.481 209.675 131.621 209.736 131.774C209.797 131.928 209.827 132.092 209.825 132.257C209.822 132.422 209.787 132.585 209.722 132.737C209.657 132.889 209.562 133.026 209.444 133.141C209.325 133.256 209.185 133.347 209.032 133.408C208.878 133.469 208.714 133.499 208.549 133.497C208.384 133.495 208.221 133.46 208.069 133.394C207.918 133.329 207.78 133.235 207.665 133.116Z" fill="#263238"/>
<path d="M209.882 131.25C209.732 131.388 208.93 130.686 207.74 130.611C206.55 130.536 205.661 131.087 205.536 130.924C205.411 130.761 205.636 130.599 206.024 130.336C206.553 129.997 207.178 129.843 207.803 129.897C208.426 129.938 209.019 130.18 209.494 130.586C209.832 130.937 209.945 131.25 209.882 131.25Z" fill="#263238"/>
<path d="M196.155 131.463C196.427 131.654 196.612 131.945 196.67 132.273C196.727 132.6 196.652 132.938 196.461 133.21C196.27 133.482 195.979 133.668 195.651 133.725C195.324 133.783 194.987 133.708 194.714 133.517C194.579 133.422 194.463 133.301 194.375 133.161C194.286 133.022 194.226 132.866 194.199 132.703C194.171 132.54 194.175 132.373 194.212 132.212C194.249 132.05 194.318 131.898 194.414 131.763C194.605 131.493 194.896 131.31 195.222 131.254C195.548 131.197 195.884 131.273 196.155 131.463Z" fill="#263238"/>
<path d="M196.931 131.525C196.793 131.663 195.992 130.962 194.802 130.887C193.612 130.811 192.723 131.363 192.597 131.2C192.472 131.037 192.685 130.874 193.086 130.611C193.609 130.271 194.231 130.117 194.852 130.173C195.476 130.211 196.07 130.453 196.543 130.862C196.894 131.25 197.006 131.463 196.931 131.525Z" fill="#263238"/>
<path d="M201.09 141.596C201.717 141.399 202.373 141.306 203.031 141.32C203.344 141.32 203.595 141.245 203.632 141.082C203.662 140.768 203.606 140.452 203.469 140.168C203.206 139.366 202.956 138.552 202.68 137.663C201.916 135.573 201.362 133.412 201.027 131.212C201.99 133.22 202.753 135.318 203.306 137.475C203.557 138.327 203.795 139.153 204.045 139.98C204.207 140.377 204.238 140.816 204.133 141.232C204.081 141.348 204.003 141.449 203.905 141.53C203.807 141.61 203.693 141.667 203.569 141.696C203.395 141.719 203.218 141.719 203.043 141.696C202.391 141.765 201.732 141.731 201.09 141.596Z" fill="#263238"/>
<path d="M197.157 142.673C195.967 141.859 200.451 144.689 202.868 144.714C202.428 145.312 201.798 145.742 201.081 145.936C200.365 146.129 199.604 146.074 198.923 145.779C196.405 144.677 197.157 142.673 197.157 142.673Z" fill="white"/>
<path d="M200.889 156.187C196.912 156.012 193.076 154.661 189.867 152.304C189.867 152.304 192.134 158.667 200.776 158.417L200.889 156.187Z" fill="#EB996E"/>
<path d="M179.121 129.997L180.16 136.172L183.993 136.097L183.742 123.234C183.742 123.234 198.948 124.411 200.689 118.324C200.689 118.324 205.16 125.05 210.709 125.025C210.709 125.025 215.568 124.524 210.947 117.748C203.807 107.327 178.382 115.706 178.382 115.706C177.74 117.61 177.431 119.61 177.467 121.618C177.367 128.281 179.121 129.997 179.121 129.997Z" fill="#263238"/>
<path d="M177.029 123.735L210.846 117.021C210.846 117.021 208.442 103.469 190.168 107.415C172.432 111.285 177.029 123.735 177.029 123.735Z" fill="#FDC62E"/>
<path d="M177.029 123.735C177.505 123.647 218.437 124.612 221.355 118.95C222.745 116.245 210.634 116.17 210.634 116.17L210.909 117.021L177.029 123.735Z" fill="#FDC62E"/>
<path opacity="0.2" d="M177.029 123.735C177.505 123.647 218.437 124.612 221.355 118.95C222.745 116.245 210.634 116.17 210.634 116.17L210.909 117.021L177.029 123.735Z" fill="#EBEBEB"/>
<path d="M180.586 128.908C180.398 128.833 174.198 128.031 174.787 135.346C175.376 142.66 182.565 139.654 182.565 139.441C182.565 139.228 180.586 128.908 180.586 128.908Z" fill="#FFBE9D"/>
<path d="M180.123 137.049C180.123 137.049 179.997 137.149 179.784 137.274C179.491 137.428 179.149 137.46 178.832 137.362C178.337 137.101 177.921 136.713 177.626 136.238C177.33 135.762 177.168 135.216 177.154 134.657C177.081 134.031 177.154 133.396 177.367 132.803C177.414 132.567 177.518 132.346 177.671 132.16C177.824 131.974 178.021 131.829 178.244 131.738C178.387 131.689 178.542 131.69 178.684 131.743C178.825 131.796 178.944 131.896 179.02 132.026C179.133 132.227 179.108 132.377 179.146 132.39C179.183 132.402 179.296 132.252 179.146 131.951C179.089 131.773 178.974 131.619 178.82 131.513C178.607 131.381 178.351 131.336 178.106 131.388C177.808 131.473 177.537 131.633 177.318 131.852C177.099 132.071 176.939 132.342 176.854 132.64C176.599 133.302 176.505 134.014 176.578 134.719C176.595 135.375 176.804 136.011 177.181 136.548C177.557 137.085 178.084 137.499 178.695 137.738C178.896 137.777 179.104 137.772 179.303 137.722C179.502 137.672 179.688 137.579 179.847 137.45C180.123 137.237 180.148 137.061 180.123 137.049Z" fill="#EB996E"/>
<path d="M200.537 113.345L196.392 113.424L196.471 117.57L200.616 117.49L200.537 113.345Z" fill="#263238"/>
<path d="M200.495 111.096L198.417 111.136L198.457 113.215L200.536 113.175L200.495 111.096Z" fill="#263238"/>
<path d="M262.462 164.604C262.462 164.604 256.062 205.335 251.553 205.548C246.405 205.799 230.573 183.341 230.573 183.341C220.441 167.71 207.076 165.18 202.204 164.792V162.863L178.256 160.897C178.256 160.897 178.256 162.963 178.256 164.767H167.648C167.648 164.767 148.66 163.89 145.804 189.404L159.469 200.2L165.067 221.029C166.771 227.392 164.166 235.508 161.31 249.762L159.594 249.361L158.868 263.727C158.767 264.404 158.667 265.092 158.58 265.781H158.767L152.981 380.498L123.397 491.608L156.701 492.86L187.412 384.456C187.412 384.456 190.08 297.783 192.785 297.733C197.332 297.645 200.238 490.543 201.979 490.105C203.72 489.666 237.926 490.017 237.926 490.017C237.926 490.017 226.603 265.268 226.716 265.268L223.785 222.683L222.67 210.383C229.171 219.526 241.458 233.805 254.584 233.554C275.964 233.141 278.97 166.859 278.97 166.859L262.462 164.604Z" fill="#455A64"/>
<path d="M191.558 296.868C192.307 295.665 192.968 294.409 193.537 293.111C194.672 289.925 195.22 286.56 195.153 283.178C195.153 279.271 195.153 275.751 195.153 272.946C195.087 271.532 195.142 270.116 195.315 268.712C195.517 270.114 195.618 271.529 195.616 272.946C195.691 275.563 195.854 279.208 195.816 283.191C195.799 285.084 195.631 286.973 195.315 288.84C195.051 290.375 194.601 291.872 193.975 293.299C193.542 294.253 193.005 295.156 192.372 295.992C191.871 296.58 191.646 296.906 191.558 296.868Z" fill="#263238"/>
<path d="M171.906 278.67C172.028 279.05 172.088 279.448 172.081 279.847C172.144 280.611 172.219 281.701 172.257 283.078C172.449 286.685 171.73 290.282 170.165 293.537C169.241 295.333 167.869 296.86 166.182 297.971C164.79 298.85 163.193 299.35 161.548 299.424C160.443 299.48 159.34 299.292 158.316 298.872C157.933 298.739 157.583 298.526 157.289 298.246C158.629 298.802 160.075 299.05 161.523 298.973C163.07 298.829 164.558 298.309 165.857 297.457C167.441 296.379 168.732 294.924 169.614 293.224C171.12 290.057 171.875 286.585 171.818 283.078C171.772 281.608 171.801 280.137 171.906 278.67Z" fill="#263238"/>
<path d="M229.083 298.622C229.083 298.622 228.883 298.985 228.269 299.398C227.37 299.949 226.328 300.22 225.275 300.175C223.706 300.11 222.197 299.548 220.967 298.572C219.488 297.418 218.217 296.02 217.209 294.439C215.317 291.617 214.127 288.383 213.74 285.007C213.629 283.988 213.6 282.962 213.652 281.939C213.645 281.564 213.704 281.19 213.827 280.836C213.94 280.836 213.827 282.427 214.203 284.945C214.706 288.21 215.916 291.326 217.748 294.075C218.718 295.599 219.928 296.957 221.33 298.096C222.453 299.026 223.834 299.59 225.288 299.712C226.271 299.79 227.257 299.604 228.144 299.173C228.757 298.86 229.045 298.572 229.083 298.622Z" fill="#263238"/>
<path d="M158.229 485.483C158.229 485.671 150.839 485.545 141.746 485.22C132.653 484.894 125.263 484.456 125.263 484.293C125.263 484.13 132.653 484.23 141.758 484.568C150.864 484.907 158.241 485.307 158.229 485.483Z" fill="#263238"/>
<path d="M236.736 480.473C236.283 480.597 235.815 480.66 235.345 480.661L231.588 480.949C228.382 481.149 223.96 481.387 219.063 481.613C214.166 481.838 209.732 482.001 206.538 482.101L202.78 482.164C202.312 482.201 201.841 482.18 201.378 482.101C201.832 481.985 202.299 481.922 202.768 481.913L206.525 481.638C209.732 481.425 214.153 481.187 219.05 480.961C223.948 480.736 228.382 480.573 231.575 480.485L235.333 480.41C235.801 480.381 236.272 480.402 236.736 480.473Z" fill="#263238"/>
<path d="M175.288 299.524C175.307 299.686 175.307 299.85 175.288 300.012V301.453C175.288 302.705 175.225 304.609 175.188 306.989C175.075 311.786 174.862 318.737 174.511 327.329C174.161 335.921 173.685 346.117 173.008 357.477C172.67 363.151 172.294 369.1 171.756 375.263C171.493 378.344 171.255 381.525 170.716 384.656C170.178 387.788 169.464 390.981 168.812 394.2C163.101 419.814 156.688 442.685 151.678 459.13C149.173 467.359 146.919 473.935 145.341 478.481L143.424 483.667C143.199 484.23 143.036 484.681 142.898 485.007C142.857 485.165 142.793 485.317 142.71 485.458C142.732 485.299 142.774 485.143 142.836 484.994C142.948 484.656 143.099 484.205 143.299 483.629L145.103 478.394C146.606 473.835 148.86 467.234 151.24 459.005C156.125 442.535 162.512 419.639 168.174 394.05C168.863 390.856 169.551 387.687 170.077 384.556C170.604 381.425 170.854 378.294 171.117 375.212C171.631 369.05 172.019 363.101 172.37 357.439C173.071 346.167 173.622 335.884 174.01 327.304C174.399 318.725 174.687 311.811 174.9 306.976C174.987 304.596 175.062 302.743 175.113 301.44C175.113 300.839 175.138 300.363 175.188 300.012C175.213 299.848 175.246 299.685 175.288 299.524Z" fill="#263238"/>
<path d="M221.255 481.312C221.215 481.165 221.194 481.014 221.192 480.861C221.192 480.536 221.192 480.097 221.092 479.534C221.004 478.281 220.892 476.615 220.741 474.423C220.478 469.952 220.102 463.539 219.627 455.636C218.737 439.767 217.623 417.823 216.596 393.599C215.568 369.376 214.817 347.394 214.328 331.513C214.116 323.597 213.928 317.172 213.815 312.725C213.815 310.533 213.727 308.817 213.702 307.615V306.275C213.689 306.125 213.689 305.974 213.702 305.824C213.716 305.974 213.716 306.125 213.702 306.275C213.702 306.613 213.702 307.051 213.777 307.602C213.777 308.855 213.903 310.533 214.003 312.725C214.178 317.197 214.416 323.622 214.729 331.513C215.355 347.42 216.232 369.351 217.234 393.574C218.236 417.798 219.301 439.742 220.077 455.623C220.466 463.539 220.766 469.952 220.992 474.411C221.079 476.603 221.155 478.319 221.205 479.534C221.205 480.085 221.205 480.523 221.205 480.861C221.235 481.01 221.252 481.161 221.255 481.312Z" fill="#263238"/>
<path d="M193.75 162.162C193.844 163.283 193.844 164.41 193.75 165.531C193.716 168.343 193.439 171.146 192.923 173.91L192.848 174.324L192.472 174.123C191.671 173.71 190.844 173.271 190.03 172.783C186.548 170.754 183.592 168.637 181.4 167.184C179.208 165.731 177.868 164.842 177.906 164.767C179.225 165.31 180.485 165.991 181.663 166.796C183.918 168.161 186.924 170.215 190.368 172.219C191.182 172.695 191.996 173.146 192.773 173.559L192.309 173.772C192.837 171.043 193.18 168.281 193.337 165.506C193.384 164.382 193.522 163.263 193.75 162.162Z" fill="#263238"/>
<path d="M202.267 164.955C202.112 166.008 201.886 167.05 201.59 168.073C201.352 169.025 201.102 170.178 200.689 171.443C200.477 172.106 200.221 172.754 199.925 173.384C199.829 173.603 199.672 173.79 199.474 173.923C199.338 174.015 199.174 174.055 199.011 174.037C198.848 174.018 198.696 173.942 198.584 173.822C198.34 173.487 198.15 173.115 198.021 172.72C196.856 169.94 195.829 167.422 195.128 165.581C194.697 164.612 194.37 163.6 194.151 162.562C194.73 163.463 195.217 164.42 195.603 165.418C196.418 167.222 197.507 169.714 198.672 172.495C198.784 172.807 198.922 173.108 199.085 173.397C199.148 173.397 199.085 173.397 199.186 173.397C199.277 173.323 199.35 173.228 199.399 173.121C199.692 172.514 199.952 171.891 200.175 171.255C200.601 170.002 200.902 168.913 201.19 167.961C201.414 166.915 201.776 165.905 202.267 164.955Z" fill="#263238"/>
<path d="M197.77 250.538C197.703 250.242 197.669 249.94 197.67 249.637C197.67 248.985 197.57 248.134 197.495 247.069C197.382 244.764 197.207 241.545 197.006 237.6C196.643 229.546 196.155 218.537 195.604 206.375C195.052 194.213 194.714 183.204 194.351 175.138C194.226 171.192 194.138 167.986 194.063 165.669C194.063 164.604 194.063 163.752 194.063 163.164C194.044 162.863 194.044 162.562 194.063 162.262C194.133 162.553 194.17 162.851 194.176 163.151C194.176 163.802 194.276 164.654 194.338 165.719C194.464 168.036 194.627 171.242 194.839 175.188C195.203 183.241 195.691 194.251 196.23 206.413C196.768 218.574 197.132 229.596 197.482 237.65C197.608 241.595 197.708 244.814 197.783 247.119C197.783 248.184 197.783 249.048 197.783 249.699C197.809 249.978 197.805 250.26 197.77 250.538Z" fill="#263238"/>
<path d="M213.035 188.106L201.526 188.329L201.572 190.709L213.081 190.486L213.035 188.106Z" fill="white"/>
<path d="M223.973 226.991C223.785 226.991 223.058 218.299 222.344 207.54C221.631 196.781 221.192 188.076 221.368 188.063C221.543 188.051 222.269 196.756 222.996 207.502C223.722 218.249 224.211 226.979 223.973 226.991Z" fill="#263238"/>
<path d="M278.594 175.2C275.677 174.865 272.789 174.317 269.952 173.559C267.07 173.005 264.232 172.243 261.46 171.28C264.377 171.615 267.266 172.163 270.102 172.921C272.986 173.468 275.824 174.23 278.594 175.2Z" fill="#263238"/>
<path d="M264.955 167.497C265.188 167.492 265.418 167.557 265.614 167.683C265.811 167.808 265.965 167.99 266.059 168.204C266.152 168.418 266.18 168.654 266.138 168.884C266.097 169.114 265.988 169.326 265.825 169.493C265.663 169.661 265.455 169.777 265.226 169.826C264.998 169.875 264.761 169.855 264.544 169.768C264.327 169.682 264.141 169.533 264.009 169.34C263.877 169.148 263.805 168.921 263.802 168.687C263.799 168.533 263.826 168.38 263.883 168.237C263.939 168.093 264.023 167.962 264.13 167.852C264.237 167.741 264.365 167.653 264.507 167.592C264.648 167.531 264.801 167.499 264.955 167.497Z" fill="#263238"/>
<path d="M212.915 182.796L208.77 182.876L208.85 187.021L212.995 186.941L212.915 182.796Z" fill="#FDC62E"/>
<path d="M212.86 180.533L210.781 180.573L210.822 182.652L212.9 182.612L212.86 180.533Z" fill="#FDC62E"/>
<path d="M274.975 204.045L273.271 270.929L168.324 270.39L168.662 202.617L274.975 204.045Z" fill="#FDC62E"/>
<path d="M212.638 270.541C212.462 270.541 212.638 255.598 213.164 237.187C213.69 218.775 214.191 203.895 214.328 203.895C214.466 203.895 214.328 218.825 213.815 237.249C213.301 255.674 212.813 270.541 212.638 270.541Z" fill="#263238"/>
<path d="M168.324 270.39C168.434 270.142 168.573 269.906 168.737 269.689L169.99 267.723L174.887 260.596L191.245 237.199C197.645 228.068 203.407 219.789 207.527 213.752C209.594 210.734 211.285 208.279 212.362 206.575L213.615 204.609C213.779 204.35 213.972 204.11 214.191 203.895C214.101 204.154 213.975 204.399 213.815 204.622L212.638 206.663C211.573 208.404 209.982 210.909 207.978 213.953C203.958 220.065 198.246 228.394 191.859 237.525C185.471 246.656 179.597 254.872 175.338 260.809L170.328 267.823C169.752 268.599 169.276 269.226 168.925 269.714C168.756 269.966 168.554 270.193 168.324 270.39Z" fill="#263238"/>
<path d="M211.598 271.067C211.448 271.167 201.778 256.099 190.017 237.412C178.256 218.725 168.825 203.494 168.988 203.407C169.151 203.319 178.795 218.374 190.568 237.061C202.342 255.749 211.748 270.979 211.598 271.067Z" fill="#263238"/>
<path d="M224.861 261.2L241.707 261.705L241.811 258.248L224.965 257.743L224.861 261.2Z" fill="#263238"/>
<path d="M224.436 256.801C227.17 256.472 229.927 256.367 232.678 256.488C235.429 256.375 238.186 256.488 240.919 256.826C238.184 257.14 235.429 257.245 232.678 257.139C229.926 257.236 227.171 257.123 224.436 256.801Z" fill="#263238"/>
<path d="M253.745 203.507L253.093 229.333L249.486 226.415L244.739 229.12L245.403 203.306L253.745 203.507Z" fill="#263238"/>
<path d="M166.596 196.693C166.596 196.693 161.51 232.189 163.915 234.268C177.242 245.478 195.766 251.352 202.392 253.206C203.356 252.968 204.496 252.668 205.786 252.254C206.913 251.897 207.968 251.346 208.905 250.626C210.11 249.785 211.194 248.782 212.124 247.645C212.268 247.41 212.481 247.224 212.732 247.112C212.984 247 213.264 246.967 213.536 247.017C213.807 247.068 214.056 247.199 214.251 247.393C214.447 247.588 214.578 247.837 214.629 248.108C214.692 249.361 212.725 252.492 209.03 254.784C209.03 254.784 217.522 268.449 220.228 269.677C222.933 270.904 230.686 274.398 229.371 275.075C228.056 275.751 218.637 272.996 218.637 272.996L199.524 267.885C199.524 267.885 136.285 257.978 140.506 228.97C143.086 211.197 145.904 195.153 146.919 191.12L166.596 196.693Z" fill="#FFBE9D"/>
<path d="M145.829 189.416L140.155 228.143C138.903 240.08 146.831 249.536 157.578 254.872C173.935 262.976 198.221 268.75 198.021 268.712C197.82 268.675 199.662 251.49 199.662 251.49C199.662 251.49 165.619 236.748 164.592 230.411C163.564 224.073 168.913 197.582 168.913 197.582L145.829 189.416Z" fill="#455A64"/>
<path d="M198.021 268.712C198.004 268.613 198.004 268.511 198.021 268.411C198.021 268.174 198.021 267.873 198.021 267.51C198.083 266.671 198.171 265.518 198.284 264.065C198.547 261.022 198.923 256.713 199.386 251.415L199.524 251.64L182.39 243.349L177.38 240.932C175.714 240.042 174.048 239.078 172.37 238.013C170.685 236.934 169.071 235.75 167.535 234.469C166.758 233.817 165.994 233.141 165.255 232.415C164.851 232.061 164.516 231.637 164.266 231.162C164.141 230.916 164.048 230.655 163.99 230.385C163.913 230.123 163.854 229.855 163.815 229.584C163.264 225.363 164.404 221.355 164.98 217.547C165.556 213.74 166.232 210.032 166.896 206.5C168.149 199.474 169.226 193.149 170.165 187.813C170.669 185.447 170.958 183.041 171.029 180.623C171.047 178.803 170.671 177 169.927 175.338C169.446 174.294 168.765 173.353 167.923 172.57C167.334 172.031 166.971 171.831 166.984 171.793C167.355 171.971 167.701 172.199 168.011 172.47C168.911 173.227 169.64 174.166 170.153 175.225C170.966 176.905 171.394 178.745 171.405 180.611C171.376 183.056 171.116 185.492 170.629 187.888C169.739 193.236 168.675 199.574 167.497 206.613L165.619 217.673C165.456 218.624 165.293 219.601 165.118 220.578C164.942 221.555 164.767 222.507 164.629 223.497C164.304 225.476 164.253 227.491 164.479 229.484C164.51 229.729 164.56 229.972 164.629 230.21C164.682 230.444 164.762 230.671 164.867 230.886C165.074 231.314 165.369 231.694 165.731 232.001C166.445 232.715 167.197 233.379 167.961 234.03C169.477 235.288 171.066 236.455 172.72 237.525C174.349 238.589 176.002 239.554 177.643 240.431L182.577 242.86L199.624 251.277L199.774 251.352V251.49C199.223 256.788 198.772 261.097 198.522 264.128C198.359 265.581 198.234 266.721 198.146 267.56C198.146 267.923 198.058 268.211 198.021 268.449C197.983 268.687 198.033 268.725 198.021 268.712Z" fill="#263238"/>
<path d="M194.865 249.06C194.911 249.946 194.843 250.834 194.664 251.703C194.451 253.331 194.113 255.561 193.662 257.966C193.211 260.37 192.698 262.625 192.272 264.228C192.097 265.095 191.815 265.936 191.433 266.733C191.257 266.733 192.109 262.75 193.023 257.865C193.459 254.896 194.074 251.955 194.865 249.06Z" fill="#263238"/>
<path d="M198.021 268.712C197.821 268.711 197.623 268.682 197.432 268.624L195.741 268.211L189.579 266.608C184.406 265.205 177.192 263.376 169.539 260.533C165.903 259.208 162.363 257.634 158.943 255.824C156.159 254.326 153.495 252.613 150.977 250.701C149.288 249.4 147.694 247.981 146.205 246.455C145.691 245.917 145.29 245.478 145.04 245.203C144.896 245.058 144.773 244.894 144.677 244.714C144.677 244.714 145.29 245.278 146.393 246.305C147.932 247.752 149.559 249.103 151.265 250.35C153.787 252.223 156.45 253.898 159.231 255.36C162.636 257.135 166.155 258.683 169.764 259.995C177.43 262.813 184.619 264.717 189.804 266.257L195.904 268.073L197.557 268.587C197.715 268.617 197.87 268.659 198.021 268.712Z" fill="#263238"/>
<path d="M198.447 253.206C198.45 253.351 198.425 253.495 198.372 253.63C198.32 253.765 198.242 253.888 198.142 253.993C198.042 254.098 197.922 254.181 197.789 254.24C197.657 254.298 197.514 254.33 197.369 254.333C197.08 254.333 196.802 254.221 196.594 254.02C196.386 253.819 196.264 253.545 196.255 253.256C196.251 253.111 196.277 252.967 196.329 252.832C196.381 252.697 196.46 252.574 196.56 252.469C196.66 252.365 196.779 252.281 196.912 252.222C197.044 252.164 197.187 252.132 197.332 252.129C197.621 252.129 197.899 252.241 198.107 252.442C198.315 252.643 198.437 252.917 198.447 253.206Z" fill="#263238"/>
<path d="M493.599 71.2675H355.373V498.233H493.599V71.2675Z" fill="#E0E0E0"/>
<path d="M446.067 74.5364V479.145L512.199 498.246L512.412 74.5364H446.067Z" fill="#455A64"/>
<path d="M454.22 270.691C454.346 273.86 453.131 276.478 451.503 276.553C449.874 276.628 448.446 274.048 448.321 270.929C448.196 267.81 449.411 265.143 451.039 265.08C452.667 265.017 454.095 267.522 454.22 270.691Z" fill="white"/>
<path d="M451.164 268.336L464.19 270.077C464.528 270.122 464.84 270.284 465.069 270.537C465.299 270.789 465.431 271.114 465.443 271.455C465.452 271.67 465.412 271.885 465.327 272.083C465.242 272.281 465.114 272.458 464.952 272.599C464.789 272.741 464.597 272.845 464.39 272.903C464.182 272.96 463.964 272.971 463.752 272.933L451.227 270.816L451.164 268.336Z" fill="white"/>
<path d="M339.228 56.1748V70.1402V74.5365V498.246H360.934V74.5365H488.314V498.246H512.199V74.5365V70.1402V56.1748H339.228Z" fill="#263238"/>
<path d="M360.934 74.5364H350.087V498.233H360.934V74.5364Z" fill="#263238"/>
<path opacity="0.5" d="M360.934 74.5364H350.087V498.233H360.934V74.5364Z" fill="#EBEBEB"/>
<path d="M512.412 56.1748H501.565V498.246H512.412V56.1748Z" fill="#263238"/>
<path opacity="0.5" d="M512.412 56.1748H501.565V498.246H512.412V56.1748Z" fill="#EBEBEB"/>
<path d="M440.593 30.3732H404.947V38.3266H440.593V30.3732Z" fill="#455A64"/>
<path d="M426.878 141.019C427.084 144.874 428.521 148.561 430.979 151.537C433.436 154.513 436.785 156.622 440.531 157.552C444.401 158.492 448.86 158.053 451.928 160.646C457.189 165.118 454.108 174.424 457.665 180.348C459.844 184.03 464.178 185.834 466.633 189.328C470.716 195.128 467.973 203.908 462.412 208.229C456.851 212.55 449.423 213.377 442.459 213.239C427.116 212.838 411.397 207.966 400.313 197.094C395.102 191.984 378.206 172.557 385.884 144.564" fill="#263238"/>
<path d="M371.468 182.202C371.468 182.202 344.626 205.536 343.912 202.693C340.155 187.249 341.207 167.522 341.821 159.97C342.234 159.331 342.723 158.617 343.299 157.828C343.954 156.914 344.763 156.121 345.691 155.486C346.812 154.64 348.042 153.949 349.348 153.432C349.622 153.399 349.876 153.277 350.073 153.085C350.271 152.893 350.399 152.642 350.439 152.37C350.479 152.098 350.428 151.82 350.294 151.579C350.161 151.339 349.951 151.149 349.699 151.039C348.622 150.639 345.19 151.528 342.009 154.183C338.827 156.839 340.13 150.526 340.556 148.221C340.982 145.917 341.984 138.702 341.37 138.026C340.481 137.024 339.228 137.826 338.865 140.143C338.502 142.46 336.861 149.336 335.646 149.086C334.431 148.835 336.811 137.087 336.811 137.087C336.811 137.087 337.713 134.644 336.322 134.306C333.817 133.692 332.239 146.343 332.114 147.545C332.026 148.384 330.699 148.159 330.861 147.257C331.024 146.355 333.479 135.596 330.937 134.945C328.983 134.444 329.534 145.328 327.78 147.307C326.027 149.286 328.206 138.99 326.315 138.539C325.613 138.389 325.062 138.377 324.674 144.451C324.581 149.342 324.757 154.234 325.2 159.106C323.534 175.764 320.265 226.803 343.324 225.05C370.528 222.971 376.791 201.528 376.791 201.528L371.468 182.202Z" fill="#B78876"/>
<path d="M392.91 174.612C393.299 172.457 392.61 163.414 392.61 163.414C392.61 163.414 384.581 162.4 384.243 154.221C383.905 146.042 384.707 127.179 384.707 127.179L399.474 120.09L415.355 132.891L412.6 174.474L392.91 174.612Z" fill="#B78876"/>
<path d="M386.072 140.957C386.072 141.159 386.132 141.357 386.244 141.526C386.356 141.695 386.516 141.826 386.703 141.904C386.89 141.983 387.096 142.004 387.295 141.965C387.493 141.926 387.676 141.83 387.821 141.687C387.965 141.545 388.064 141.363 388.105 141.165C388.146 140.966 388.127 140.76 388.051 140.572C387.975 140.385 387.846 140.223 387.678 140.109C387.511 139.995 387.314 139.932 387.111 139.93C386.838 139.93 386.575 140.038 386.381 140.23C386.186 140.422 386.075 140.683 386.072 140.957Z" fill="#263238"/>
<path d="M385.107 139.792C385.233 139.93 385.997 139.291 387.099 139.253C388.201 139.216 389.015 139.767 389.128 139.617C389.241 139.466 389.053 139.291 388.69 139.04C388.215 138.704 387.642 138.536 387.061 138.564C386.483 138.594 385.929 138.809 385.483 139.178C385.145 139.466 385.045 139.729 385.107 139.792Z" fill="#263238"/>
<path d="M397.883 141.157C397.883 141.36 397.943 141.558 398.055 141.726C398.167 141.895 398.327 142.027 398.514 142.105C398.701 142.183 398.907 142.204 399.106 142.165C399.305 142.127 399.488 142.03 399.632 141.888C399.776 141.745 399.875 141.563 399.916 141.365C399.957 141.167 399.938 140.961 399.862 140.773C399.786 140.585 399.657 140.424 399.49 140.309C399.322 140.195 399.125 140.133 398.922 140.13C398.649 140.13 398.386 140.238 398.192 140.43C397.997 140.622 397.886 140.884 397.883 141.157Z" fill="#263238"/>
<path d="M397.269 140.017C397.407 140.155 398.171 139.516 399.273 139.466C400.375 139.416 401.177 139.992 401.302 139.842C401.427 139.692 401.227 139.516 400.864 139.253C400.386 138.925 399.814 138.762 399.235 138.789C398.656 138.816 398.102 139.032 397.657 139.404C397.319 139.679 397.207 139.942 397.269 140.017Z" fill="#263238"/>
<path d="M393.148 149.461C392.569 149.28 391.965 149.187 391.357 149.186C391.082 149.186 390.806 149.111 390.756 148.91C390.735 148.599 390.796 148.289 390.931 148.008L391.721 145.691C392.463 143.718 393.058 141.691 393.499 139.629C392.616 141.538 391.875 143.51 391.282 145.528C391.019 146.355 390.756 147.119 390.518 147.871C390.348 148.239 390.304 148.652 390.393 149.048C390.43 149.151 390.491 149.244 390.572 149.318C390.653 149.392 390.75 149.446 390.856 149.474C391.014 149.496 391.174 149.496 391.332 149.474C391.936 149.549 392.546 149.545 393.148 149.461Z" fill="#263238"/>
<path d="M396.756 150.588C397.883 149.849 393.649 152.405 391.42 152.367C391.8 152.944 392.369 153.371 393.029 153.577C393.688 153.782 394.399 153.753 395.04 153.494C395.344 153.417 395.629 153.28 395.88 153.092C396.131 152.904 396.342 152.668 396.502 152.398C396.661 152.128 396.766 151.829 396.809 151.519C396.853 151.208 396.835 150.892 396.756 150.588Z" fill="white"/>
<path d="M392.61 163.414C396.414 163.311 400.105 162.101 403.231 159.932C403.231 159.932 400.726 165.907 392.748 165.418L392.61 163.414Z" fill="#A36957"/>
<path d="M426.878 141.145C426.803 140.569 426.715 139.692 426.628 138.777C426.503 137.525 426.365 136.172 426.202 135.446C422.144 118.324 407.59 114.892 404.709 114.842C401.603 114.779 396.217 112.938 388.163 121.23C385.873 123.429 384.283 126.256 383.595 129.356C382.906 132.456 383.149 135.69 384.293 138.652L385.646 137.4L397.357 134.519C396.48 131.275 397.908 127.292 398.71 125.438L398.785 125.363C400.901 137.65 414.015 139.141 414.015 139.141L412.763 171.706C425.676 169.101 426.703 148.159 426.678 141.07L426.878 141.145Z" fill="#263238"/>
<path d="M431.951 287.312C431.951 287.149 431.951 286.986 431.951 286.886C431.951 286.786 431.976 287.086 431.951 287.312Z" fill="#B78876"/>
<path d="M447.156 485.871C447.156 485.871 416.921 383.955 416.345 380.661C415.819 377.717 429.822 306.212 431.851 287.662L389.341 288.063C389.341 288.063 389.341 288.176 389.341 288.376L368.8 288.94L379.083 492.597L401.628 493.186L401.29 426.239C412.437 458.93 426.54 495.866 426.54 495.866L447.156 485.871Z" fill="#B78876"/>
<path d="M387.775 376.102C387.838 376.102 387.775 376.903 387.637 378.331C387.539 380.344 387.576 382.361 387.75 384.368C388.011 387.348 388.514 390.301 389.253 393.199C390.233 396.737 391.437 400.209 392.86 403.594C395.653 410.909 398.158 417.535 399.937 422.382L402.066 428.093C402.345 428.785 402.571 429.497 402.743 430.223C402.391 429.564 402.086 428.882 401.828 428.181L399.561 422.545C397.67 417.773 395.102 411.159 392.297 403.845C391.608 402.016 390.931 400.225 390.268 398.497C389.657 396.82 389.143 395.109 388.727 393.374C388.002 390.439 387.537 387.447 387.337 384.431C387.207 382.398 387.241 380.359 387.437 378.331C387.512 377.617 387.6 377.079 387.675 376.69C387.676 376.49 387.709 376.291 387.775 376.102Z" fill="#A36957"/>
<path d="M401.402 450.563C401.402 449.95 401.803 427.868 401.803 427.868C401.803 427.868 394.388 407.402 394.2 408.016C394.013 408.629 401.402 450.563 401.402 450.563Z" fill="#A36957"/>
<path d="M427.317 495.515L447.206 485.871L449.499 490.142L442.472 494.113C437.675 496.73 421.367 505.272 417.51 505.961C413.213 506.738 427.317 495.515 427.317 495.515Z" fill="#FDC62E"/>
<path d="M416.62 505.385C416.52 505.235 423.785 501.628 432.84 497.357C441.896 493.086 449.298 489.741 449.386 489.842C449.473 489.942 442.221 493.599 433.166 497.858C424.11 502.116 416.708 505.536 416.62 505.385Z" fill="#263238"/>
<path d="M444.326 492.434C444.225 492.434 444.188 492.059 444.225 491.457C444.276 490.657 444.494 489.876 444.864 489.165C445.279 488.387 445.946 487.773 446.756 487.424C447.419 487.161 447.883 487.224 447.883 487.287C447.883 487.349 447.507 487.487 447.006 487.8C446.375 488.21 445.854 488.769 445.491 489.428C445.165 490.103 444.905 490.808 444.714 491.532C444.551 492.096 444.413 492.447 444.326 492.434Z" fill="#263238"/>
<path d="M426.24 496.43C426.24 496.605 426.853 496.843 427.642 497.106C428.431 497.369 429.095 497.545 429.208 497.394C429.321 497.244 428.757 496.768 427.893 496.48C427.029 496.192 426.265 496.242 426.24 496.43Z" fill="#263238"/>
<path d="M424.874 497.495C424.874 497.682 425.4 498.021 426.127 498.259C426.853 498.497 427.58 498.572 427.667 498.396C427.755 498.221 427.166 497.895 426.415 497.645C425.663 497.394 424.924 497.319 424.874 497.495Z" fill="#263238"/>
<path d="M423.747 498.484C423.672 498.647 424.098 498.96 424.649 499.248C425.2 499.536 425.738 499.699 425.901 499.561C426.064 499.423 425.663 498.997 425.062 498.684C424.461 498.371 423.835 498.309 423.747 498.484Z" fill="#263238"/>
<path d="M426.327 496.593C426.436 495.889 426.363 495.169 426.114 494.501C425.917 493.73 425.568 493.006 425.087 492.372C424.779 491.976 424.416 491.626 424.01 491.332C423.774 491.162 423.518 491.023 423.246 490.919C422.896 490.781 422.507 490.781 422.156 490.919C422.009 490.995 421.881 491.102 421.78 491.233C421.679 491.363 421.608 491.515 421.572 491.676C421.537 491.838 421.537 492.005 421.573 492.166C421.609 492.327 421.68 492.479 421.781 492.61C422.054 493.013 422.365 493.39 422.708 493.737C423.278 494.316 423.898 494.844 424.561 495.315C425.146 495.809 425.817 496.191 426.54 496.442C426.615 496.367 425.926 495.854 424.912 494.977C424.321 494.467 423.761 493.924 423.234 493.349C422.937 493.03 422.669 492.686 422.432 492.322C422.207 491.996 422.269 491.595 422.495 491.508C422.72 491.42 423.183 491.508 423.559 491.821C423.92 492.066 424.245 492.361 424.524 492.697C424.992 493.27 425.361 493.918 425.613 494.614C425.789 495.294 426.028 495.957 426.327 496.593Z" fill="#263238"/>
<path d="M426.327 496.204C425.769 495.651 425.098 495.224 424.361 494.952C423.559 494.598 422.718 494.342 421.856 494.188C421.339 494.096 420.815 494.05 420.29 494.05C419.99 494.053 419.692 494.091 419.401 494.163C419.218 494.204 419.047 494.285 418.9 494.401C418.811 494.47 418.741 494.56 418.695 494.662C418.649 494.765 418.629 494.877 418.637 494.989C418.728 495.293 418.889 495.571 419.106 495.801C419.324 496.031 419.592 496.208 419.889 496.317C420.372 496.553 420.887 496.717 421.417 496.806C422.285 496.927 423.162 496.953 424.035 496.881C425.551 496.793 426.377 496.267 426.302 496.204C425.542 496.316 424.777 496.387 424.01 496.417C423.17 496.423 422.332 496.352 421.505 496.204C421.069 496.116 420.648 495.969 420.253 495.766C419.877 495.566 419.451 495.19 419.426 494.952C419.401 494.714 419.889 494.676 420.365 494.701C420.843 494.682 421.321 494.707 421.793 494.776C422.603 494.905 423.399 495.106 424.173 495.378C424.869 495.708 425.589 495.984 426.327 496.204Z" fill="#263238"/>
<path d="M427.705 495.303C427.818 495.49 432.439 493.724 437.813 491.082C443.186 488.439 447.332 486.072 447.194 485.871C447.056 485.671 442.672 487.788 437.312 490.418C431.951 493.048 427.58 495.115 427.705 495.303Z" fill="#263238"/>
<path d="M381.663 492.372L401.615 492.522L401.277 498.296H400.025C394.238 498.296 370.578 497.87 366.783 496.655C362.5 495.328 381.663 492.372 381.663 492.372Z" fill="#FDC62E"/>
<path d="M366.295 495.728C366.295 495.565 374.148 495.866 383.83 496.405C393.512 496.943 401.302 497.532 401.29 497.657C401.277 497.782 393.449 497.532 383.755 496.993C374.06 496.455 366.282 495.929 366.295 495.728Z" fill="#263238"/>
<path d="M394.952 497.307C394.877 497.244 395.065 496.918 395.466 496.43C396.009 495.763 396.672 495.202 397.419 494.777C398.248 494.318 399.193 494.113 400.137 494.188C400.864 494.276 401.24 494.539 401.202 494.601C401.164 494.664 400.751 494.601 400.112 494.601C399.303 494.652 398.516 494.883 397.808 495.278C397.111 495.684 396.457 496.158 395.854 496.693C395.365 497.119 395.027 497.357 394.952 497.307Z" fill="#263238"/>
<path d="M380.16 492.647C380.022 492.785 380.448 493.299 380.987 493.9C381.525 494.501 381.989 494.964 382.176 494.877C382.364 494.789 382.176 494.138 381.575 493.499C380.974 492.86 380.298 492.51 380.16 492.647Z" fill="#263238"/>
<path d="M378.269 492.923C378.118 493.048 378.419 493.612 378.945 494.175C379.471 494.739 380.035 495.115 380.198 495.015C380.36 494.914 380.072 494.351 379.521 493.762C378.97 493.173 378.469 492.798 378.269 492.923Z" fill="#263238"/>
<path d="M376.741 493.223C376.565 493.323 376.741 493.787 377.066 494.288C377.392 494.789 377.73 495.177 377.93 495.115C378.131 495.052 378.068 494.526 377.73 493.987C377.392 493.449 376.903 493.123 376.741 493.223Z" fill="#263238"/>
<path d="M380.147 492.835C380.647 492.305 381.015 491.666 381.225 490.969C381.515 490.241 381.647 489.46 381.613 488.677C381.592 488.199 381.486 487.728 381.3 487.287C381.197 487.034 381.058 486.797 380.886 486.585C380.64 486.302 380.295 486.123 379.922 486.084C379.748 486.068 379.573 486.089 379.408 486.145C379.243 486.201 379.091 486.291 378.962 486.409C378.834 486.527 378.731 486.67 378.662 486.83C378.592 486.99 378.556 487.162 378.557 487.337C378.555 487.799 378.601 488.261 378.694 488.714C378.836 489.47 379.054 490.208 379.346 490.919C379.558 491.616 379.921 492.258 380.41 492.798C380.309 492.11 380.124 491.437 379.859 490.794C379.648 490.084 379.489 489.36 379.383 488.627C379.321 488.212 379.295 487.793 379.308 487.374C379.308 486.999 379.596 486.698 379.859 486.723C380.122 486.748 380.435 487.074 380.598 487.487C380.774 487.883 380.88 488.307 380.911 488.74C380.972 489.456 380.904 490.177 380.711 490.869C380.455 491.503 380.266 492.162 380.147 492.835Z" fill="#263238"/>
<path d="M380.385 492.509C380.216 491.788 379.877 491.118 379.396 490.555C378.911 489.881 378.338 489.274 377.693 488.752C377.304 488.428 376.884 488.143 376.44 487.9C376.175 487.757 375.893 487.648 375.601 487.575C375.407 487.536 375.206 487.536 375.012 487.575C374.893 487.59 374.778 487.632 374.676 487.697C374.574 487.762 374.488 487.848 374.423 487.95C374.315 488.228 374.281 488.528 374.325 488.823C374.369 489.117 374.489 489.395 374.674 489.629C374.946 490.066 375.299 490.449 375.714 490.756C376.415 491.258 377.171 491.679 377.968 492.008C378.694 492.431 379.541 492.599 380.373 492.484C379.64 492.237 378.924 491.94 378.231 491.595C377.51 491.219 376.826 490.774 376.189 490.267C375.853 489.988 375.562 489.658 375.325 489.29C375.215 489.136 375.138 488.961 375.099 488.776C375.06 488.59 375.061 488.399 375.1 488.213C375.1 488.101 375.663 488.213 376.064 488.439C376.509 488.636 376.929 488.884 377.317 489.178C377.949 489.653 378.529 490.194 379.045 490.793C379.822 491.846 380.273 492.547 380.385 492.509Z" fill="#263238"/>
<path d="M382.126 492.372C385.294 492.88 388.501 493.094 391.708 493.01C394.91 493.154 398.118 493.041 401.302 492.672C398.117 492.38 394.918 492.271 391.721 492.347C386.435 492.296 382.139 492.196 382.126 492.372Z" fill="#263238"/>
<path d="M442.685 217.359C442.685 217.359 443.499 214.303 441.182 195.578C440.18 187.425 434.631 182.365 428.657 179.296V179.196L428.143 179.045C423.243 176.677 417.981 175.145 412.575 174.511L391.545 174.173C391.545 174.173 376.152 172.257 366.345 182.941C356.538 193.625 349.849 199.9 349.849 199.9L365.518 218.687L369.714 214.541C369.714 214.541 369.276 223.196 372.131 228.244L378.907 240.168L374.511 261.172C371.731 269.176 362.562 298.447 366.157 327.442C370.603 363.351 371.317 373.847 371.317 373.847L422.094 380.786C422.094 380.786 442.384 304.759 435.433 274.561C430.661 253.807 427.016 254.772 425.839 250.275L427.116 217.973L442.685 217.359Z" fill="#FDC62E"/>
<path d="M373.735 207.552C373.328 208.894 372.711 210.162 371.906 211.31C371.298 212.56 370.49 213.702 369.514 214.692C369.927 213.353 370.544 212.085 371.342 210.934C371.955 209.687 372.763 208.546 373.735 207.552Z" fill="#263238"/>
<path d="M419.251 246.818C418.723 246.972 418.182 247.077 417.635 247.132C416.583 247.307 415.055 247.507 413.176 247.695C408.253 248.194 403.306 248.399 398.359 248.309C393.41 248.216 388.471 247.835 383.567 247.169C381.688 246.906 380.172 246.656 379.133 246.455C378.582 246.381 378.041 246.251 377.517 246.067C378.071 246.064 378.624 246.11 379.17 246.205L383.617 246.718C387.374 247.119 392.597 247.545 398.371 247.658C404.145 247.77 409.356 247.507 413.126 247.232L417.597 246.881C418.144 246.797 418.699 246.776 419.251 246.818Z" fill="#263238"/>
<path d="M436.36 303.72C436.332 304.055 436.269 304.387 436.172 304.709C435.997 305.423 435.771 306.375 435.483 307.565C435.32 308.178 435.157 308.817 434.969 309.606C434.782 310.395 434.468 311.147 434.193 312.011C433.617 313.715 433.053 315.706 432.139 317.785L430.786 321.092C430.31 322.232 429.696 323.371 429.12 324.586C428.006 327.016 426.528 329.471 425.037 332.101C418.259 343.298 409.318 353.032 398.735 360.734C396.23 362.437 393.937 364.115 391.595 365.418C390.443 366.094 389.353 366.796 388.251 367.372L385.07 368.987C383.078 370.077 381.137 370.791 379.484 371.493C378.657 371.843 377.88 372.181 377.166 372.457L375.162 373.133L372.382 374.06C372.065 374.18 371.738 374.272 371.405 374.336C371.703 374.169 372.018 374.035 372.344 373.935L375.075 372.895L377.054 372.169C377.768 371.881 378.519 371.518 379.346 371.154C380.974 370.403 382.89 369.664 384.869 368.549L388.013 366.896C389.103 366.32 390.18 365.643 391.32 364.929C393.637 363.614 395.929 361.923 398.384 360.22C408.879 352.525 417.775 342.859 424.574 331.763C426.077 329.183 427.567 326.753 428.682 324.336C429.271 323.083 429.934 322.019 430.373 320.879C430.811 319.739 431.325 318.649 431.763 317.61C432.702 315.543 433.291 313.589 433.905 311.898C434.193 311.047 434.494 310.258 434.719 309.519C434.944 308.78 435.12 308.103 435.283 307.49L436.097 304.684C436.163 304.357 436.251 304.035 436.36 303.72Z" fill="#263238"/>
<path d="M441.883 206.4C441.636 206.587 441.367 206.743 441.082 206.864C440.556 207.139 439.829 207.552 438.74 208.041C435.851 209.511 432.755 210.533 429.559 211.072C427.323 211.394 425.046 211.27 422.858 210.709C421.631 210.383 420.461 209.872 419.388 209.193C418.269 208.45 417.268 207.542 416.42 206.5C414.749 204.216 413.246 201.813 411.923 199.311C410.458 196.806 408.554 194.301 405.661 193.349C402.768 192.397 399.724 193.111 396.956 193.9C394.269 194.841 391.475 195.442 388.639 195.691C386.948 195.752 385.263 195.458 383.692 194.828C382.121 194.198 380.7 193.246 379.52 192.033C378.34 190.819 377.427 189.372 376.84 187.785C376.254 186.197 376.006 184.504 376.114 182.815C376.2 181.416 376.517 180.04 377.054 178.745C377.477 177.63 378.12 176.612 378.945 175.751C378.289 176.723 377.735 177.76 377.292 178.845C376.804 180.123 376.529 181.473 376.478 182.841C376.426 184.458 376.705 186.069 377.298 187.574C377.892 189.08 378.786 190.448 379.928 191.595C381.069 192.742 382.433 193.644 383.935 194.245C385.437 194.846 387.047 195.134 388.664 195.09C391.447 194.827 394.187 194.217 396.818 193.274C398.259 192.832 399.734 192.51 401.227 192.309C402.801 192.102 404.401 192.247 405.911 192.735C407.412 193.271 408.761 194.16 409.844 195.328C410.865 196.446 411.759 197.672 412.512 198.985C413.817 201.463 415.29 203.848 416.921 206.125C418.474 208.099 420.622 209.522 423.046 210.183C425.162 210.756 427.372 210.905 429.546 210.621C432.709 210.125 435.784 209.175 438.677 207.803L441.069 206.738C441.332 206.607 441.604 206.494 441.883 206.4Z" fill="white"/>
<path d="M412.086 250.776C412.516 250.135 412.818 249.416 412.976 248.66C413.1 247.624 412.989 246.573 412.651 245.587C412.312 244.6 411.755 243.702 411.022 242.961C410.012 241.928 408.772 241.151 407.402 240.694C405.818 240.16 404.18 239.803 402.517 239.629C400.751 239.391 398.86 239.253 396.931 238.84C394.897 238.471 392.974 237.645 391.307 236.423C390.479 235.762 389.779 234.955 389.241 234.043C388.736 233.162 388.316 232.235 387.988 231.275C387.472 229.498 386.789 227.774 385.947 226.127C385.156 224.798 384.045 223.688 382.714 222.9C381.384 222.113 379.877 221.672 378.331 221.618C376.216 221.579 374.148 222.249 372.457 223.522C371.853 224.008 371.28 224.531 370.741 225.087C370.741 225.087 370.829 224.9 371.067 224.574C371.44 224.115 371.86 223.695 372.319 223.321C374.017 221.917 376.153 221.15 378.356 221.155C379.993 221.182 381.595 221.624 383.015 222.438C384.434 223.253 385.624 224.415 386.473 225.814C387.349 227.491 388.062 229.248 388.602 231.062C389.144 232.948 390.229 234.634 391.721 235.909C393.306 237.064 395.129 237.851 397.056 238.214C398.935 238.627 400.814 238.777 402.58 239.04C406.112 239.479 409.469 240.493 411.347 242.648C412.109 243.443 412.675 244.405 412.999 245.457C413.323 246.51 413.397 247.624 413.213 248.71C413.085 249.292 412.838 249.842 412.487 250.325C412.371 250.49 412.237 250.642 412.086 250.776Z" fill="white"/>
<path d="M431.738 339.729C430.066 339.563 428.38 339.635 426.728 339.942C424.796 340.34 422.885 340.837 421.004 341.433C418.5 342.268 415.889 342.74 413.251 342.835C410.033 342.897 406.838 342.27 403.882 340.994C400.45 339.559 397.503 337.168 395.39 334.105C393.133 330.635 392.171 326.479 392.672 322.369C392.918 320.206 393.577 318.109 394.614 316.195C395.691 314.212 397.202 312.5 399.035 311.185C400.814 309.857 402.793 308.68 403.682 306.838C404.133 305.932 404.282 304.905 404.108 303.908C403.908 302.898 403.571 301.92 403.106 301.002C402.049 299.194 401.335 297.207 401.002 295.14C400.808 293.119 401.109 291.082 401.878 289.203C403.354 285.748 406.117 283.003 409.581 281.55C412.546 280.288 415.756 279.71 418.975 279.859C421.578 279.995 424.187 279.919 426.778 279.634C428.72 279.362 430.573 278.641 432.189 277.53C433.223 276.83 434.081 275.899 434.694 274.812C435.095 274.06 435.182 273.622 435.233 273.634C435.155 274.071 435.011 274.493 434.807 274.887C434.238 276.02 433.404 276.999 432.377 277.743C430.746 278.917 428.863 279.694 426.878 280.01C424.27 280.337 421.639 280.446 419.013 280.335C415.863 280.215 412.725 280.801 409.832 282.051C406.518 283.48 403.887 286.138 402.492 289.466C401.762 291.254 401.482 293.194 401.678 295.115C402.009 297.112 402.705 299.031 403.732 300.776C404.229 301.743 404.583 302.777 404.784 303.845C404.99 304.974 404.823 306.139 404.308 307.164C403.244 309.243 401.214 310.433 399.474 311.736C397.757 312.986 396.325 314.585 395.271 316.429C394.218 318.273 393.567 320.319 393.361 322.432C392.884 326.375 393.796 330.362 395.941 333.705C397.984 336.681 400.829 339.018 404.145 340.443C407.033 341.7 410.152 342.336 413.301 342.309C415.903 342.26 418.484 341.838 420.966 341.057C422.863 340.482 424.791 340.018 426.741 339.666C427.98 339.446 429.243 339.387 430.498 339.491C430.918 339.532 431.333 339.611 431.738 339.729Z" fill="white"/>
<path d="M414.015 379.671C413.952 379.671 414.015 378.795 414.103 377.229C414.224 375.032 413.834 372.837 412.963 370.816C412.347 369.46 411.268 368.367 409.919 367.735C408.325 367.118 406.615 366.857 404.909 366.971C402.922 367.131 400.924 366.883 399.035 366.245C398.059 365.791 397.202 365.118 396.53 364.278C395.863 363.425 395.284 362.506 394.802 361.535C393.978 359.64 392.899 357.865 391.595 356.262C390.335 354.817 388.825 353.612 387.136 352.705C384.261 351.154 380.964 350.566 377.73 351.027C375.548 351.338 373.449 352.079 371.555 353.206C370.228 354.02 369.576 354.609 369.539 354.571C369.501 354.534 369.676 354.396 369.977 354.108C372.143 352.208 374.815 350.98 377.667 350.576C381.004 350.026 384.428 350.59 387.412 352.179C389.178 353.099 390.758 354.339 392.071 355.836C392.763 356.611 393.38 357.45 393.912 358.341C394.438 359.268 394.889 360.233 395.378 361.184C396.14 363.071 397.535 364.635 399.323 365.606C401.132 366.214 403.044 366.457 404.947 366.32C406.755 366.216 408.564 366.511 410.245 367.184C411.688 367.894 412.833 369.092 413.477 370.566C414.329 372.664 414.664 374.936 414.454 377.191C414.391 377.98 414.316 378.594 414.241 378.995C414.187 379.227 414.112 379.454 414.015 379.671Z" fill="white"/>
<path d="M383.968 276.089C383.669 276.827 383.326 277.547 382.94 278.244C381.931 280.133 381.297 282.2 381.074 284.331C380.992 285.787 381.308 287.237 381.989 288.527C382.835 290.002 383.789 291.413 384.844 292.748C386.043 294.358 386.91 296.19 387.394 298.138C387.878 300.087 387.969 302.112 387.662 304.095C387.34 306.093 386.547 307.986 385.35 309.617C384.152 311.248 382.583 312.571 380.774 313.477C379.202 314.279 377.466 314.708 375.701 314.729C373.826 314.709 371.988 314.21 370.359 313.281C368.731 312.351 367.366 311.022 366.395 309.419C366.102 308.904 365.859 308.363 365.668 307.803C365.591 307.606 365.545 307.399 365.531 307.189C365.858 307.909 366.221 308.611 366.62 309.293C367.791 311.084 369.47 312.484 371.442 313.314C372.78 313.903 374.228 314.197 375.688 314.178C377.371 314.138 379.021 313.709 380.511 312.926C382.221 312.05 383.702 310.784 384.833 309.23C385.964 307.677 386.715 305.879 387.024 303.983C387.61 300.131 386.646 296.204 384.343 293.061C383.286 291.695 382.336 290.251 381.5 288.74C380.8 287.359 380.493 285.812 380.611 284.268C380.875 282.09 381.592 279.991 382.715 278.106C383.091 277.43 383.391 276.916 383.617 276.578C383.717 276.404 383.835 276.24 383.968 276.089Z" fill="white"/>
<path d="M421.705 234.068C421.602 233.578 421.552 233.078 421.555 232.577C421.555 231.475 421.43 230.072 421.355 228.494C421.179 224.912 420.954 220.24 420.703 215.067C420.453 209.895 420.278 205.047 420.24 201.616C420.24 199.887 420.24 198.497 420.24 197.532C420.216 197.029 420.249 196.525 420.34 196.029C420.452 196.522 420.502 197.027 420.491 197.532C420.553 198.622 420.616 200.037 420.703 201.603C420.866 205.185 421.092 209.857 421.355 215.03C421.618 220.203 421.768 225.05 421.806 228.482C421.806 230.21 421.806 231.6 421.806 232.565C421.83 233.068 421.796 233.572 421.705 234.068Z" fill="#263238"/>
<path d="M421.267 218.199C421.267 218.199 423.359 243.474 420.954 245.228C407.565 254.584 389.767 258.341 383.379 259.456C382.49 259.13 381.463 258.742 380.273 258.204C379.242 257.745 378.298 257.114 377.48 256.337C376.425 255.412 375.499 254.35 374.724 253.181C374.631 252.924 374.457 252.705 374.228 252.557C373.999 252.408 373.728 252.338 373.455 252.358C373.183 252.378 372.925 252.486 372.72 252.667C372.515 252.847 372.374 253.089 372.319 253.356C372.156 254.521 373.735 257.728 377.004 260.283C380.273 262.838 373.847 262.988 371.505 263.076C369.163 263.164 361.948 263.802 361.422 264.566C360.646 265.669 361.673 266.746 364.015 266.595C366.357 266.445 373.371 266.508 373.384 267.773C373.396 269.038 361.473 269.326 361.473 269.326C361.473 269.326 358.968 268.975 358.88 270.428C358.805 273.058 371.405 271.781 372.657 271.681C373.497 271.58 373.547 272.933 372.657 273.021C371.768 273.108 360.771 273.021 360.671 275.714C360.596 277.768 371.067 274.762 373.359 276.064C375.651 277.367 365.18 277.517 365.192 279.484C365.192 280.223 365.293 280.736 371.28 279.797C375.564 278.904 379.795 277.775 383.955 276.415V276.478C383.955 276.478 446.217 271.142 444.651 243.073C443.599 224.073 443.95 227.58 442.785 217.597" fill="#B78876"/>
</svg>
