<svg width="745" height="492" viewBox="0 0 745 492" fill="none" xmlns="http://www.w3.org/2000/svg">
<path d="M687.649 16.9508H543.053V276.703H687.649V16.9508Z" fill="#EBEBEB"/>
<path d="M680.375 24.4905H548.832V268.964H680.375V24.4905Z" fill="#FAFAFA"/>
<path d="M693.76 279.05L687.649 276.703V12.5553H693.76V279.05Z" fill="#E0E0E0"/>
<path d="M683.231 94.8175H548.832V97.4193H683.231V94.8175Z" fill="#E0E0E0"/>
<path d="M683.231 153.032H548.832V155.634H683.231V153.032Z" fill="#E0E0E0"/>
<path d="M683.231 211.258H548.832V213.86H683.231V211.258Z" fill="#E0E0E0"/>
<path d="M611.277 96.1129V275.894H617.92V96.1129H611.277Z" fill="#E0E0E0"/>
<path d="M577.176 24.4905H574.164V96.124H577.176V24.4905Z" fill="#E0E0E0"/>
<path d="M603.139 24.4905H600.127V96.124H603.139V24.4905Z" fill="#E0E0E0"/>
<path d="M629.113 24.4905H626.102V96.124H629.113V24.4905Z" fill="#E0E0E0"/>
<path d="M655.076 24.4905H652.065V96.124H655.076V24.4905Z" fill="#E0E0E0"/>
<path d="M543.053 12.5553H536.941V278.319H543.053V12.5553Z" fill="#E0E0E0"/>
<path d="M693.76 9.86487H536.941V16.9507H693.76V9.86487Z" fill="#E0E0E0"/>
<path d="M697.901 279.913H532.601V286.512H697.901V279.913Z" fill="#E0E0E0"/>
<path d="M687.649 276.703L697.901 279.913H532.601L543.053 276.703H687.649Z" fill="#E0E0E0"/>
<path d="M71.4342 340.464H26.749V352.289H71.4342V340.464Z" fill="#EBEBEB"/>
<path d="M52.5349 364.733C52.5305 364.663 52.5305 364.593 52.5349 364.523V363.914C52.5349 363.36 52.5349 362.585 52.5349 361.589C52.5349 359.552 52.5349 356.618 52.4574 352.92L52.5903 353.053L7.86085 353.186L8.08229 352.964V358.965C8.08229 360.936 8.08229 362.884 8.08229 364.778L7.86085 364.556L39.7029 364.656L49.1027 364.722H51.6492H52.546C52.546 364.722 52.4796 364.722 52.3467 364.722H51.7046H49.2135L39.869 364.778L7.86085 364.877H7.63942V352.92C8.09336 352.455 7.76121 352.787 7.87193 352.687L52.546 352.776H52.6899V352.92C52.6899 356.651 52.6899 359.563 52.6124 361.666C52.6124 362.652 52.6124 363.416 52.6124 363.969C52.6124 364.202 52.6124 364.401 52.6124 364.545C52.6124 364.689 52.546 364.744 52.5349 364.733Z" fill="#E0E0E0"/>
<path d="M62.1894 34.92C62.1894 34.92 62.1894 34.8425 62.1894 34.7097V34.1007C62.1894 33.5471 62.1894 32.7721 62.1894 31.7757C62.1894 29.7385 62.1894 26.8045 62.1119 23.1066L62.2448 23.2394L17.5707 23.328L17.7921 23.1066V34.92L17.5596 34.6986L49.4128 34.7982L58.8126 34.8647H61.348H62.2448C62.2448 34.8647 62.1894 34.8647 62.0455 34.8647H61.4034H58.9122L49.5678 34.92L17.5596 35.0197H17.3382V23.1176L17.5707 22.8851L62.2448 22.9737H62.3334V23.1176C62.3334 26.8488 62.3334 29.7606 62.2559 31.8642C62.2559 32.8496 62.2559 33.6136 62.2559 34.1671C62.2559 34.3996 62.2559 34.5989 62.2559 34.7429C62.2559 34.8868 62.2005 34.9311 62.1894 34.92Z" fill="#E0E0E0"/>
<path d="M744.845 346.388C744.84 346.318 744.84 346.247 744.845 346.177V345.568C744.845 345.015 744.845 344.24 744.845 343.243C744.845 341.195 744.845 338.261 744.767 334.563L744.9 334.707L700.215 334.796C700.326 334.696 699.994 335.017 700.448 334.563V340.553C700.448 342.524 700.448 344.461 700.448 346.365L700.226 346.144L732.068 346.244L741.468 346.31H744.015H744.679H744.037H741.546L732.168 346.543L700.171 346.642H699.949V334.585L700.171 334.364L744.856 334.452H745V334.585C745 338.327 744.933 341.284 744.922 343.343C744.922 344.332 744.922 345.096 744.922 345.635C744.922 345.878 744.922 346.066 744.922 346.221C744.922 346.376 744.856 346.388 744.845 346.388Z" fill="#E0E0E0"/>
<path d="M149.799 103.719C149.795 103.649 149.795 103.579 149.799 103.509V102.9C149.799 102.346 149.799 101.571 149.799 100.575C149.799 98.5266 149.799 95.6036 149.733 91.8946L149.866 92.0386L105.181 92.1272L105.413 91.8946V97.8844C105.413 99.8552 105.413 101.793 105.413 103.697L105.192 103.476L137.034 103.575L146.434 103.642H148.98H149.666H149.035H146.544L137.189 103.708L105.192 103.808H104.97V94.7843C104.97 94.2861 104.97 93.7879 104.97 93.2786V91.8946L105.203 91.6732L149.888 91.7618H150.032V91.8946C150.032 95.6369 149.965 98.5376 149.954 100.652C149.954 101.638 149.954 102.402 149.954 102.955C149.954 103.188 149.954 103.376 149.954 103.531C149.911 103.6 149.859 103.663 149.799 103.719Z" fill="#E0E0E0"/>
<path d="M155.889 91.8946C155.884 91.8209 155.884 91.7469 155.889 91.6732C155.889 91.5071 155.889 91.2967 155.889 91.0531C155.889 90.4663 155.889 89.6803 155.889 88.6727C155.889 86.6023 155.889 83.6794 155.8 80.0811L155.966 80.2362L129.118 80.3026C128.918 80.5129 129.394 80.0258 129.35 80.0811V86.1484C129.35 88.1192 129.35 90.0346 129.35 91.8725L129.129 91.6621L148.338 91.7617L153.929 91.8282H155.446H155.977C155.815 91.8442 155.652 91.8442 155.49 91.8282H154.029L148.493 91.8946L129.14 91.9942H128.929V91.8946C128.929 90.0567 128.929 88.1413 128.929 86.1706V80.1033C128.874 80.1033 129.361 79.6715 129.151 79.8708L155.999 79.9372H156.166V80.1033C156.166 83.7459 156.099 86.7463 156.077 88.7945C156.077 89.7799 156.077 90.5549 156.077 91.1306C156.029 91.3888 155.967 91.6439 155.889 91.8946Z" fill="#E0E0E0"/>
<path d="M738.678 99.8553C738.67 99.7817 738.67 99.7074 738.678 99.6338C738.678 99.4788 738.678 99.2795 738.678 99.036C738.678 98.4713 738.678 97.6963 738.678 96.6998C738.678 94.6627 738.678 91.7287 738.6 88.0307L738.744 88.1636L694.059 88.2633C694.159 88.1525 693.827 88.4847 694.281 88.0307V99.8331L694.059 99.6117L725.901 99.7113H735.301H737.837H738.501H738.744H737.892H735.401L726.056 99.7778L694.059 99.8774H693.838V99.656C693.838 97.7516 693.838 95.8141 693.838 93.8323V87.8536L694.07 87.6211L738.756 87.7097H738.811V87.8536C738.811 91.5847 738.811 94.4966 738.733 96.6113C738.733 97.5856 738.733 98.3606 738.733 98.9031V99.6449C738.678 99.7888 738.678 99.8553 738.678 99.8553Z" fill="#E0E0E0"/>
<path d="M744.734 88.0308C744.726 87.9572 744.726 87.883 744.734 87.8094V87.1783C744.734 86.6026 744.734 85.8054 744.734 84.809C744.734 82.7386 744.734 79.8046 744.646 76.2063L744.812 76.3724L717.885 76.3945C717.686 76.5938 718.162 76.1177 718.107 76.162V82.2293C718.107 84.2111 718.107 86.1265 718.107 87.9644L717.897 87.743L737.106 87.8537H742.642H744.147C744.328 87.8382 744.509 87.8382 744.69 87.8537C744.528 87.8716 744.365 87.8716 744.203 87.8537H742.741H737.205L717.852 87.9644H717.631V82.0078C717.631 81.0225 717.631 80.0149 717.631 78.9964V75.9406C717.631 75.9406 718.063 75.5088 717.863 75.7191L744.712 75.7745H744.878V75.9295C744.878 79.5721 744.812 82.5725 744.79 84.6318C744.79 85.6172 744.79 86.3922 744.79 86.9679C744.799 87.3231 744.78 87.6785 744.734 88.0308Z" fill="#E0E0E0"/>
<path d="M71.2128 186.081H26.5276V197.906H71.2128V186.081Z" fill="#E0E0E0"/>
<path d="M103.343 161.801H58.6576V173.626H103.343V161.801Z" fill="#EBEBEB"/>
<path d="M84.4766 186.081C84.4655 186.008 84.4655 185.933 84.4766 185.86V185.251C84.4766 184.697 84.4766 183.922 84.4766 182.926C84.4766 180.889 84.4766 177.955 84.3991 174.257L84.543 174.39L39.8579 174.478L40.0793 174.257V186.059L39.8579 185.827L71.6999 185.937H81.0998H83.6462H84.3105H84.543H83.7016H81.1994L71.8549 186.004L39.8579 186.103H39.6365V185.882C39.6365 183.978 39.6365 182.04 39.6365 180.058V174.08L39.869 173.847L84.5541 173.936H84.687V174.08C84.687 177.811 84.687 180.778 84.6095 182.837C84.6095 183.812 84.6095 184.575 84.6095 185.129C84.6095 185.373 84.6095 185.561 84.6095 185.716C84.5842 185.844 84.5393 185.967 84.4766 186.081Z" fill="#E0E0E0"/>
<path d="M533.266 352.145H488.581V363.969H533.266V352.145Z" fill="#E0E0E0"/>
<path d="M565.396 327.865H520.711V339.689H565.396V327.865Z" fill="#EBEBEB"/>
<path d="M546.496 352.145C546.496 352.145 546.496 352.067 546.496 351.923V351.325C546.496 350.761 546.496 349.986 546.496 348.989C546.496 346.952 546.496 344.018 546.419 340.32L546.552 340.453L501.878 340.553C501.977 340.442 501.645 340.774 502.099 340.32V352.123L501.867 351.901L533.72 352.001L543.12 352.056H545.655H546.319H546.552H545.71H543.219L533.875 352.123L501.867 352.222H501.645V340.342L501.878 340.11L546.552 340.198H546.696V340.342C546.696 344.074 546.696 347.041 546.618 349.1C546.618 350.074 546.618 350.849 546.618 351.392C546.618 351.635 546.618 351.824 546.618 351.979C546.618 352.134 546.507 352.145 546.496 352.145Z" fill="#E0E0E0"/>
<path d="M188.096 285.062C188.092 284.988 188.092 284.914 188.096 284.84V284.231C188.096 283.678 188.096 282.903 188.096 281.906C188.096 279.869 188.096 276.935 188.03 273.237L188.163 273.37L143.477 273.459C143.577 273.359 143.256 273.691 143.71 273.237V279.216C143.71 281.198 143.71 283.135 143.71 285.04L143.489 284.807L175.331 284.918L184.73 284.973H187.277H187.941C188.018 284.965 188.096 284.965 188.174 284.973H187.332H184.841L175.486 285.04L143.489 285.139H143.156V273.259C143.61 272.805 143.278 273.126 143.378 273.027L188.063 273.115H188.207V273.259C188.207 276.99 188.14 279.902 188.129 282.017C188.129 282.991 188.129 283.755 188.129 284.309V284.896C188.122 284.952 188.111 285.007 188.096 285.062Z" fill="#E0E0E0"/>
<path d="M194.152 273.237C194.152 273.237 194.152 273.149 194.152 273.016C194.152 272.883 194.152 272.639 194.152 272.385C194.152 271.798 194.152 271.012 194.152 270.015C194.152 267.945 194.152 265.011 194.064 261.413L194.23 261.579L167.381 261.645L167.614 261.413V267.48C167.614 269.462 167.614 271.377 167.614 273.215L167.392 272.994L186.601 273.104L192.193 273.16H193.709H194.241C194.079 273.17 193.916 273.17 193.754 273.16H192.292L186.756 273.215L167.403 273.315H167.193V273.093C167.193 271.255 167.193 269.34 167.193 267.358V261.291L167.414 261.069H194.263H194.429V261.236C194.429 264.878 194.363 267.879 194.341 269.938C194.341 270.923 194.341 271.698 194.341 272.274C194.301 272.599 194.238 272.921 194.152 273.237Z" fill="#E0E0E0"/>
<path d="M734.194 479.148C734.194 479.303 569.824 479.436 367.114 479.436C164.403 479.436 0 479.303 0 479.148C0 478.993 164.325 478.86 367.114 478.86C569.902 478.86 734.194 478.982 734.194 479.148Z" fill="#263238"/>
<path d="M695.222 437.994L702.33 466.238L714.398 486.942C714.604 487.296 714.736 487.688 714.785 488.095C714.834 488.501 714.798 488.914 714.681 489.306C714.563 489.698 714.367 490.063 714.103 490.376C713.839 490.689 713.514 490.945 713.147 491.127C712.725 491.343 712.258 491.455 711.785 491.455C711.311 491.455 710.845 491.343 710.423 491.127C704.998 488.204 685.113 477.343 684.715 475.25C684.239 472.826 675.226 445.966 675.226 445.966L695.222 437.994Z" fill="#FDC62D"/>
<g opacity="0.6">
<path d="M713.147 491.127L684.183 473.313L684.516 474.498C684.798 475.527 685.438 476.421 686.32 477.022C688.678 478.627 695.299 482.901 710.335 491.105C710.767 491.337 711.25 491.458 711.741 491.458C712.231 491.458 712.714 491.337 713.147 491.105V491.127Z" fill="white"/>
</g>
<g opacity="0.6">
<path d="M687.449 462.662C687.867 462.82 688.211 463.126 688.416 463.523C688.62 463.92 688.67 464.378 688.557 464.81C688.414 465.228 688.117 465.577 687.726 465.783C687.334 465.989 686.879 466.037 686.453 465.917C686.013 465.749 685.65 465.424 685.436 465.005C685.221 464.586 685.169 464.102 685.291 463.647C685.484 463.223 685.835 462.891 686.268 462.72C686.701 462.549 687.184 462.552 687.616 462.728" fill="white"/>
</g>
<path d="M703.382 480.631C703.822 479.57 704.452 478.598 705.242 477.764C706.156 477.067 707.198 476.556 708.308 476.258C708.308 476.18 707.899 476.059 707.201 476.147C706.311 476.294 705.481 476.69 704.807 477.29C704.133 477.89 703.642 478.668 703.393 479.535C703.193 480.199 703.271 480.631 703.382 480.631Z" fill="#263238"/>
<path d="M706.382 483.831C706.548 483.908 707.201 482.723 708.53 481.937C709.389 481.515 710.272 481.146 711.176 480.83C710.67 480.683 710.135 480.658 709.617 480.758C709.099 480.858 708.613 481.08 708.198 481.406C706.703 482.347 706.216 483.831 706.382 483.831Z" fill="#263238"/>
<path d="M698.289 476.845C700.066 474.443 702.506 472.611 705.308 471.574C703.757 471.691 702.272 472.25 701.028 473.184C699.784 474.117 698.834 475.388 698.289 476.845Z" fill="#263238"/>
<path d="M695.41 468.441C695.532 468.585 696.905 467.511 698.898 466.88C700.891 466.249 702.629 466.293 702.64 466.105C702.651 465.917 700.846 465.574 698.698 466.271C697.382 466.588 696.219 467.356 695.41 468.441Z" fill="#263238"/>
<path d="M693.107 460.204C694.221 459.468 695.432 458.89 696.705 458.488C698.02 458.276 699.357 458.242 700.68 458.388C700.68 458.322 700.304 458.056 699.573 457.857C698.586 457.62 697.557 457.621 696.57 457.857C695.583 458.094 694.666 458.56 693.893 459.219C693.295 459.728 693.052 460.149 693.107 460.204Z" fill="#263238"/>
<path d="M696.218 456.927C696.212 456.544 696.125 456.167 695.964 455.82C695.593 454.875 695.044 454.011 694.347 453.273C693.883 452.693 693.241 452.28 692.52 452.1C692.275 452.065 692.025 452.105 691.804 452.216C691.582 452.327 691.399 452.502 691.28 452.72C691.086 453.159 691.055 453.654 691.192 454.115C691.516 455.041 692.154 455.824 692.995 456.33C693.836 456.835 694.828 457.031 695.798 456.883C696.753 456.722 697.638 456.281 698.34 455.614C699.043 454.947 699.53 454.086 699.739 453.14C699.794 452.902 699.795 452.654 699.743 452.415C699.692 452.176 699.588 451.951 699.44 451.756C699.278 451.566 699.056 451.436 698.811 451.388C698.566 451.34 698.311 451.376 698.089 451.491C697.443 451.831 696.897 452.335 696.506 452.952C695.915 453.773 695.473 454.691 695.2 455.665C695.069 456.018 695.012 456.395 695.034 456.772C695.465 455.509 696.085 454.318 696.872 453.24C697.232 452.715 697.714 452.285 698.278 451.989C698.401 451.931 698.539 451.914 698.672 451.94C698.805 451.966 698.927 452.033 699.019 452.133C699.105 452.268 699.162 452.419 699.186 452.577C699.211 452.735 699.203 452.897 699.163 453.052C698.948 453.859 698.508 454.59 697.895 455.158C697.281 455.726 696.52 456.109 695.698 456.262C694.874 456.382 694.035 456.216 693.318 455.793C692.601 455.371 692.05 454.716 691.756 453.937C691.644 453.626 691.644 453.285 691.756 452.974C691.818 452.852 691.916 452.752 692.037 452.688C692.158 452.625 692.296 452.601 692.432 452.62C693.044 452.769 693.594 453.106 694.004 453.583C694.934 454.558 695.683 455.69 696.218 456.927Z" fill="#263238"/>
<path d="M600.094 442.456L601.666 466.172C601.666 466.172 578.062 474.01 577.918 478.428L624.053 478.76L623.123 441.692L600.094 442.456Z" fill="#FDC62D"/>
<g opacity="0.6">
<path d="M615.916 463.747C616.362 463.871 616.747 464.156 616.998 464.545C617.249 464.935 617.349 465.403 617.277 465.862C617.171 466.313 616.897 466.706 616.51 466.962C616.123 467.217 615.653 467.315 615.196 467.234C614.729 467.102 614.327 466.805 614.064 466.397C613.801 465.989 613.695 465.5 613.768 465.02C613.925 464.561 614.254 464.181 614.685 463.96C615.117 463.739 615.618 463.695 616.082 463.835" fill="white"/>
</g>
<g opacity="0.6">
<path d="M624.053 478.76L623.965 475.018L579.379 476.258C578.906 476.497 578.501 476.852 578.201 477.289C577.901 477.726 577.716 478.232 577.663 478.76H624.053Z" fill="white"/>
</g>
<path d="M600.914 465.961C600.914 466.194 602.021 466.26 603.128 466.947C604.235 467.633 604.877 468.563 605.088 468.475C605.298 468.386 604.91 467.091 603.538 466.26C602.165 465.43 600.858 465.762 600.914 465.961Z" fill="#263238"/>
<path d="M596.142 468.109C596.142 468.331 597.083 468.685 597.869 469.615C598.655 470.545 598.921 471.541 599.142 471.53C599.363 471.519 599.474 470.235 598.467 469.095C597.459 467.954 596.142 467.899 596.142 468.109Z" fill="#263238"/>
<path d="M593.573 473.988C593.772 473.988 594.049 472.881 593.44 471.674C592.831 470.467 591.757 470.002 591.669 470.191C591.58 470.379 592.244 471.021 592.776 472.028C593.307 473.036 593.341 473.966 593.573 473.988Z" fill="#263238"/>
<path d="M601.157 460.514C601.257 460.724 602.264 460.381 603.56 460.425C604.855 460.47 605.84 460.846 605.951 460.647C606.062 460.448 605.076 459.684 603.582 459.639C602.087 459.595 601.035 460.348 601.157 460.514Z" fill="#263238"/>
<g opacity="0.3">
<path d="M600.415 447.15L600.692 451.38L623.345 450.483L623.256 446.674L600.415 447.15Z" fill="black"/>
</g>
<path d="M600.925 455.731C601.69 455.907 602.489 455.877 603.239 455.642C604.065 455.468 604.868 455.197 605.63 454.834C606.084 454.617 606.521 454.365 606.937 454.081C607.193 453.935 607.422 453.743 607.612 453.517C607.754 453.353 607.838 453.147 607.85 452.93C607.863 452.714 607.802 452.499 607.678 452.321C607.561 452.168 607.411 452.044 607.238 451.96C607.065 451.875 606.874 451.832 606.682 451.834C606.389 451.841 606.098 451.889 605.818 451.978C605.331 452.116 604.856 452.298 604.401 452.52C603.629 452.891 602.922 453.384 602.309 453.982C601.268 455 600.936 455.853 601.013 455.897C601.091 455.941 601.611 455.244 602.674 454.391C603.295 453.901 603.976 453.492 604.7 453.173C605.127 452.989 605.568 452.837 606.018 452.72C606.494 452.587 606.914 452.565 607.047 452.775C607.18 452.985 607.047 452.897 607.047 453.041C606.899 453.198 606.732 453.336 606.549 453.45C605.503 454.173 604.353 454.732 603.139 455.111C602.387 455.266 601.648 455.473 600.925 455.731Z" fill="#263238"/>
<path d="M601.235 456.041C601.641 455.377 601.831 454.603 601.777 453.827C601.788 452.969 601.653 452.115 601.379 451.302C601.212 450.822 601.001 450.359 600.747 449.918C600.613 449.62 600.403 449.361 600.14 449.167C599.876 448.973 599.567 448.851 599.242 448.811C599.038 448.826 598.842 448.897 598.676 449.016C598.51 449.135 598.38 449.298 598.301 449.487C598.189 449.759 598.118 450.046 598.09 450.339C598.006 450.852 598.006 451.376 598.09 451.889C598.238 452.751 598.6 453.562 599.142 454.247C600.083 455.421 601.035 455.653 601.046 455.576C601.057 455.498 600.415 455.044 599.64 453.937C599.221 453.288 598.949 452.555 598.843 451.789C598.782 451.349 598.782 450.902 598.843 450.461C598.843 449.963 599.076 449.564 599.264 449.608C599.452 449.653 599.895 449.952 600.094 450.339C600.328 450.733 600.532 451.143 600.703 451.568C600.979 452.305 601.154 453.076 601.223 453.86C601.323 455.155 601.102 456.008 601.235 456.041Z" fill="#263238"/>
<path d="M599.983 235.616L670.266 235.084L704.234 458.178L675.06 461.876L637.682 278.441L626.489 462.529L626.456 463.083L594.913 462.529L599.983 235.616Z" fill="#263238"/>
<path d="M635.324 273.636C635.351 272.728 635.292 271.82 635.147 270.923C634.981 269.24 634.804 266.937 634.726 264.38C634.649 261.822 634.726 259.497 634.726 257.825C634.813 256.916 634.813 256 634.726 255.091C634.478 255.971 634.337 256.878 634.306 257.792C633.907 262.184 634.04 266.608 634.704 270.967C634.791 271.88 634.999 272.778 635.324 273.636Z" fill="#455A64"/>
<path d="M629.534 255.755C629.534 255.755 629.412 255.622 629.124 255.6C628.727 255.588 628.337 255.709 628.017 255.943C627.754 256.123 627.537 256.362 627.383 256.641C627.229 256.919 627.143 257.23 627.131 257.549C627.165 257.945 627.314 258.324 627.559 258.637C627.805 258.951 628.136 259.186 628.513 259.314C628.891 259.442 629.297 259.458 629.683 259.358C630.068 259.259 630.417 259.05 630.685 258.755C630.871 258.496 630.993 258.197 631.043 257.881C631.093 257.566 631.069 257.244 630.973 256.94C630.853 256.542 630.598 256.197 630.253 255.965C630.01 255.81 629.844 255.81 629.833 255.832C629.822 255.855 630.397 256.165 630.574 257.05C630.626 257.288 630.625 257.534 630.571 257.771C630.517 258.008 630.413 258.231 630.265 258.423C630.061 258.62 629.807 258.756 629.531 258.817C629.254 258.879 628.966 258.863 628.699 258.771C628.431 258.68 628.194 258.516 628.013 258.299C627.832 258.081 627.715 257.818 627.674 257.537C627.676 257.296 627.73 257.058 627.831 256.838C627.932 256.619 628.079 256.423 628.261 256.264C628.881 255.655 629.534 255.832 629.534 255.755Z" fill="#455A64"/>
<path d="M647.536 251.238C647.536 251.238 647.736 251.481 648.178 251.824C648.802 252.312 649.473 252.735 650.182 253.087C651.241 253.62 652.355 254.036 653.504 254.327C654.902 254.676 656.336 254.858 657.777 254.869C659.221 254.856 660.659 254.677 662.062 254.338C663.212 254.043 664.326 253.624 665.384 253.087C666.092 252.738 666.763 252.319 667.388 251.836C667.819 251.492 668.052 251.282 668.03 251.249C668.008 251.216 666.989 251.913 665.207 252.721C664.162 253.19 663.076 253.561 661.963 253.828C659.228 254.471 656.382 254.471 653.648 253.828C652.531 253.571 651.444 253.2 650.404 252.721C648.577 251.902 647.603 251.149 647.536 251.238Z" fill="#455A64"/>
<path d="M604.025 255.965C604.632 256.232 605.288 256.371 605.951 256.375C609.166 256.614 612.361 255.699 614.963 253.795C615.523 253.442 616.006 252.979 616.381 252.433C612.827 255.07 608.435 256.325 604.025 255.965Z" fill="#455A64"/>
<path d="M693.107 460.204C693.027 460.051 692.961 459.892 692.908 459.728C692.808 459.407 692.664 458.909 692.509 458.255C692.199 456.949 691.778 455.011 691.269 452.498C690.273 447.483 688.9 440.22 687.261 431.218C683.94 413.227 679.622 388.349 674.806 360.858C669.989 333.367 665.594 308.511 662.428 290.476C660.8 281.497 659.483 274.223 658.575 269.163C658.099 266.672 657.733 264.734 657.467 263.372C657.335 262.73 657.235 262.265 657.169 261.867L657.047 261.357C657.047 261.357 657.047 261.534 657.102 261.878C657.157 262.221 657.246 262.752 657.346 263.394C657.578 264.745 657.899 266.716 658.331 269.196C659.195 274.267 660.446 281.552 661.996 290.542L674.175 360.958C678.98 388.449 683.419 413.316 686.796 431.296C688.479 440.286 689.907 447.549 690.981 452.542C692.055 457.536 692.897 460.293 693.107 460.204Z" fill="#455A64"/>
<path d="M603.526 457.691C603.526 457.691 603.526 457.514 603.526 457.17C603.526 456.827 603.526 456.307 603.526 455.665C603.526 454.314 603.526 452.343 603.526 449.863C603.526 447.383 603.527 444.25 603.626 440.674C603.726 437.097 603.704 433.012 603.825 428.495C604.003 419.482 604.346 408.754 604.866 396.852C605.387 384.95 606.173 371.863 607.18 358.157C608.188 344.45 609.394 331.385 610.668 319.528C611.941 307.67 613.192 297.019 614.366 288.073C614.919 283.644 615.473 279.57 615.971 276.016C616.469 272.462 616.89 269.373 617.255 266.926C617.621 264.479 617.875 262.498 618.064 261.18C618.152 260.538 618.219 260.073 618.263 259.674C618.273 259.505 618.273 259.335 618.263 259.165C618.263 259.165 618.263 259.331 618.163 259.674C618.064 260.018 618.008 260.527 617.909 261.158C617.687 262.498 617.377 264.424 616.99 266.893C616.602 269.362 616.115 272.429 615.606 275.972C615.096 279.515 614.498 283.556 613.912 288.029C612.694 296.964 611.387 307.615 610.092 319.472C608.797 331.33 607.601 344.384 606.56 358.112C605.519 371.841 604.811 384.917 604.29 396.863C603.77 408.809 603.493 419.505 603.371 428.528C603.283 433.034 603.283 437.109 603.25 440.707C603.216 444.305 603.25 447.35 603.25 449.896C603.25 452.443 603.25 454.325 603.25 455.698C603.25 456.34 603.25 456.805 603.25 457.204C603.25 457.602 603.526 457.691 603.526 457.691Z" fill="#455A64"/>
<path d="M530.852 149.622L574.773 162.443L599.375 147.917L618.041 170.06L583.221 185.14C580.76 186.206 578.094 186.713 575.414 186.625C572.734 186.537 570.106 185.856 567.721 184.631L524.541 162.487L530.852 149.622Z" fill="#FFBE9D"/>
<path d="M520.832 145.393L515.396 142.57L500.272 134.698C500.002 134.589 499.705 134.568 499.422 134.635C499.14 134.703 498.885 134.857 498.693 135.075C498.501 135.294 498.381 135.567 498.351 135.856C498.321 136.145 498.381 136.437 498.523 136.691L508.166 144.618L504.092 146.146C503.29 146.454 502.631 147.05 502.243 147.818L500.106 152.08C500.106 152.08 497.648 152.346 497.405 153.929C497.161 155.512 498.999 156.077 498.999 156.077L498.534 157.937C498.428 158.366 498.414 158.813 498.492 159.248C498.57 159.683 498.739 160.096 498.988 160.461C501.324 161.425 503.184 156.52 503.184 156.52L505.686 156.786L508.41 162.321C511.875 163.163 510.237 157.693 510.237 157.693L511.765 158.081C513.293 158.457 514.09 159.542 516.47 160.76C518.85 161.978 523.512 162.41 523.512 162.41L526.966 164.956L537.484 150.574L520.832 145.393Z" fill="#FAFAFA"/>
<path d="M520.832 145.393L521.131 145.448L521.984 145.692L525.305 146.677L537.573 150.419L537.827 150.497L537.661 150.707L527.243 165.1L527.088 165.311L526.889 165.156L523.423 162.62H523.556C521.223 162.441 518.927 161.934 516.736 161.115C515.635 160.572 514.583 159.935 513.591 159.21C513.112 158.863 512.587 158.583 512.03 158.38C511.466 158.225 510.835 158.081 510.237 157.926L510.569 157.572C510.875 158.59 511.003 159.654 510.945 160.716C510.932 161.018 510.858 161.315 510.729 161.589C510.6 161.863 510.418 162.108 510.193 162.31C509.929 162.473 509.634 162.579 509.327 162.621C509.02 162.663 508.708 162.64 508.41 162.554H508.288L508.222 162.421C507.358 160.672 506.428 158.812 505.487 156.885L505.72 157.051L503.505 156.819H503.195L503.494 156.642C503.145 157.521 502.696 158.357 502.154 159.133C501.907 159.564 501.574 159.941 501.176 160.24C500.779 160.539 500.324 160.753 499.841 160.871H499.442C499.309 160.871 499.187 160.805 499.054 160.771H498.966H498.911C498.911 160.771 498.667 160.572 498.778 160.672L498.678 160.517L498.512 160.184C498.315 159.734 498.213 159.248 498.213 158.756C498.239 158.287 498.321 157.822 498.457 157.372L498.778 156.077L498.988 156.431C498.389 156.277 497.861 155.921 497.493 155.424C497.32 155.16 497.21 154.86 497.171 154.547C497.133 154.234 497.167 153.917 497.272 153.619C497.511 153.057 497.954 152.606 498.512 152.357C499.021 152.112 499.567 151.951 500.128 151.881L499.907 152.036L501.258 149.345L501.933 148.028C502.138 147.55 502.435 147.118 502.808 146.755C503.184 146.394 503.633 146.118 504.125 145.946L505.465 145.437L508.089 144.441L508.011 144.895L498.39 136.934C498.224 136.632 498.157 136.286 498.199 135.944C498.24 135.602 498.389 135.282 498.623 135.03C498.846 134.789 499.137 134.622 499.457 134.551C499.778 134.48 500.112 134.508 500.416 134.631L515.407 142.547L519.471 144.762L520.522 145.348C520.649 145.408 520.768 145.482 520.877 145.57C520.748 145.523 520.622 145.467 520.5 145.404L519.393 144.883L515.252 142.802L500.184 135.052C499.961 134.964 499.717 134.945 499.484 134.999C499.251 135.052 499.039 135.175 498.877 135.351C498.712 135.537 498.608 135.77 498.58 136.018C498.552 136.266 498.602 136.516 498.722 136.735V136.668L508.388 144.573L508.731 144.861L508.31 145.016L505.697 146.024L504.358 146.533C503.946 146.69 503.57 146.927 503.251 147.231C502.928 147.548 502.669 147.924 502.487 148.338L501.822 149.655L500.472 152.346L500.405 152.479H500.25C499.32 152.611 498.191 153.01 497.87 153.852C497.798 154.066 497.775 154.293 497.802 154.517C497.829 154.741 497.905 154.956 498.025 155.147C498.318 155.524 498.726 155.796 499.187 155.922L499.464 155.999L499.398 156.265L499.077 157.561C498.948 157.962 498.873 158.379 498.855 158.801C498.853 159.212 498.936 159.619 499.099 159.996L499.243 160.262L499.32 160.395C499.442 160.483 499.165 160.262 499.198 160.284H499.265C499.355 160.313 499.448 160.335 499.542 160.351H499.818C500.626 160.123 501.31 159.586 501.723 158.856C502.234 158.118 502.658 157.323 502.985 156.487L503.073 156.276H503.284H503.594L505.808 156.509H505.974L506.041 156.642C506.971 158.535 507.901 160.395 508.764 162.177L508.576 162.033C508.792 162.099 509.019 162.12 509.244 162.095C509.469 162.071 509.686 162.001 509.883 161.89C510.209 161.571 510.4 161.139 510.414 160.683C510.469 159.699 510.349 158.713 510.06 157.771L509.938 157.295L510.403 157.417C511.023 157.572 511.599 157.704 512.241 157.882C512.846 158.101 513.417 158.407 513.935 158.789C514.903 159.495 515.929 160.117 517.002 160.65C519.136 161.451 521.372 161.95 523.645 162.133H523.711H523.766L527.221 164.691L526.866 164.746C530.863 159.31 534.439 154.46 537.384 150.441L537.484 150.74L525.305 146.821L522.05 145.714L521.209 145.426L520.832 145.393Z" fill="#263238"/>
<path d="M510.635 157.771C510.635 157.826 509.429 157.616 507.38 157.317C505.332 157.018 502.431 156.642 499.021 156.354H499.077C498.762 156.355 498.451 156.278 498.174 156.129C497.896 155.981 497.659 155.766 497.485 155.504C497.31 155.242 497.203 154.941 497.174 154.627C497.145 154.314 497.193 153.998 497.316 153.708C497.587 153.147 497.997 152.664 498.507 152.306C499.016 151.948 499.609 151.725 500.228 151.659C501.534 151.449 502.73 151.382 503.904 151.172C505.077 150.962 506.207 150.751 507.225 150.475C508.244 150.198 509.285 149.91 510.204 149.6C510.629 149.485 511.025 149.281 511.366 149.002C511.503 148.893 511.6 148.741 511.642 148.571C511.684 148.401 511.669 148.222 511.599 148.061C511.422 147.736 511.185 147.446 510.901 147.209L510.159 146.456C509.694 145.98 509.296 145.592 508.952 145.282C508.266 144.673 507.845 144.418 507.845 144.374C508.308 144.541 508.736 144.792 509.107 145.116C509.555 145.462 509.984 145.831 510.392 146.223L511.167 146.943C511.503 147.2 511.782 147.524 511.986 147.895C512.094 148.135 512.122 148.403 512.066 148.66C512.011 148.917 511.874 149.15 511.676 149.323C511.3 149.661 510.854 149.91 510.37 150.054C509.44 150.386 508.443 150.707 507.369 150.995C506.295 151.283 505.155 151.526 503.981 151.726C502.808 151.925 501.523 152.025 500.317 152.224C499.792 152.269 499.288 152.447 498.852 152.742C498.417 153.036 498.063 153.437 497.825 153.907C497.735 154.108 497.696 154.328 497.709 154.548C497.723 154.768 497.79 154.981 497.904 155.169C498.019 155.358 498.177 155.516 498.366 155.629C498.555 155.743 498.768 155.809 498.988 155.822C502.42 156.154 505.321 156.597 507.358 156.996C508.377 157.195 509.185 157.372 509.727 157.516C510.042 157.551 510.349 157.637 510.635 157.771Z" fill="#263238"/>
<path d="M510.237 150.01C509.326 150.41 508.32 150.544 507.336 150.397C506.822 150.378 506.31 150.311 505.808 150.198L506.074 150.043C505.742 150.796 505.476 151.272 505.376 151.239C505.277 151.205 505.376 150.663 505.609 149.877L505.664 149.7H505.875L507.369 149.799C508.33 149.771 509.291 149.841 510.237 150.01Z" fill="#263238"/>
<path d="M609.394 131.83L581.095 153.541L600.936 179.671L625.138 165.931L609.394 131.83Z" fill="#FDC62D"/>
<path d="M609.394 131.83C613.491 129.317 627.652 126.206 627.652 126.206L655.043 123.227L678.803 134.133L669.059 175.02L677.607 252.112L596.064 256.541L609.394 131.83Z" fill="#FDC62D"/>
<path d="M655.951 166.03H641.901V169.817H655.951V166.03Z" fill="#FAFAFA"/>
<path d="M655.973 169.85H641.868V166.008H655.973V169.85ZM641.923 169.85H655.917V166.075H641.923V169.85Z" fill="#263238"/>
<path d="M605.951 155.49C605.618 153.415 605.481 151.313 605.541 149.213C605.416 147.115 605.475 145.011 605.719 142.924C606.05 144.999 606.187 147.101 606.128 149.202C606.255 151.299 606.196 153.403 605.951 155.49Z" fill="#263238"/>
<path d="M657.357 85.7055L654.356 128.165C654.108 131.5 652.612 134.619 650.166 136.899C647.719 139.179 644.503 140.453 641.159 140.466C639.35 140.459 637.561 140.082 635.902 139.359C634.243 138.636 632.75 137.582 631.513 136.261C630.277 134.941 629.323 133.381 628.71 131.679C628.097 129.976 627.839 128.167 627.95 126.361C628.216 122.319 628.449 119.02 628.449 119.02C628.449 119.02 618.174 117.415 618.052 107.14C617.975 101.206 619.005 87.7316 619.879 77.4239C620.163 74.0582 621.701 70.922 624.188 68.6373C626.676 66.3526 629.932 65.0865 633.309 65.0901H639.52C642.057 65.239 644.538 65.8948 646.817 67.0185C649.096 68.1423 651.127 69.7114 652.79 71.633C654.452 73.5547 655.713 75.7901 656.498 78.2071C657.282 80.6241 657.574 83.1737 657.357 85.7055Z" fill="#FFBE9D"/>
<path d="M628.438 118.865C633.183 118.956 637.847 117.63 641.834 115.057C641.834 115.057 638.668 122.452 628.416 121.533L628.438 118.865Z" fill="#EB996E"/>
<path d="M621.972 90.4C621.966 90.782 622.11 91.1512 622.372 91.4285C622.635 91.7058 622.996 91.8691 623.378 91.8836C623.565 91.9002 623.753 91.879 623.931 91.8212C624.11 91.7634 624.275 91.6702 624.416 91.5472C624.558 91.4242 624.673 91.2739 624.755 91.1054C624.838 90.9368 624.885 90.7533 624.895 90.566C624.898 90.183 624.752 89.8138 624.487 89.5368C624.222 89.2598 623.86 89.0968 623.478 89.0824C623.292 89.0674 623.105 89.0898 622.927 89.1483C622.75 89.2068 622.587 89.3002 622.446 89.423C622.306 89.5459 622.192 89.6956 622.11 89.8634C622.029 90.0312 621.981 90.2137 621.972 90.4Z" fill="#263238"/>
<path d="M621.651 87.7206C621.828 87.9199 622.946 87.0895 624.518 87.1006C626.09 87.1117 627.253 87.8867 627.43 87.6985C627.607 87.5103 627.33 87.2667 626.821 86.9013C626.138 86.4289 625.327 86.1776 624.496 86.1817C623.672 86.1745 622.868 86.4348 622.204 86.9235C621.728 87.2888 621.562 87.6431 621.651 87.7206Z" fill="#263238"/>
<path d="M637.151 90.411C637.148 90.793 637.295 91.1609 637.559 91.4362C637.824 91.7114 638.186 91.872 638.568 91.8835C638.754 91.8986 638.941 91.8762 639.118 91.8177C639.295 91.7592 639.459 91.6658 639.599 91.5429C639.74 91.4201 639.854 91.2703 639.936 91.1025C640.017 90.9347 640.064 90.7523 640.074 90.566C640.077 90.1848 639.932 89.8172 639.67 89.5405C639.408 89.2638 639.049 89.0996 638.668 89.0824C638.48 89.0673 638.292 89.09 638.113 89.1491C637.935 89.2081 637.77 89.3024 637.629 89.4263C637.487 89.5501 637.372 89.7011 637.29 89.8702C637.208 90.0394 637.161 90.2233 637.151 90.411Z" fill="#263238"/>
<path d="M637.173 88.0195C637.35 88.2077 638.468 87.3884 640.041 87.3884C641.613 87.3884 642.775 88.1856 642.953 87.9974C643.13 87.8091 642.853 87.5656 642.344 87.1891C641.662 86.7159 640.849 86.4682 640.019 86.4805C639.197 86.4756 638.394 86.7314 637.727 87.2113C637.251 87.5877 637.085 87.9309 637.173 88.0195Z" fill="#263238"/>
<path d="M631.582 99.3347C630.751 99.0783 629.892 98.9258 629.024 98.8808C628.615 98.8808 628.238 98.759 628.172 98.4822C628.131 98.0655 628.224 97.6467 628.438 97.2865C628.814 96.3122 629.213 95.2825 629.633 94.2196C631.283 89.8463 632.49 86.248 632.313 86.1816C632.136 86.1152 630.641 89.6027 628.991 93.9317C628.593 95.0389 628.205 96.0464 627.884 97.0207C627.627 97.5065 627.553 98.068 627.674 98.604C627.733 98.7467 627.823 98.8744 627.938 98.9779C628.053 99.0813 628.19 99.1578 628.338 99.2019C628.562 99.2606 628.793 99.2903 629.024 99.2904C629.871 99.4215 630.731 99.4364 631.582 99.3347Z" fill="#263238"/>
<path d="M636.764 82.5391C636.919 82.9709 638.491 82.7716 640.351 82.993C642.211 83.2145 643.672 83.7238 643.949 83.3363C644.06 83.148 643.794 82.7495 643.185 82.3287C642.379 81.8196 641.467 81.5011 640.519 81.3975C639.572 81.2939 638.613 81.4079 637.716 81.7309C637.04 81.9966 636.697 82.3398 636.764 82.5391Z" fill="#263238"/>
<path d="M621.662 84.6205C621.939 84.9859 623.035 84.6205 624.341 84.6205C625.648 84.6205 626.755 84.853 627.009 84.4766C627.12 84.2994 626.943 83.9451 626.467 83.6019C625.816 83.1953 625.06 82.9909 624.293 83.0145C623.527 83.0382 622.784 83.2889 622.16 83.7348C621.695 84.078 621.54 84.4544 621.662 84.6205Z" fill="#263238"/>
<path d="M653.891 93.4224C654.069 93.3449 660.955 91.3299 660.734 98.3603C660.512 105.391 653.493 103.708 653.493 103.509C653.493 103.309 653.891 93.4224 653.891 93.4224Z" fill="#FFBE9D"/>
<path d="M655.774 100.918C655.774 100.918 655.895 101.007 656.106 101.106C656.249 101.167 656.404 101.198 656.56 101.198C656.715 101.198 656.87 101.167 657.014 101.106C657.477 100.835 657.861 100.444 658.123 99.9751C658.386 99.5061 658.519 98.9755 658.508 98.438C658.543 97.8371 658.444 97.2361 658.22 96.6776C658.161 96.4548 658.048 96.2499 657.892 96.0802C657.736 95.9105 657.541 95.7812 657.324 95.7033C657.185 95.6613 657.036 95.6694 656.902 95.726C656.769 95.7826 656.659 95.8843 656.593 96.0133C656.493 96.2126 656.537 96.3565 656.493 96.3676C656.449 96.3786 656.349 96.2458 656.416 95.9468C656.461 95.7778 656.562 95.6293 656.704 95.5261C656.902 95.3837 657.148 95.3242 657.39 95.36C657.673 95.4254 657.935 95.5611 658.152 95.7546C658.369 95.9482 658.533 96.1932 658.63 96.4672C658.914 97.0874 659.04 97.7684 658.995 98.449C659.008 99.0739 658.837 99.6887 658.502 100.216C658.167 100.744 657.684 101.162 657.113 101.416C656.924 101.466 656.726 101.472 656.534 101.434C656.342 101.395 656.162 101.314 656.006 101.195C655.774 101.084 655.696 100.929 655.774 100.918Z" fill="#EB996E"/>
<path d="M657.8 93.1789C657.132 93.1349 656.465 93.2735 655.87 93.5797C655.275 93.8859 654.775 94.3482 654.423 94.9171C653.958 95.9246 653.858 97.0539 653.404 98.0614C653.224 98.5836 652.874 99.0305 652.411 99.3313C651.948 99.6322 651.397 99.7698 650.847 99.7222C650.486 99.6026 650.162 99.3921 649.906 99.1109C649.65 98.8297 649.47 98.4874 649.385 98.1168C649.236 97.3676 649.236 96.5963 649.385 95.8471C649.795 92.5256 650.492 89.3148 650.625 86.0155C650.892 82.6948 650.167 79.3696 648.544 76.4607C647.718 75.0207 646.519 73.8305 645.073 73.0159C643.627 72.2013 641.988 71.7925 640.329 71.8327C638.114 72.0099 636.144 73.1502 633.973 73.4602C632.682 73.6273 631.37 73.4999 630.135 73.0877C628.901 72.6754 627.775 71.989 626.843 71.0798C626.419 70.7339 625.975 70.4123 625.515 70.1166C625.535 69.3227 625.79 68.5526 626.245 67.9023C630.552 63.9165 638.302 62.8093 643.96 64.2376C646.85 64.9494 649.55 66.2817 651.873 68.142C654.196 70.0023 656.086 72.346 657.412 75.0103C659.859 80.3357 659.139 87.7537 657.789 93.1346" fill="#263238"/>
<path d="M619.757 75.8297C619.757 75.8297 646.717 67.1606 658.386 90.4885C658.386 90.4885 660.125 84.6427 660.125 81.5205C660.125 79.4279 658.874 66.9834 646.075 63.0641C646.075 63.1083 626.777 55.7014 619.757 75.8297Z" fill="#FDC62D"/>
<path d="M642.93 76.3942C642.452 77.1666 641.8 77.8173 641.027 78.295C640.254 78.7727 639.381 79.0644 638.476 79.147C637.571 79.2297 636.66 79.101 635.813 78.7713C634.966 78.4415 634.208 77.9196 633.597 77.2467C633.327 77.9154 632.854 78.4829 632.246 78.8703C631.637 79.2577 630.923 79.4456 630.203 79.4078C629.483 79.37 628.792 79.1084 628.228 78.6595C627.663 78.2106 627.253 77.5968 627.054 76.9035C626.323 77.7185 625.429 78.371 624.43 78.8189C623.927 79.0309 623.371 79.084 622.836 78.9712C622.302 78.8584 621.815 78.5851 621.44 78.1878C621.137 77.7206 620.991 77.1684 621.025 76.6123C621.059 76.0562 621.271 75.5257 621.629 75.0988C622.357 74.2553 623.297 73.6209 624.352 73.2609C627.548 71.8552 631.058 71.3204 634.527 71.7109C638.015 72.1279 641.209 73.8677 643.451 76.5714" fill="#263238"/>
<g opacity="0.4">
<path d="M619.757 75.8297C622.006 73.4717 625.082 72.0785 628.338 71.9435C636.287 71.5892 651.168 76.0622 658.386 90.4885C658.386 90.4885 660.125 84.6427 660.125 81.5205C660.125 79.4279 658.874 66.9834 646.075 63.0641C646.075 63.1083 626.777 55.7014 619.757 75.8297Z" fill="black"/>
</g>
<path d="M657.257 87.7538C653.167 81.6636 647.808 76.5307 641.546 72.7074C635.357 68.8324 625.105 64.9573 618.041 63.1305C615.951 62.4457 613.739 62.2154 611.553 62.4551C610.458 62.5984 609.426 63.0472 608.574 63.7502C607.722 64.4531 607.086 65.3818 606.737 66.4298C606.073 69.087 610.789 73.1946 613.015 74.8111C615.188 76.261 617.439 77.5915 619.757 78.7968C619.757 78.7968 619.702 73.8589 627.607 72.8403C638.358 71.4231 657.257 87.7538 657.257 87.7538Z" fill="#FDC62D"/>
<path d="M635.147 67.6034C632.723 66.3091 630.106 65.4155 627.397 64.9573C628.048 64.4498 628.758 64.0224 629.512 63.6841C631.631 64.0376 633.679 64.7291 635.579 65.7323L635.147 67.6034Z" fill="#E0E0E0"/>
<path d="M655.774 93.6661C655.314 94.0705 654.826 94.4406 654.312 94.7733C653.205 95.5926 652.031 96.434 650.78 97.364C649.158 98.6634 647.428 99.8227 645.61 100.829C647.085 99.3627 648.702 98.0461 650.437 96.899C653.138 94.8397 655.596 93.4336 655.774 93.6661Z" fill="#EBEBEB"/>
<path d="M656.438 103.918C654.147 107.452 650.866 110.233 647.005 111.912C646.927 111.757 649.341 110.384 651.943 108.17C654.544 105.956 656.305 103.808 656.438 103.918Z" fill="#EBEBEB"/>
<path d="M617.798 100.52C618.946 100.863 620.119 101.115 621.307 101.272C626.4 100.996 628.183 99.2795 636.498 101.051C637.841 101.335 639.225 101.376 640.583 101.173C642.23 100.935 643.891 100.817 645.554 100.818L647.16 111.89C647.16 111.89 637.295 120.515 628.415 119.552C616.923 118.334 615.572 104.937 617.798 100.52Z" fill="#FAFAFA"/>
<path d="M617.798 100.519C617.798 100.519 617.698 100.807 617.499 101.328C617.256 102.113 617.097 102.922 617.023 103.741C616.778 106.783 617.331 109.836 618.628 112.598C619.522 114.488 620.873 116.124 622.559 117.359C624.541 118.716 626.867 119.483 629.268 119.574C631.932 119.622 634.575 119.097 637.018 118.035C639.652 116.948 642.152 115.562 644.469 113.905C645.377 113.252 646.263 112.598 647.082 111.89V112.001C646.518 108.103 645.975 104.372 645.488 100.929L645.588 101.018C643.624 101.038 641.664 101.186 639.72 101.46C638.791 101.525 637.858 101.476 636.941 101.316C636.055 101.15 635.213 100.951 634.372 100.829C632.807 100.556 631.222 100.423 629.633 100.431C628.273 100.472 626.918 100.62 625.581 100.874C624.363 101.084 623.267 101.261 622.26 101.339C621.81 101.382 621.358 101.382 620.909 101.339C620.499 101.339 620.134 101.195 619.802 101.117C618.484 100.807 617.798 100.575 617.798 100.575C620.312 101.38 623.008 101.426 625.548 100.708C628.467 100.107 631.475 100.076 634.405 100.619C635.247 100.73 636.11 100.929 636.985 101.095C637.885 101.246 638.799 101.29 639.709 101.228C641.659 100.943 643.627 100.791 645.599 100.774H645.698V100.863C646.208 104.339 646.739 108.07 647.304 111.934C646.462 112.643 645.577 113.307 644.669 113.96C642.331 115.623 639.813 117.016 637.162 118.112C634.697 119.179 632.031 119.704 629.346 119.651C627.061 119.603 624.836 118.913 622.925 117.66C621.014 116.406 619.495 114.641 618.54 112.565C617.251 109.782 616.72 106.707 617.001 103.653C617.085 102.828 617.26 102.015 617.521 101.228C617.676 100.752 617.798 100.519 617.798 100.519Z" fill="#263238"/>
<path d="M618.728 106.996C622.582 108.872 626.825 109.808 631.111 109.729C635.396 109.65 639.602 108.558 643.384 106.542C641.966 108.453 640.182 110.064 638.136 111.281C635.712 112.521 632.877 112.587 630.143 112.576C627.971 112.728 625.793 112.38 623.776 111.558C621.856 110.411 620.223 108.839 619.005 106.963" fill="#E0E0E0"/>
<path d="M642.211 104.195C641.183 104.592 640.113 104.871 639.022 105.026C636.419 105.535 633.779 105.839 631.128 105.933C628.477 106.022 625.823 105.907 623.19 105.59C622.093 105.506 621.009 105.302 619.957 104.981C621.067 104.976 622.177 105.042 623.278 105.181C628.523 105.602 633.798 105.416 639 104.627C640.06 104.414 641.132 104.27 642.211 104.195Z" fill="#E0E0E0"/>
<path d="M644.115 108.812C643.516 109.677 642.766 110.428 641.901 111.026C639.93 112.602 637.66 113.762 635.228 114.436C632.796 115.109 630.252 115.283 627.751 114.946C626.714 114.859 625.7 114.596 624.751 114.171C624.751 114.082 625.924 114.381 627.807 114.536C632.732 114.982 637.651 113.621 641.646 110.705C643.229 109.609 644.049 108.746 644.115 108.812Z" fill="#E0E0E0"/>
<path d="M644.292 106.288C644.028 106.524 643.729 106.718 643.407 106.863C642.57 107.329 641.7 107.732 640.805 108.07C639.474 108.583 638.104 108.987 636.708 109.277C635.002 109.626 633.268 109.819 631.527 109.853C629.78 109.871 628.035 109.734 626.312 109.443C624.91 109.192 623.532 108.822 622.193 108.336C621.284 108.035 620.4 107.665 619.547 107.229C619.221 107.097 618.919 106.914 618.65 106.686C618.65 106.598 620.034 107.262 622.315 107.96C623.653 108.371 625.018 108.689 626.4 108.912C629.788 109.44 633.24 109.384 636.609 108.746C637.983 108.471 639.337 108.101 640.661 107.639C642.919 106.875 644.237 106.166 644.292 106.288Z" fill="#263238"/>
<path d="M636.033 106.288C631.683 107.12 627.201 106.935 622.935 105.745C622.935 105.579 625.869 106.066 629.478 106.199C633.088 106.332 636.022 106.099 636.033 106.288Z" fill="#263238"/>
<path d="M513.78 244.307V154.527H638.657V244.307L572.47 244.86L513.78 244.307Z" fill="#FDC62D"/>
<g opacity="0.4">
<path d="M638.668 154.527H513.78V244.307H638.668V154.527Z" fill="black"/>
</g>
<path d="M572.47 244.86L513.78 244.307V154.527H572.282L572.47 244.86Z" fill="#FDC62D"/>
<path d="M545.422 154.527H537.639V170.105H545.422V154.527Z" fill="#263238"/>
<path d="M533.443 224.489H517.943V239.989H533.443V224.489Z" fill="#FAFAFA"/>
<path d="M533.476 240.022H517.909V224.522H533.476V240.022ZM517.976 240.022H533.421V224.522H517.976V240.022Z" fill="#263238"/>
<path d="M667.886 175.142L670.466 196.035L631.715 219.03L637.738 232.316L681.781 214.524C687.117 211.812 691.679 207.804 691.302 201.803L689.188 172.563L667.886 175.142Z" fill="#FFBE9D"/>
<path d="M678.803 134.133C682.568 137.365 685.07 141.823 685.866 146.721C687.35 154.815 692.387 177.445 692.387 177.445L665.815 180.59V174.367C665.815 174.279 663.335 162.698 663.335 162.698L668.284 146.721L678.803 134.133Z" fill="#FDC62D"/>
<path d="M691.336 177.545C690.74 177.7 690.133 177.808 689.52 177.866L684.549 178.552C680.353 179.106 674.584 179.837 668.118 180.601L665.904 180.866H665.605V180.556C665.162 174.633 664.675 169.374 664.321 165.588C664.144 163.772 664 162.266 663.889 161.159C663.811 160.616 663.777 160.068 663.789 159.52C663.943 160.048 664.046 160.589 664.099 161.137C664.265 162.177 664.465 163.694 664.708 165.565C665.162 169.341 665.727 174.611 666.181 180.545L665.86 180.28L668.074 180.014C674.496 179.239 680.253 178.575 684.527 178.132L689.52 177.622C690.122 177.546 690.729 177.52 691.336 177.545Z" fill="#263238"/>
<path d="M676.621 135.594C676.621 135.683 675.658 136.093 674.186 137C670.329 139.375 667.334 142.921 665.638 147.12C664.985 148.725 664.753 149.788 664.653 149.766C664.699 148.81 664.901 147.867 665.251 146.976C666.791 142.574 669.902 138.896 673.986 136.646C674.8 136.151 675.691 135.795 676.621 135.594Z" fill="#263238"/>
<path d="M631.117 217.868L625.426 220.47L622.99 219.529L610.568 218.754L602.818 220.47L602.596 220.913C602.596 225.131 610.579 223.47 613.026 224.134C615.473 224.799 613.247 230.013 613.247 230.013C613.247 230.013 602.264 244.329 600.349 247.728C599.397 249.444 599.707 250.385 600.26 250.906C600.546 251.151 600.907 251.292 601.284 251.304C601.66 251.316 602.03 251.199 602.331 250.972L606.383 248.104C606.383 248.104 617.543 248.758 618.307 248.381C619.368 247.582 620.285 246.609 621.02 245.503C626.312 240.426 632.241 236.057 638.657 232.505L631.117 217.868Z" fill="#FAFAFA"/>
<path d="M631.117 217.868C631.117 217.868 631.117 217.934 631.261 218.089C631.405 218.244 631.493 218.521 631.659 218.82L633.176 221.676C634.516 224.234 636.442 227.888 638.834 232.427L638.911 232.593L638.745 232.682C632.349 236.277 626.443 240.683 621.175 245.79C620.469 246.875 619.59 247.836 618.573 248.636C618.406 248.744 618.217 248.812 618.019 248.835H617.521H616.525H614.543C611.874 248.769 609.129 248.647 606.316 248.492L606.494 248.437L603.892 250.219L602.563 251.171C602.313 251.366 602.02 251.501 601.709 251.564C601.398 251.628 601.076 251.618 600.77 251.537C600.454 251.448 600.168 251.275 599.942 251.037C599.716 250.8 599.558 250.506 599.485 250.186C599.371 249.576 599.449 248.946 599.707 248.381C600.218 247.352 600.826 246.373 601.522 245.458C605.375 239.923 609.35 234.719 613.059 229.847V229.903C613.365 229.154 613.606 228.379 613.779 227.589C613.978 226.848 614.008 226.073 613.867 225.319C613.794 224.991 613.595 224.705 613.314 224.522C612.99 224.372 612.64 224.29 612.284 224.278C611.52 224.201 610.734 224.212 609.97 224.201C608.447 224.248 606.922 224.145 605.42 223.891C604.663 223.752 603.95 223.437 603.338 222.972C603.05 222.711 602.82 222.394 602.661 222.039C602.503 221.685 602.421 221.301 602.419 220.913V220.857L602.641 220.414V220.315H602.751L610.502 218.632H610.568L622.979 219.473L625.415 220.436H625.326L629.611 218.554L630.718 218.078L631.073 217.945L630.696 218.145L629.589 218.676L625.415 220.658H625.36L622.913 219.739L610.49 219.03H610.546L602.796 220.78L602.951 220.658L602.729 221.101V220.99C602.733 221.308 602.804 221.622 602.935 221.911C603.066 222.201 603.257 222.46 603.493 222.673C604.042 223.088 604.685 223.361 605.364 223.47C606.827 223.713 608.311 223.809 609.793 223.758C610.568 223.758 611.343 223.758 612.151 223.824C612.589 223.841 613.018 223.947 613.413 224.134C613.81 224.389 614.095 224.785 614.211 225.242C614.383 226.084 614.36 226.955 614.144 227.788C613.962 228.613 613.71 229.42 613.391 230.202C609.693 235.084 605.73 240.266 601.888 245.802C601.237 246.694 600.667 247.643 600.183 248.636C599.973 249.093 599.904 249.601 599.983 250.097C600.036 250.318 600.145 250.521 600.301 250.686C600.456 250.851 600.652 250.973 600.869 251.038C601.094 251.095 601.33 251.099 601.556 251.049C601.783 250.999 601.995 250.897 602.176 250.751L603.515 249.798L606.15 247.938L606.228 247.883H606.328C609.129 248.038 611.863 248.171 614.532 248.248H616.502H617.466H617.931C618.053 248.234 618.17 248.193 618.274 248.127C619.226 247.364 620.052 246.456 620.721 245.436C626.034 240.348 631.99 235.974 638.435 232.427L638.358 232.682L632.944 221.931C632.324 220.68 631.837 219.717 631.482 218.997L631.106 218.222L631.117 217.868Z" fill="#263238"/>
<path d="M616.879 238.494C615.273 240.25 613.561 241.907 611.753 243.454C610.302 244.794 608.974 245.99 608.01 246.842C607.514 247.342 606.961 247.78 606.361 248.149C607.859 246.289 609.531 244.576 611.354 243.034C613.037 241.337 614.888 239.816 616.879 238.494Z" fill="#263238"/>
<path d="M620.256 241.262C619.392 242.721 618.305 244.036 617.034 245.159C615.914 246.431 614.629 247.548 613.214 248.481C614.229 247.134 615.371 245.888 616.624 244.761C617.747 243.507 618.961 242.338 620.256 241.262Z" fill="#263238"/>
<path d="M98.1612 453.771C99.0912 450.173 96.733 446.552 94.0868 443.94C91.4407 441.327 88.2742 438.991 86.9013 435.536C84.687 429.934 87.6653 422.693 83.8566 418.021C81.6423 415.275 77.6011 414.356 75.6193 411.378C74.7034 409.758 74.0953 407.982 73.8257 406.141C71.7036 396.835 67.1143 388.272 60.5397 381.352C60.0969 389.637 61.8904 397.89 65.7323 405.244C67.2824 408.178 69.1756 411.035 69.6849 414.312C70.5153 419.626 67.537 425.107 68.8435 430.333C70.3381 436.311 77.0586 440.297 77.3686 446.453C77.6454 451.656 73.1061 456.218 73.4493 461.411C73.7219 463.62 74.5149 465.734 75.7633 467.578C79.7823 474.221 85.7277 478.86 94.585 478.716L105.546 479.092L98.1612 453.771Z" fill="#FDC62D"/>
<g opacity="0.3">
<path d="M98.1612 453.771C99.0912 450.173 96.733 446.552 94.0868 443.94C91.4407 441.327 88.2742 438.991 86.9013 435.536C84.687 429.934 87.6653 422.693 83.8566 418.021C81.6423 415.275 77.6011 414.356 75.6193 411.378C74.7034 409.758 74.0953 407.982 73.8257 406.141C71.7036 396.835 67.1143 388.272 60.5397 381.352C60.0969 389.637 61.8904 397.89 65.7323 405.244C67.2824 408.178 69.1756 411.035 69.6849 414.312C70.5153 419.626 67.537 425.107 68.8435 430.333C70.3381 436.311 77.0586 440.297 77.3686 446.453C77.6454 451.656 73.1061 456.218 73.4493 461.411C73.7219 463.62 74.5149 465.734 75.7633 467.578C79.7823 474.221 85.7277 478.86 94.585 478.716L105.546 479.092L98.1612 453.771Z" fill="black"/>
</g>
<path d="M107.86 479.402C108.86 479.575 109.882 479.575 110.883 479.402C112.097 479.22 113.291 478.92 114.448 478.505C116.048 477.953 117.545 477.137 118.876 476.092C119.671 475.451 120.291 474.621 120.681 473.678C121.019 472.603 121.195 471.483 121.201 470.356C121.217 469.172 121.302 467.989 121.456 466.814C121.673 465.562 122.128 464.363 122.796 463.282C124.091 461.012 126.239 458.853 126.925 455.786C127.612 452.719 127.136 449.475 126.626 446.176C126.117 442.877 125.63 439.301 126.881 435.879C128.132 432.458 130.468 429.347 131.664 425.483C132.86 421.619 132.306 417.39 132.561 413.249C132.637 411.146 133.122 409.077 133.989 407.16C134.875 405.222 136.104 403.384 137.067 401.347C139.016 397.217 139.359 392.49 139.89 387.95C140.141 385.633 140.403 383.296 140.676 380.942C140.832 378.569 141.24 376.22 141.894 373.934C142.631 371.62 143.507 369.354 144.518 367.147C145.04 366.003 145.466 364.818 145.791 363.604C145.974 362.352 146.092 361.092 146.146 359.828C146.262 357.296 146.162 354.759 145.847 352.244C145.548 349.709 145.094 347.207 144.828 344.671C144.828 344.516 144.828 344.372 144.828 344.228L144.773 343.73L144.319 343.952C141.994 345.135 139.974 346.84 138.418 348.934C136.905 350.967 135.686 353.203 134.797 355.577C132.97 360.293 132.306 365.231 131.387 369.97C130.468 374.709 129.295 379.314 126.881 383.256C125.674 385.204 124.224 386.987 122.951 388.891C121.591 390.745 120.661 392.878 120.227 395.136C119.585 399.775 122.142 403.849 121.611 407.957C121.35 409.973 120.667 411.912 119.607 413.648C118.611 415.397 117.393 416.969 116.285 418.652C115.153 420.246 114.167 421.94 113.34 423.712C112.565 425.461 112.111 427.337 112.001 429.248C111.724 432.945 112.255 436.455 112.001 439.766C111.699 442.918 110.781 445.98 109.299 448.778C107.971 451.468 106.498 453.915 105.258 456.273C104.638 457.458 104.073 458.609 103.597 459.772C103.162 460.892 102.839 462.053 102.634 463.237C102.311 465.308 102.285 467.415 102.557 469.493C102.85 472.391 103.934 475.152 105.69 477.476C105.964 477.819 106.264 478.141 106.587 478.439C106.805 478.666 107.046 478.87 107.306 479.048C107.705 479.347 107.926 479.48 107.926 479.48C107.147 478.858 106.435 478.156 105.801 477.387C104.11 475.063 103.084 472.323 102.833 469.46C102.588 467.408 102.632 465.332 102.966 463.293C103.175 462.133 103.502 460.998 103.941 459.905C104.437 458.728 104.995 457.579 105.612 456.462C106.852 454.114 108.347 451.69 109.698 448.977C111.227 446.136 112.179 443.02 112.499 439.81C112.787 436.422 112.278 432.901 112.554 429.292C112.679 427.459 113.129 425.664 113.883 423.988C114.694 422.246 115.669 420.585 116.795 419.028C117.902 417.401 119.087 415.773 120.116 413.991C121.229 412.189 121.943 410.169 122.209 408.067C122.74 403.694 120.205 399.587 120.858 395.28C121.285 393.117 122.185 391.075 123.493 389.301C124.744 387.43 126.206 385.647 127.435 383.643C129.926 379.624 131.133 374.897 132.051 370.169C132.97 365.442 133.646 360.548 135.439 355.931C136.302 353.608 137.491 351.419 138.971 349.432C140.46 347.424 142.393 345.788 144.618 344.649L144.12 344.372C144.12 344.505 144.12 344.66 144.12 344.815C144.396 347.384 144.861 349.897 145.149 352.388C145.436 354.857 145.51 357.346 145.371 359.828C145.324 361.055 145.213 362.278 145.039 363.493C144.721 364.661 144.31 365.801 143.81 366.903C142.793 369.137 141.909 371.429 141.163 373.767C140.507 376.095 140.095 378.485 139.934 380.898C139.669 383.256 139.414 385.592 139.148 387.906C138.628 392.512 138.285 397.118 136.414 401.103C135.484 403.085 134.255 404.923 133.347 406.927C132.454 408.916 131.954 411.059 131.874 413.238C131.642 417.467 132.184 421.608 131.044 425.35C129.904 429.092 127.512 432.193 126.305 435.735C125.098 439.278 125.552 443.01 126.073 446.287C126.593 449.564 127.18 452.797 126.427 455.709C125.674 458.621 123.703 460.791 122.386 463.127C121.698 464.247 121.239 465.493 121.035 466.791C120.884 467.981 120.806 469.179 120.803 470.379C120.804 471.459 120.644 472.534 120.327 473.567C119.961 474.463 119.379 475.255 118.633 475.87C117.352 476.904 115.913 477.723 114.37 478.295C113.233 478.723 112.058 479.042 110.86 479.247C110.129 479.378 109.389 479.448 108.646 479.457L107.86 479.402Z" fill="#263238"/>
<path d="M142.503 350.285C142.446 350.388 142.409 350.5 142.392 350.617C142.326 350.872 142.248 351.204 142.149 351.602C141.938 352.466 141.684 353.761 141.263 355.4C140.842 357.038 139.846 358.854 139.049 361.124C138.252 363.394 137.266 365.973 136.436 368.874C135.605 371.775 134.864 375.041 134.089 378.517C133.425 382.233 132.243 385.836 130.579 389.224C129.682 391.006 128.664 392.811 127.866 394.76C127.074 396.78 126.542 398.893 126.283 401.048C125.737 405.516 124.95 409.951 123.925 414.334C121.711 423.324 119.629 431.872 117.725 439.666L112.532 460.326C111.082 466.172 109.908 470.921 109.089 474.265L108.181 478.074C108.092 478.472 108.026 478.793 107.971 479.059C107.959 479.173 107.959 479.288 107.971 479.402C107.971 479.402 107.971 479.303 108.092 479.081C108.214 478.86 108.259 478.505 108.38 478.107C108.624 477.188 108.967 475.893 109.41 474.343C110.285 471.021 111.536 466.271 113.064 460.448C114.592 454.624 116.385 447.582 118.411 439.832C120.437 432.082 122.441 423.479 124.667 414.489C125.694 410.107 126.481 405.671 127.025 401.203C127.272 399.103 127.782 397.043 128.542 395.07C129.317 393.143 130.313 391.35 131.21 389.534C132.885 386.093 134.063 382.433 134.709 378.661C135.462 375.174 136.17 371.93 136.923 369.018C137.676 366.106 138.573 363.482 139.414 361.268C140.256 359.054 141.186 357.16 141.628 355.477C142.071 353.795 142.215 352.521 142.392 351.636C142.459 351.237 142.514 350.905 142.57 350.639C142.563 350.519 142.541 350.399 142.503 350.285Z" fill="#263238"/>
<path d="M109.798 479.457C116.961 475.206 119.009 462.285 116.031 454.513C113.053 446.741 107.805 439.633 107.007 431.34C106.387 424.963 108.469 418.431 107.007 412.197C105.004 403.794 96.7994 397.273 96.888 388.637C96.888 383.787 99.7002 379.226 99.4898 374.377C99.213 368.442 94.6515 363.726 91.8282 358.489C87.5103 350.484 87.2224 341.007 85.7499 332.027C84.2774 323.048 80.8452 313.427 72.8847 309.01C71.7111 316.638 69.696 321.864 70.3271 332.194C70.5596 335.903 74.8665 342.999 75.4533 351.137C75.8076 355.998 76.0511 360.858 76.339 365.73C76.6269 370.601 76.9369 375.273 78.6308 379.702C79.9373 383.101 82.0298 386.179 82.9931 389.666C84.8088 396.254 82.4173 403.395 83.8899 410.072C85.1299 415.729 89.0493 420.601 89.8464 426.336C90.9536 434.396 85.7499 442.766 88.4182 450.461C89.7468 454.27 92.8468 457.336 93.7768 461.278C94.4633 464.334 93.7104 467.567 94.3415 470.633C95.349 475.582 104.782 479.424 109.842 479.114" fill="#FDC62D"/>
<path d="M74.8332 316.583C74.8186 316.726 74.8186 316.871 74.8332 317.014C74.8332 317.335 74.9218 317.745 74.9882 318.266C75.1543 319.373 75.3425 320.978 75.719 323.071C76.0954 325.163 77.2026 327.499 78.0661 330.4C78.9297 333.301 79.8819 336.534 80.6901 340.21C81.4984 343.885 82.1959 347.96 82.9045 352.322C83.613 356.684 84.4102 361.467 86.5802 366.018C87.5878 368.309 88.706 370.601 89.5585 373.037C90.382 375.547 90.8879 378.151 91.0643 380.787C91.4701 386.382 92.1723 391.952 93.1679 397.472C95.3822 408.776 97.4526 419.538 99.3458 429.325C101.239 439.113 103.154 447.881 104.682 455.277C106.21 462.673 107.461 468.563 108.336 472.759C108.768 474.785 109.111 476.38 109.355 477.509C109.476 478.018 109.576 478.428 109.642 478.738C109.664 478.879 109.705 479.017 109.764 479.148C109.781 479.008 109.781 478.867 109.764 478.727C109.709 478.406 109.631 477.996 109.543 477.476C109.332 476.369 109.034 474.741 108.646 472.704C107.827 468.519 106.653 462.54 105.214 455.177C103.774 447.815 101.981 438.969 100.032 429.203L93.9097 397.35C92.9107 391.856 92.2048 386.312 91.795 380.743C91.611 378.06 91.0865 375.411 90.2339 372.86C89.3592 370.358 88.2188 368.066 87.2113 365.796C85.0634 361.301 84.2995 356.618 83.5245 352.255C82.7494 347.893 82.0741 343.808 81.2216 340.132C80.369 336.456 79.439 333.157 78.4869 330.311C77.5347 327.466 76.4608 325.097 76.029 323.048C75.5972 321 75.3868 319.362 75.1764 318.277C75.0768 317.756 75.0104 317.347 74.9439 317.037C74.9249 316.881 74.8877 316.729 74.8332 316.583Z" fill="#263238"/>
<path d="M483.975 112.167H448.391V162.045H483.975V112.167Z" fill="#455A64"/>
<path d="M483.975 112.167H448.391V117.946H483.975V112.167Z" fill="#263238"/>
<path d="M483.975 156.265H448.391V162.045H483.975V156.265Z" fill="#263238"/>
<path d="M476.955 121.5H455.332V132.771H476.955V121.5Z" fill="#263238"/>
<path d="M471.265 127.136C471.209 127.136 471.209 126.682 470.999 125.929C470.683 124.859 470.026 123.922 469.128 123.261C468.408 122.723 467.552 122.396 466.657 122.316C465.762 122.237 464.862 122.407 464.058 122.809C463.254 123.211 462.578 123.829 462.105 124.593C461.631 125.357 461.38 126.237 461.378 127.136C461.381 128.119 461.683 129.078 462.245 129.885C462.807 130.692 463.601 131.309 464.522 131.653C465.281 131.935 466.098 132.025 466.9 131.912C467.703 131.8 468.464 131.49 469.117 131.011C470.006 130.347 470.658 129.416 470.977 128.354C471.187 127.59 471.187 127.136 471.242 127.136C471.298 127.136 471.242 127.246 471.242 127.468C471.249 127.785 471.216 128.101 471.143 128.409C470.896 129.567 470.249 130.602 469.316 131.332C468.619 131.884 467.792 132.249 466.915 132.392C466.037 132.536 465.137 132.453 464.301 132.151C463.266 131.782 462.371 131.102 461.738 130.204C461.105 129.306 460.766 128.234 460.766 127.136C460.766 126.037 461.105 124.966 461.738 124.068C462.371 123.17 463.266 122.49 464.301 122.12C465.138 121.824 466.037 121.744 466.913 121.887C467.79 122.03 468.616 122.392 469.316 122.94C470.252 123.671 470.899 124.711 471.143 125.874C471.217 126.182 471.25 126.498 471.242 126.815C471.298 127.025 471.287 127.136 471.265 127.136Z" fill="#455A64"/>
<path d="M457.824 137.111C457.824 137.278 457.774 137.44 457.682 137.579C457.589 137.717 457.458 137.825 457.304 137.889C457.15 137.952 456.981 137.969 456.818 137.937C456.655 137.904 456.505 137.824 456.387 137.706C456.269 137.589 456.189 137.439 456.157 137.275C456.124 137.112 456.141 136.943 456.205 136.789C456.268 136.635 456.376 136.504 456.515 136.412C456.653 136.319 456.816 136.27 456.982 136.27C457.205 136.27 457.419 136.358 457.577 136.516C457.735 136.674 457.824 136.888 457.824 137.111Z" fill="#263238"/>
<path d="M464.168 137.111C464.168 137.278 464.118 137.44 464.026 137.579C463.933 137.717 463.802 137.825 463.648 137.889C463.494 137.952 463.325 137.969 463.162 137.937C462.999 137.904 462.849 137.824 462.731 137.706C462.614 137.589 462.533 137.439 462.501 137.275C462.468 137.112 462.485 136.943 462.549 136.789C462.612 136.635 462.72 136.504 462.859 136.412C462.997 136.319 463.16 136.27 463.326 136.27C463.549 136.27 463.763 136.358 463.921 136.516C464.079 136.674 464.168 136.888 464.168 137.111Z" fill="#263238"/>
<path d="M470.512 137.111C470.512 137.331 470.424 137.543 470.268 137.698C470.113 137.854 469.902 137.942 469.681 137.942C469.514 137.944 469.35 137.896 469.21 137.804C469.07 137.713 468.96 137.582 468.895 137.427C468.83 137.273 468.812 137.103 468.844 136.939C468.877 136.775 468.957 136.624 469.075 136.505C469.194 136.387 469.345 136.307 469.509 136.274C469.673 136.242 469.843 136.26 469.997 136.325C470.152 136.39 470.283 136.5 470.374 136.64C470.466 136.78 470.514 136.944 470.512 137.111Z" fill="#263238"/>
<path d="M456.982 143.322C457.447 143.322 457.824 142.946 457.824 142.481C457.824 142.016 457.447 141.64 456.982 141.64C456.517 141.64 456.141 142.016 456.141 142.481C456.141 142.946 456.517 143.322 456.982 143.322Z" fill="#263238"/>
<path d="M464.168 142.481C464.168 142.647 464.118 142.81 464.026 142.948C463.933 143.087 463.802 143.195 463.648 143.258C463.494 143.322 463.325 143.339 463.162 143.306C462.999 143.274 462.849 143.194 462.731 143.076C462.614 142.958 462.533 142.808 462.501 142.645C462.468 142.482 462.485 142.313 462.549 142.159C462.612 142.005 462.72 141.874 462.859 141.781C462.997 141.689 463.16 141.64 463.326 141.64C463.549 141.64 463.763 141.728 463.921 141.886C464.079 142.044 464.168 142.258 464.168 142.481Z" fill="#263238"/>
<path d="M469.681 143.322C470.146 143.322 470.523 142.946 470.523 142.481C470.523 142.016 470.146 141.64 469.681 141.64C469.217 141.64 468.84 142.016 468.84 142.481C468.84 142.946 469.217 143.322 469.681 143.322Z" fill="#263238"/>
<path d="M456.982 148.703C457.447 148.703 457.824 148.326 457.824 147.862C457.824 147.397 457.447 147.02 456.982 147.02C456.517 147.02 456.141 147.397 456.141 147.862C456.141 148.326 456.517 148.703 456.982 148.703Z" fill="#263238"/>
<path d="M464.168 147.862C464.168 148.028 464.118 148.191 464.026 148.329C463.933 148.468 463.802 148.575 463.648 148.639C463.494 148.703 463.325 148.719 463.162 148.687C462.999 148.655 462.849 148.574 462.731 148.457C462.614 148.339 462.533 148.189 462.501 148.026C462.468 147.863 462.485 147.693 462.549 147.54C462.612 147.386 462.72 147.255 462.859 147.162C462.997 147.07 463.16 147.02 463.326 147.02C463.549 147.02 463.763 147.109 463.921 147.267C464.079 147.425 464.168 147.639 464.168 147.862Z" fill="#263238"/>
<path d="M469.681 148.703C470.146 148.703 470.523 148.326 470.523 147.862C470.523 147.397 470.146 147.02 469.681 147.02C469.217 147.02 468.84 147.397 468.84 147.862C468.84 148.326 469.217 148.703 469.681 148.703Z" fill="#263238"/>
<path d="M476.28 145.526C477.962 145.526 479.325 144.163 479.325 142.481C479.325 140.799 477.962 139.436 476.28 139.436C474.598 139.436 473.235 140.799 473.235 142.481C473.235 144.163 474.598 145.526 476.28 145.526Z" fill="#FDC62D"/>
<path d="M433.2 0.0222168H412.607V479.137H433.2V0.0222168Z" fill="#263238"/>
<path d="M412.607 20.239H207.549V479.148H412.607V20.239Z" fill="#455A64"/>
<path d="M213.295 0.0219727H194.318V479.136H213.295V0.0219727Z" fill="#263238"/>
<path d="M433.2 0.0219727H194.318V20.2388H433.2V0.0219727Z" fill="#263238"/>
<path d="M433.233 0C433.233 0 432.99 0.321077 432.47 0.80823L430.255 2.84541L422.87 9.4884C420.014 12.1124 417.456 14.526 415.707 16.3639C415.007 17.0595 414.353 17.7991 413.747 18.5782C413.593 18.7941 413.452 19.0197 413.327 19.2536C413.271 19.4197 413.238 19.5193 413.216 19.5193C413.194 19.5193 413.216 19.4197 413.216 19.2204C413.297 18.9519 413.412 18.6951 413.559 18.4564C414.099 17.5964 414.718 16.7884 415.408 16.0428C417.647 13.5817 420.008 11.2352 422.483 9.01232C425.362 6.38834 428.019 4.08544 429.989 2.45791C430.964 1.6386 431.772 0.996448 432.337 0.553582C432.615 0.338004 432.916 0.152448 433.233 0Z" fill="#455A64"/>
<path d="M213.295 20.6594C213.185 20.7591 208.867 16.2308 203.596 10.5399C198.326 4.84912 194.208 0.132597 194.318 0.0218805C194.429 -0.088836 198.747 4.45054 204.017 10.1414C209.287 15.8322 213.417 20.5487 213.295 20.6594Z" fill="#455A64"/>
<path d="M225.862 229.05H225.286C221.635 229.05 218.676 232.01 218.676 235.66V283.733C218.676 287.384 221.635 290.343 225.286 290.343H225.862C229.512 290.343 232.471 287.384 232.471 283.733V235.66C232.471 232.01 229.512 229.05 225.862 229.05Z" fill="#263238"/>
<path d="M228.408 275.285C228.417 274.865 228.311 274.449 228.103 274.084C227.896 273.718 227.593 273.415 227.227 273.207C226.861 272.999 226.446 272.894 226.025 272.902C225.604 272.911 225.194 273.033 224.837 273.255C224.48 273.478 224.189 273.793 223.996 274.167C223.803 274.541 223.715 274.96 223.741 275.38C223.766 275.8 223.905 276.205 224.142 276.553C224.379 276.901 224.705 277.178 225.087 277.356V280.113C225.087 280.389 225.196 280.653 225.391 280.849C225.587 281.044 225.851 281.153 226.127 281.153C226.265 281.155 226.401 281.129 226.529 281.077C226.656 281.026 226.773 280.949 226.87 280.852C226.968 280.756 227.046 280.64 227.099 280.513C227.152 280.386 227.179 280.25 227.179 280.113V277.411C227.561 277.206 227.878 276.898 228.095 276.523C228.312 276.147 228.421 275.719 228.408 275.285Z" fill="#455A64"/>
<path d="M259.874 249.688H228.906C226.968 249.688 225.397 251.259 225.397 253.197V253.507C225.397 255.446 226.968 257.017 228.906 257.017H259.874C261.812 257.017 263.383 255.446 263.383 253.507V253.197C263.383 251.259 261.812 249.688 259.874 249.688Z" fill="#263238"/>
<path d="M239.203 257.227C238.821 257.307 238.43 257.341 238.04 257.327L234.896 257.46C233.33 257.54 231.759 257.488 230.202 257.305C229.264 257.197 228.345 256.966 227.467 256.619C226.482 256.235 225.647 255.544 225.087 254.648C224.825 254.175 224.676 253.649 224.651 253.109C224.626 252.569 224.726 252.031 224.943 251.537C225.168 251.07 225.531 250.683 225.983 250.43C226.394 250.202 226.828 250.02 227.279 249.887C228.803 249.448 230.389 249.261 231.973 249.333C233.302 249.333 234.376 249.4 235.117 249.444C235.49 249.445 235.861 249.486 236.225 249.566C234.797 249.707 233.363 249.763 231.929 249.732C230.395 249.726 228.87 249.946 227.401 250.385C226.986 250.469 226.594 250.639 226.251 250.886C225.907 251.132 225.62 251.448 225.408 251.813C225.231 252.227 225.153 252.676 225.178 253.126C225.203 253.575 225.331 254.012 225.552 254.404C226.032 255.203 226.758 255.825 227.622 256.176C228.447 256.517 229.315 256.744 230.202 256.851C231.732 257.057 233.275 257.153 234.819 257.139C236.28 257.036 237.747 257.065 239.203 257.227Z" fill="#455A64"/>
<path d="M304.426 122.995C304.426 122.995 304.426 122.862 304.426 122.618C304.426 122.375 304.426 122.02 304.426 121.567C304.426 120.625 304.426 119.264 304.426 117.492C304.426 113.927 304.426 108.734 304.36 102.147C304.36 88.9827 304.282 70.2827 304.227 48.0397L304.481 48.2944H243.587L243.875 48.0065C243.875 75.6856 243.875 101.516 243.875 122.962L243.632 122.718L287.741 122.84L300.086 122.906H303.352H304.459H303.352H300.13L287.841 122.973L243.554 123.094H243.31V122.862C243.31 101.416 243.31 75.6303 243.31 47.9069V47.619H243.609H304.503H304.769V47.8737C304.769 70.183 304.67 88.9495 304.636 102.125C304.636 108.679 304.636 113.861 304.57 117.415C304.57 119.164 304.57 120.504 304.57 121.434C304.57 121.877 304.57 122.22 304.57 122.463C304.547 122.646 304.499 122.825 304.426 122.995Z" fill="#263238"/>
<path d="M294.417 113.717C294.409 113.621 294.409 113.525 294.417 113.429C294.417 113.219 294.417 112.953 294.417 112.621C294.417 111.879 294.417 110.838 294.417 109.488C294.417 106.742 294.417 102.767 294.351 97.7405C294.351 87.6764 294.273 73.3829 294.218 56.5761L294.484 56.8308H252.555C252.489 56.8308 253.098 56.2882 252.843 56.554V60.5065C252.843 61.8241 252.843 63.1416 252.843 64.448V72.1982C252.843 77.3022 252.843 82.2734 252.843 87.0785C252.843 96.6887 252.843 105.646 252.843 113.65L252.611 113.407L283.024 113.54H291.505H293.72H294.506H293.764H291.55L283.124 113.606L252.555 113.728H252.312V113.495C252.312 105.468 252.312 96.5115 252.312 86.9235C252.312 82.1184 252.312 77.1472 252.312 72.0432V56.5983L252.611 56.2993H294.539H294.794V56.565C294.738 73.4936 294.694 87.7982 294.661 97.9066C294.661 102.9 294.661 106.852 294.594 109.587C294.594 110.916 294.594 111.934 294.594 112.665V113.451C294.417 113.628 294.417 113.717 294.417 113.717Z" fill="#263238"/>
<path d="M304.426 281.22C304.426 281.22 304.426 280.976 304.426 280.522C304.426 280.068 304.426 279.415 304.426 278.507C304.426 276.725 304.426 274.079 304.426 270.757C304.426 263.959 304.426 254.072 304.348 241.65C304.348 216.805 304.271 181.863 304.227 141.13L304.492 141.407H243.598L243.886 141.119C243.886 195.691 243.886 245.193 243.809 281.253L243.598 281.054L288.062 281.164H300.241H303.407H304.515C304.515 281.164 304.171 281.164 303.407 281.164H300.285L288.206 281.22L243.609 281.33H243.41V281.22C243.41 245.148 243.41 195.658 243.322 141.086V140.798H304.736V141.075C304.681 181.83 304.636 216.882 304.603 241.827C304.603 254.238 304.548 264.103 304.537 270.879C304.537 274.2 304.537 276.846 304.537 278.629C304.537 279.493 304.537 280.157 304.537 280.611C304.537 281.065 304.426 281.22 304.426 281.22Z" fill="#263238"/>
<path d="M294.417 273.47C294.417 273.47 294.417 273.248 294.417 272.85C294.417 272.451 294.417 271.82 294.417 271.045C294.417 269.44 294.417 267.115 294.417 264.103C294.417 258.047 294.417 249.256 294.34 238.251C294.34 216.24 294.262 185.339 294.207 149.733L294.495 150.01H252.489L252.777 149.722C252.777 199.19 252.699 243.587 252.677 273.459L252.489 273.27L283.246 273.37H291.516H293.664H294.417H293.709H291.594L283.357 273.425L252.489 273.525H252.29V273.47C252.29 243.576 252.234 199.201 252.19 149.733V149.467H294.694V149.744C294.639 185.428 294.594 216.395 294.561 238.45C294.561 249.433 294.506 258.202 294.484 264.236C294.484 267.225 294.484 269.539 294.484 271.123C294.484 271.886 294.484 272.473 294.484 272.894C294.484 273.315 294.417 273.47 294.417 273.47Z" fill="#263238"/>
<path d="M304.426 458.676C304.426 458.676 304.426 458.433 304.426 457.979C304.426 457.525 304.426 456.871 304.426 455.964C304.426 454.181 304.426 451.535 304.426 448.213C304.426 441.415 304.426 431.528 304.348 419.106C304.348 394.261 304.271 359.264 304.227 318.587L304.492 318.863H243.598L243.886 318.576C243.886 373.148 243.886 422.649 243.809 458.709L243.598 458.499L288.062 458.621H300.241H303.407H304.515H303.407H300.285L288.206 458.676L243.609 458.787H243.41V458.576C243.41 422.505 243.41 373.015 243.322 318.443V318.155H304.736V318.432C304.681 359.186 304.636 394.239 304.603 419.184C304.603 431.595 304.548 441.46 304.537 448.236C304.537 451.557 304.537 454.203 304.537 455.986C304.537 456.849 304.537 457.514 304.537 457.968C304.537 458.421 304.426 458.676 304.426 458.676Z" fill="#263238"/>
<path d="M294.417 450.915C294.417 450.915 294.417 450.693 294.417 450.284C294.417 449.874 294.417 449.265 294.417 448.49C294.417 446.885 294.417 444.56 294.417 441.548C294.417 435.492 294.417 426.701 294.34 415.696C294.34 393.686 294.262 362.785 294.207 327.178L294.495 327.455H252.489L252.777 327.167C252.777 376.635 252.699 421.033 252.677 450.904L252.489 450.716L283.246 450.815H291.516H293.664H294.417H293.709H291.594L283.357 450.871L252.489 450.97H252.29V450.782C252.29 420.889 252.234 376.513 252.19 327.045V326.757H294.694V327.034C294.639 362.718 294.594 393.686 294.561 415.74C294.561 426.723 294.506 435.492 294.484 441.526C294.484 444.515 294.484 446.829 294.484 448.413C294.484 449.177 294.484 449.763 294.484 450.184C294.484 450.605 294.417 450.915 294.417 450.915Z" fill="#263238"/>
<path d="M253.463 113.684C251.863 115.368 250.122 116.912 248.259 118.3C246.529 119.831 244.678 121.22 242.724 122.452C244.332 120.781 246.073 119.24 247.927 117.847C249.659 116.314 251.51 114.922 253.463 113.684Z" fill="#263238"/>
<path d="M304.802 121.888C302.872 120.921 301.077 119.704 299.466 118.267C297.741 116.969 296.186 115.459 294.838 113.772C294.96 113.65 297.052 115.588 299.831 117.813C302.61 120.039 304.869 121.788 304.802 121.888Z" fill="#263238"/>
<path d="M303.529 49.8224C302.122 51.2021 300.583 52.4407 298.934 53.5203C297.4 54.7589 295.745 55.8419 293.996 56.7532C295.404 55.374 296.943 54.1354 298.591 53.0553C300.129 51.8213 301.783 50.7386 303.529 49.8224Z" fill="#263238"/>
<path d="M252.655 55.6241C250.854 54.9144 249.159 53.9608 247.617 52.7897C245.976 51.7701 244.485 50.5253 243.189 49.0918C244.839 50.0746 246.432 51.1503 247.961 52.3136C249.59 53.3231 251.157 54.4285 252.655 55.6241Z" fill="#263238"/>
<path d="M252.267 149.877C248.408 147.655 245.38 144.234 243.643 140.134C243.798 140.056 245.193 142.647 247.595 145.326C249.998 148.006 252.367 149.733 252.267 149.877Z" fill="#263238"/>
<path d="M303.695 140.997C302.393 142.524 300.947 143.922 299.377 145.171C297.936 146.566 296.364 147.819 294.683 148.914C295.988 147.39 297.434 145.993 299.001 144.74C300.441 143.343 302.013 142.09 303.695 140.997Z" fill="#263238"/>
<path d="M252.245 274.068C252.334 274.212 250.319 275.673 248.027 277.71C245.735 279.747 244.019 281.574 243.897 281.463C244.899 279.867 246.165 278.452 247.639 277.278C248.993 275.969 250.548 274.885 252.245 274.068Z" fill="#263238"/>
<path d="M302.721 281.065C299.773 278.884 297.07 276.389 294.661 273.625C296.186 274.648 297.603 275.824 298.89 277.134C300.299 278.309 301.582 279.626 302.721 281.065Z" fill="#263238"/>
<path d="M253.275 328.828C251.44 327.334 249.73 325.693 248.16 323.923C246.459 322.281 244.889 320.508 243.465 318.62C245.3 320.114 247.011 321.754 248.581 323.525C250.292 325.157 251.863 326.931 253.275 328.828Z" fill="#263238"/>
<path d="M304.227 318.188C302.808 319.94 301.249 321.573 299.565 323.071C298.009 324.689 296.316 326.171 294.506 327.499C297.476 324.112 300.728 320.982 304.227 318.144V318.188Z" fill="#263238"/>
<path d="M251.249 450.195C249.014 453.241 246.473 456.049 243.665 458.576C245.899 455.53 248.441 452.722 251.249 450.195Z" fill="#263238"/>
<path d="M303.418 458.676C301.686 457.649 300.097 456.398 298.691 454.956C297.168 453.657 295.817 452.169 294.672 450.527C296.227 451.789 297.706 453.142 299.1 454.58C300.621 455.857 302.063 457.225 303.418 458.676Z" fill="#263238"/>
<path d="M385.415 122.995C385.415 122.995 385.415 122.862 385.415 122.618C385.415 122.375 385.415 122.02 385.415 121.567C385.415 120.625 385.415 119.264 385.415 117.492C385.415 113.927 385.415 108.734 385.349 102.147C385.349 88.9827 385.271 70.2827 385.216 48.0397L385.47 48.2944H324.632L324.92 48.0065C324.92 75.6856 324.92 101.516 324.92 122.962L324.676 122.718L368.796 122.84L381.13 122.906H384.452H385.559H384.452H381.23L368.94 122.973L324.654 123.094H324.41V122.862C324.41 101.416 324.41 75.6303 324.41 47.9069V47.619H324.709H385.548H385.814V47.8737C385.758 70.183 385.714 88.9495 385.681 102.125C385.681 108.679 385.625 113.861 385.614 117.415C385.614 119.164 385.614 120.504 385.614 121.434C385.614 121.877 385.614 122.22 385.614 122.463C385.574 122.649 385.507 122.828 385.415 122.995Z" fill="#263238"/>
<path d="M375.406 113.717C375.398 113.621 375.398 113.525 375.406 113.429C375.406 113.219 375.406 112.953 375.406 112.621C375.406 111.879 375.406 110.838 375.406 109.488C375.406 106.742 375.406 102.767 375.34 97.7405C375.34 87.6764 375.262 73.3829 375.207 56.5761L375.473 56.8308H333.544C333.478 56.8308 334.087 56.2882 333.832 56.554V60.5065C333.832 61.8241 333.832 63.1416 333.832 64.448V72.1982C333.832 77.3022 333.832 82.2734 333.832 87.0785C333.832 96.6887 333.832 105.646 333.832 113.65L333.6 113.407L364.014 113.54H372.494H374.709H375.495H374.753H372.539L364.113 113.606L333.544 113.728H333.301V113.495C333.301 105.468 333.301 96.5115 333.301 86.9235C333.301 82.1184 333.301 77.1472 333.301 72.0432V64.293C333.301 62.9866 333.301 61.6691 333.301 60.3515V56.5983L333.6 56.2993H375.528H375.661V56.565C375.606 73.4936 375.561 87.7982 375.528 97.9066C375.528 102.9 375.528 106.852 375.462 109.587C375.462 110.916 375.462 111.934 375.462 112.665V113.451C375.406 113.628 375.406 113.717 375.406 113.717Z" fill="#263238"/>
<path d="M385.415 281.22C385.415 281.22 385.415 280.976 385.415 280.522C385.415 280.068 385.415 279.415 385.415 278.507C385.415 276.725 385.415 274.079 385.415 270.757C385.415 263.959 385.415 254.072 385.338 241.65C385.338 216.805 385.26 181.863 385.216 141.13L385.481 141.407H324.587L324.875 141.119C324.875 195.691 324.82 245.193 324.798 281.253L324.587 281.054L369.051 281.164H381.23H384.396H385.504C385.504 281.164 385.16 281.164 384.452 281.164L381.197 281.22L369.118 281.275L324.521 281.386H324.322V281.22C324.322 245.148 324.266 195.658 324.233 141.086V140.798H385.648V141.075C385.592 181.83 385.548 216.882 385.515 241.827C385.515 254.238 385.459 264.103 385.448 270.879C385.448 274.2 385.448 276.846 385.448 278.629C385.448 279.493 385.448 280.157 385.448 280.611C385.448 281.065 385.415 281.22 385.415 281.22Z" fill="#263238"/>
<path d="M375.406 273.47C375.406 273.47 375.406 273.248 375.406 272.85C375.406 272.451 375.406 271.82 375.406 271.045C375.406 269.44 375.406 267.115 375.406 264.103C375.406 258.047 375.406 249.256 375.329 238.251C375.329 216.24 375.251 185.339 375.196 149.733L375.484 150.01H333.478L333.766 149.722C333.766 199.19 333.688 243.587 333.666 273.459L333.478 273.27L364.235 273.37H372.505H374.653H375.406H374.698H372.583L364.357 273.425L333.478 273.525H333.279V273.47C333.279 243.576 333.223 199.201 333.179 149.733V149.467H375.661V149.744C375.661 185.428 375.561 216.395 375.528 238.45C375.528 249.433 375.528 258.202 375.451 264.236C375.451 267.225 375.451 269.539 375.451 271.123C375.451 271.886 375.451 272.473 375.451 272.894C375.451 273.315 375.406 273.47 375.406 273.47Z" fill="#263238"/>
<path d="M385.415 458.676C385.415 458.676 385.415 458.433 385.415 457.979C385.415 457.525 385.415 456.871 385.415 455.964C385.415 454.181 385.415 451.535 385.415 448.213C385.415 441.415 385.415 431.528 385.338 419.106C385.338 394.261 385.26 359.264 385.216 318.587L385.481 318.863H324.587L324.875 318.576C324.875 373.148 324.82 422.649 324.798 458.709L324.587 458.499L369.051 458.621H381.23H384.396H385.504H384.452H381.33L369.25 458.676L324.654 458.787H324.455V458.576C324.455 422.505 324.399 373.015 324.366 318.443V318.155H385.78V318.432C385.725 359.186 385.681 394.239 385.648 419.184C385.648 431.595 385.592 441.46 385.581 448.236C385.581 451.557 385.581 454.203 385.581 455.986C385.581 456.849 385.581 457.514 385.581 457.968C385.581 458.421 385.415 458.676 385.415 458.676Z" fill="#263238"/>
<path d="M375.406 450.915C375.406 450.915 375.406 450.693 375.406 450.284C375.406 449.874 375.406 449.265 375.406 448.49C375.406 446.885 375.406 444.56 375.406 441.548C375.406 435.492 375.406 426.701 375.329 415.696C375.329 393.686 375.251 362.785 375.196 327.178L375.484 327.455H333.478L333.766 327.167C333.766 376.635 333.688 421.033 333.666 450.904L333.478 450.716L364.235 450.815H372.505H374.653H375.406H374.698H372.583L364.357 450.871L333.478 450.97H333.279V450.782C333.279 420.889 333.223 376.513 333.179 327.045V326.757H375.661V327.034C375.661 362.718 375.561 393.686 375.528 415.74C375.528 426.723 375.528 435.492 375.451 441.526C375.451 444.515 375.451 446.829 375.451 448.413C375.451 449.177 375.451 449.763 375.451 450.184C375.451 450.605 375.406 450.915 375.406 450.915Z" fill="#263238"/>
<path d="M334.452 113.684C332.852 115.368 331.111 116.912 329.249 118.3C327.518 119.831 325.667 121.22 323.713 122.452C325.321 120.781 327.062 119.24 328.916 117.847C330.648 116.314 332.5 114.922 334.452 113.684Z" fill="#263238"/>
<path d="M385.769 121.888C383.839 120.921 382.044 119.704 380.433 118.267C378.708 116.969 377.153 115.459 375.805 113.772C375.927 113.65 378.019 115.588 380.798 117.813C383.577 120.039 385.858 121.788 385.769 121.888Z" fill="#263238"/>
<path d="M384.518 49.8224C383.111 51.2021 381.572 52.4407 379.924 53.5203C378.389 54.7589 376.735 55.8419 374.986 56.7532C376.396 55.3774 377.935 54.1391 379.58 53.0553C381.118 51.8213 382.772 50.7386 384.518 49.8224Z" fill="#263238"/>
<path d="M333.644 55.6241C331.843 54.9144 330.148 53.9608 328.606 52.7897C326.965 51.7701 325.474 50.5253 324.178 49.0918C325.828 50.0746 327.421 51.1503 328.95 52.3136C330.579 53.3231 332.146 54.4285 333.644 55.6241Z" fill="#263238"/>
<path d="M333.257 149.877C329.397 147.655 326.369 144.234 324.632 140.134C324.787 140.056 326.182 142.647 328.584 145.326C330.987 148.006 333.356 149.733 333.257 149.877Z" fill="#263238"/>
<path d="M384.662 140.997C383.36 142.524 381.914 143.922 380.344 145.171C378.906 146.566 377.338 147.819 375.661 148.914C376.966 147.39 378.412 145.993 379.979 144.74C381.415 143.344 382.984 142.09 384.662 140.997Z" fill="#263238"/>
<path d="M333.234 274.068C333.323 274.212 331.308 275.673 329.016 277.71C326.724 279.747 325.008 281.574 324.886 281.463C325.888 279.867 327.154 278.452 328.629 277.278C329.982 275.969 331.537 274.885 333.234 274.068Z" fill="#263238"/>
<path d="M383.71 281.065C380.762 278.884 378.059 276.389 375.65 273.625C377.175 274.648 378.592 275.824 379.879 277.134C381.288 278.309 382.572 279.626 383.71 281.065Z" fill="#263238"/>
<path d="M334.264 328.828C332.429 327.334 330.719 325.693 329.149 323.923C327.448 322.281 325.878 320.508 324.455 318.62C326.292 320.111 328.003 321.751 329.57 323.525C331.281 325.157 332.852 326.931 334.264 328.828Z" fill="#263238"/>
<path d="M385.216 318.188C383.801 319.943 382.242 321.576 380.555 323.071C378.998 324.689 377.305 326.171 375.495 327.499C378.465 324.112 381.717 320.982 385.216 318.144V318.188Z" fill="#263238"/>
<path d="M332.238 450.195C330.003 453.241 327.462 456.049 324.654 458.576C325.689 456.98 326.888 455.496 328.23 454.148C329.433 452.702 330.775 451.378 332.238 450.195Z" fill="#263238"/>
<path d="M384.407 458.676C382.675 457.649 381.086 456.398 379.68 454.956C378.157 453.657 376.806 452.169 375.661 450.527C377.216 451.789 378.695 453.142 380.09 454.58C381.61 455.857 383.052 457.225 384.407 458.676Z" fill="#263238"/>
<path d="M504.834 381.518H369.029V479.148H504.834V381.518Z" fill="#FDC62D"/>
<path d="M405.455 381.518C405.643 381.518 405.455 402.133 405.455 402.133H395.402V381.518H405.455Z" fill="#263238"/>
<g opacity="0.4">
<path d="M436.931 479.148H504.834V381.518H436.931V479.148Z" fill="black"/>
</g>
<path d="M391.349 460.038H373.17V472.903H391.349V460.038Z" fill="#FAFAFA"/>
<path d="M391.372 472.925H373.137V460.005H391.372V472.925ZM373.192 472.925H391.316V460.06H373.192V472.925Z" fill="#263238"/>
<path d="M403.794 460.038H394.704V472.903H403.794V460.038Z" fill="#FAFAFA"/>
<path d="M403.816 472.925H394.671V460.005H403.816V472.925ZM394.737 472.925H403.761V460.06H394.737V472.925Z" fill="#263238"/>
</svg>
